<?xml version="1.0" standalone="no"?>
<!DOCTYPE svg PUBLIC "-//W3C//DTD SVG 1.1//EN" "http://www.w3.org/Graphics/SVG/1.1/DTD/svg11.dtd" >
<svg xmlns="http://www.w3.org/2000/svg">
<metadata></metadata>
<defs>
<font id="pill_gothic_600mg_rgbold" horiz-adv-x="1294" >
<font-face units-per-em="2048" ascent="1638" descent="-410" />
<missing-glyph horiz-adv-x="446" />
<glyph unicode="&#xdf;" horiz-adv-x="1333" d="M76 829v175h110v198q0 66 25 123t66.5 99t100 65.5t126.5 23.5q27 0 61.5 -4t70.5 -12t70.5 -18.5t59.5 -20.5l-66 -201q-47 23 -80.5 30t-68.5 7q-76 0 -102.5 -49t-26.5 -123v-118h764v-154l-180 -232h18q51 0 91 -20t68.5 -55t44 -80t15.5 -96v-119q0 -66 -26.5 -115 t-70.5 -82t-103.5 -49t-124.5 -16q-43 0 -86.5 7t-83 22.5t-72.5 40t-53 61.5l112 131q20 -33 68.5 -55.5t87.5 -22.5q113 0 113 115v34q0 66 -29 100t-94 34h-172v155l176 217h-453v-825h-246v829h-110z" />
<glyph unicode="&#xfb01;" horiz-adv-x="1236" d="M33 827v177h184v172q0 82 27.5 146t78 109.5t120 70t151.5 24.5q139 0 266 -40t244 -104l-105 -192q-94 43 -197.5 81t-203.5 38q-53 0 -90 -33t-37 -84v-188h193v-177h-195v-827h-252v827h-184zM840 0v1004h254v-1004h-254z" />
<glyph unicode="&#xfb02;" horiz-adv-x="1282" d="M33 825v179h190v196q0 78 32 138.5t86 102.5t124.5 64.5t148.5 22.5q43 0 95.5 -6t106.5 -17.5t106.5 -27t91.5 -33.5h94v-1444h-252v1270q-55 18 -120.5 26.5t-121.5 8.5q-53 0 -95 -29t-42 -80v-192h209v-179h-211v-825h-256v825h-186z" />
<glyph horiz-adv-x="2048" />
<glyph horiz-adv-x="2048" />
<glyph unicode="&#xd;" horiz-adv-x="446" />
<glyph unicode=" "  horiz-adv-x="446" />
<glyph unicode="&#x09;" horiz-adv-x="446" />
<glyph unicode="&#xa0;" horiz-adv-x="446" />
<glyph unicode="!" horiz-adv-x="501" d="M127 1393h281l-33 -904h-217zM147 0v276h248v-276h-248z" />
<glyph unicode="&#x22;" horiz-adv-x="626" d="M90 1413h191l-17 -452h-158zM350 1413h187l-15 -452h-155z" />
<glyph unicode="#" horiz-adv-x="1239" d="M76 238v147h254l82 430h-254v148h280l47 256h152l-47 -256h219l49 256h146l-43 -256h202v-148h-229l-82 -430h221v-147h-250l-39 -238h-153l41 238h-219l-41 -238h-152l41 238h-225zM481 385h219l82 430h-219z" />
<glyph unicode="$" horiz-adv-x="1116" d="M78 262l198 141q47 -74 128 -126t174 -52q90 0 148 34t58 124v102l-669 279v248q0 80 27.5 145.5t77.5 114.5t120 79.5t152 41.5v245h202v-252q53 0 103.5 -18t95.5 -49t84 -72t67 -86l-170 -160q-53 66 -131.5 117t-160.5 51q-90 0 -150.5 -39.5t-60.5 -125.5v-99 l669 -289v-213q0 -80 -27.5 -149.5t-75.5 -123.5t-115.5 -86t-147.5 -36v-250h-201v242q-51 0 -110.5 20.5t-114.5 56.5t-101.5 83t-68.5 102z" />
<glyph unicode="%" horiz-adv-x="1466" d="M104 1053v121q0 59 24 104t63.5 74.5t94 45t113.5 15.5q55 0 107.5 -16.5t92.5 -48t64.5 -75.5t24.5 -99v-121q0 -59 -23.5 -104.5t-63.5 -76t-92 -47t-110 -16.5q-63 0 -116.5 14.5t-93 44t-62.5 75.5t-23 110zM135 0l987 1393h205l-973 -1393h-219zM317 1063 q0 -39 21.5 -50.5t60.5 -11.5q29 0 55.5 17.5t26.5 46.5v102q0 31 -25.5 42.5t-56.5 11.5t-56.5 -15.5t-25.5 -44.5v-98zM807 205v166q0 117 79 174t199 57q53 0 103.5 -12t88.5 -40t61.5 -70t23.5 -101v-158q0 -121 -79 -179t-198 -58q-53 0 -103 14t-89 43t-62.5 70 t-23.5 94zM1004 338l2 -100q0 -33 23.5 -49.5t55.5 -16.5q29 0 55.5 18.5t26.5 49.5v100q0 35 -23.5 51.5t-58.5 16.5q-33 0 -57 -20.5t-24 -49.5z" />
<glyph unicode="&#x26;" horiz-adv-x="1388" d="M76 352q0 70 28.5 128.5t75.5 110.5t105.5 98t115.5 91l-149 164v199q0 63 26.5 113.5t71.5 85t104.5 53t127.5 18.5q162 0 262 -79t100 -236q0 -111 -51 -193t-139 -145l192 -207l184 199l175 -162l-195 -207l233 -233l-178 -170l-213 221q-78 -111 -182 -166t-240 -55 q-104 0 -188 22.5t-143.5 68.5t-91 115.5t-31.5 165.5zM342 360q0 -82 52 -115.5t118 -33.5q47 0 81 14.5t64.5 38t61.5 55t67 66.5l-221 242q-35 -31 -73.5 -59.5t-72.5 -60.5t-55.5 -68t-21.5 -79zM475 1028l115 -125q43 33 84 81t41 108q0 59 -33 87.5t-92 28.5 q-47 0 -81 -22.5t-34 -65.5v-92z" />
<glyph unicode="'" horiz-adv-x="491" d="M119 1434h254l-35 -498h-184z" />
<glyph unicode="(" horiz-adv-x="714" d="M143 260v592q0 125 28 233.5t77 199.5t116.5 162t147.5 118l80 -125q-47 -31 -91 -84t-78 -128t-54.5 -169t-20.5 -207v-592q0 -119 20.5 -215t54.5 -168t78 -123t91 -82l-80 -125q-80 47 -147.5 118t-116.5 162t-77 199.5t-28 233.5z" />
<glyph unicode=")" horiz-adv-x="763" d="M123 -346q47 35 91 92t78 134t54.5 173.5t20.5 208.5v592q0 225 -63.5 371.5t-160.5 216.5l60 125q80 -47 147.5 -118t116.5 -162t75.5 -199.5t26.5 -233.5v-592q0 -125 -26.5 -233.5t-75.5 -199.5t-116.5 -161.5t-147.5 -118.5z" />
<glyph unicode="*" horiz-adv-x="792" d="M76 1159l43 139l203 -65v209h149v-211l203 67l43 -139l-199 -63l125 -168l-121 -88l-125 170l-127 -170l-118 86l124 170z" />
<glyph unicode="+" horiz-adv-x="1138" d="M47 684v225h395v361h254v-361h396v-225h-396v-418h-254v418h-395z" />
<glyph unicode="," horiz-adv-x="458" d="M37 -209q14 20 29.5 46t27.5 58.5t20.5 75.5t8.5 101v131h213v-56q0 -96 -20.5 -168.5t-50 -125t-63.5 -88t-59 -56.5z" />
<glyph unicode="-" horiz-adv-x="690" d="M76 496v225h538v-225h-538z" />
<glyph unicode="." horiz-adv-x="479" d="M104 0v276h271v-276h-271z" />
<glyph unicode="/" horiz-adv-x="815" d="M33 -174l540 1567h220l-545 -1567h-215z" />
<glyph unicode="0" horiz-adv-x="1218" d="M119 420v545q0 104 37 187t103.5 141.5t155.5 89t193 30.5t193.5 -30.5t156 -89t104.5 -141.5t38 -187v-545q0 -104 -39 -185t-105.5 -138.5t-155.5 -87t-192 -29.5q-102 0 -191 30.5t-155.5 87t-104.5 138t-38 184.5zM373 420q0 -104 65.5 -159.5t169.5 -55.5t171 53 t67 162v545q0 109 -64.5 166t-173.5 57q-111 0 -173 -58.5t-62 -164.5v-545z" />
<glyph unicode="1" horiz-adv-x="884" d="M123 1167v226h557v-1393h-254v1167h-303z" />
<glyph unicode="2" horiz-adv-x="1093" d="M90 1157q88 111 210 173.5t269 62.5q94 0 175 -20.5t139.5 -64.5t91.5 -113t33 -163q0 -84 -17.5 -145.5t-53.5 -112.5t-90 -99.5t-128 -103.5q-51 -39 -111.5 -77.5t-112 -79.5t-85 -87t-33.5 -102h649v-225h-903v129q0 109 24.5 190.5t72.5 148.5t118 124t162 119 q43 29 88 56.5t82 61t60.5 75.5t23.5 97q0 72 -45 119t-144 47q-45 0 -93 -14t-93 -38.5t-83 -56.5t-67 -67z" />
<glyph unicode="3" horiz-adv-x="1136" d="M90 270l211 90q14 -33 42 -61.5t61.5 -50t72.5 -32.5t76 -11q39 0 79 6t72.5 21.5t53 42t20.5 65.5v139q0 37 -21.5 61.5t-55 41t-72.5 24.5t-76 12h-158v218h146q39 0 78.5 6t71.5 21.5t52.5 41t20.5 64.5v84q0 37 -17.5 63.5t-46 42t-65.5 22.5t-74 7q-76 0 -136 -35 t-91 -100l-193 100q25 68 71 117t106.5 80.5t130 47t143.5 15.5q92 0 171 -21.5t135 -65.5t88 -112.5t32 -160.5v-84q0 -49 -15.5 -88t-41 -68t-60.5 -50.5t-74 -35.5q39 -16 76 -38.5t65.5 -51.5t46 -68t17.5 -90v-139q0 -94 -37 -162.5t-100.5 -113t-147 -64.5t-176.5 -20 q-84 0 -159.5 16t-139 51t-110.5 90.5t-72 132.5z" />
<glyph unicode="4" horiz-adv-x="1165" d="M59 375v174l455 844h393v-793h219v-225h-219v-375h-254v375h-594zM340 600h313v571h-28z" />
<glyph unicode="5" horiz-adv-x="1120" d="M96 330l248 65q6 -33 25.5 -66.5t49.5 -61t68.5 -45t83.5 -17.5q80 0 140.5 35.5t60.5 119.5v127q0 43 -18.5 73t-49 50.5t-69.5 29.5t-80 9h-408l74 744h727v-226h-495l-27 -293h152q90 0 170.5 -23.5t142 -71.5t97.5 -120.5t36 -171.5v-127q0 -92 -39 -162.5 t-104.5 -118.5t-150.5 -73.5t-175 -25.5q-190 0 -308 92t-151 258z" />
<glyph unicode="6" horiz-adv-x="1148" d="M119 356v682q0 84 40 153t105.5 118t147.5 76.5t168 27.5q66 0 120 -8t102 -24.5t92 -42t89 -62.5l-127 -189q-72 57 -137.5 81t-138.5 24q-37 0 -74 -11.5t-66.5 -31t-48 -48t-18.5 -63.5v-247q66 63 127 98t157 35q82 0 153 -22.5t123 -69t81.5 -115t29.5 -160.5v-201 q0 -90 -38.5 -160.5t-104 -118.5t-148.5 -72.5t-173 -24.5t-174 24.5t-147.5 72.5t-101.5 118.5t-38 160.5zM373 356q0 -39 17.5 -67.5t47 -48t66.5 -28.5t76 -9t76.5 9t67.5 28.5t48.5 48t18.5 67.5v166q0 37 -18.5 66.5t-47.5 50t-66.5 31t-74.5 10.5q-39 0 -77 -10.5 t-67.5 -31t-48 -50t-18.5 -66.5v-166z" />
<glyph unicode="7" horiz-adv-x="976" d="M10 1167v226h928l-475 -1393h-273l406 1167h-586z" />
<glyph unicode="8" horiz-adv-x="1163" d="M119 340v158q0 37 18.5 75.5t49 73.5t67.5 62.5t74 40.5q-41 16 -75 44.5t-58.5 65.5t-38 79t-13.5 85v72q0 88 35 154.5t94.5 111.5t139.5 68.5t168 23.5t167.5 -22.5t139 -67.5t95.5 -112.5t36 -155.5v-107q0 -33 -17.5 -70.5t-45 -71.5t-59.5 -59.5t-62 -37.5 q35 -12 71.5 -38t67.5 -58.5t51 -72.5t20 -83v-158q0 -96 -36.5 -165t-100 -112t-147.5 -63t-180 -20t-180.5 20t-147 63t-98 112t-35.5 165zM373 348q0 -39 17.5 -66.5t46 -45t66.5 -24.5t77 -7q37 0 73.5 7t66.5 22.5t49 42t19 63.5v158q0 31 -18 56.5t-47 41.5 t-63.5 25.5t-65.5 9.5h-25q-35 -2 -69.5 -10.5t-63 -24.5t-46 -40t-17.5 -58v-150zM397 989q0 -33 15.5 -57.5t40 -41t55.5 -24.5t63 -10h21q37 2 67.5 8t54 21.5t37 40t13.5 63.5v107q0 35 -16.5 59.5t-42 40.5t-58.5 24.5t-67 8.5q-35 0 -68 -8.5t-58.5 -25.5t-41 -42 t-15.5 -57v-107z" />
<glyph unicode="9" horiz-adv-x="1148" d="M104 852v186q0 88 38 158t102.5 118t147.5 73.5t173 25.5t173 -25.5t148.5 -72.5t104.5 -117t39 -160v-682q0 -90 -39 -160.5t-104.5 -118.5t-148.5 -72.5t-173 -24.5q-111 0 -216 37.5t-183 115.5l123 184q27 -18 60.5 -38.5t69.5 -37t73.5 -26.5t70.5 -10q37 0 75 9 t68.5 27.5t49 47t18.5 67.5v226q-43 -55 -111.5 -82t-134.5 -27q-90 0 -167.5 25.5t-134 74t-89.5 119t-33 160.5zM358 852q0 -39 18.5 -67.5t49.5 -48t68.5 -29t76.5 -9.5t75 9.5t64.5 29t46 48t17.5 67.5v186q0 39 -18.5 67t-48 46t-66.5 27.5t-76 9.5t-75.5 -9.5 t-66.5 -27.5t-47.5 -47t-17.5 -66v-186z" />
<glyph unicode=":" horiz-adv-x="557" d="M170 0v295h254v-295h-254zM170 713v291h254v-291h-254z" />
<glyph unicode=";" horiz-adv-x="616" d="M152 -209q14 20 29.5 46t27.5 58.5t20.5 75.5t8.5 101v131h213v-56q0 -96 -20.5 -168.5t-50.5 -125t-63.5 -88t-58.5 -56.5zM221 702v302h236v-302h-236z" />
<glyph unicode="&#x3c;" horiz-adv-x="1214" d="M76 498l948 581l96 -155l-682 -414l701 -387l-97 -154z" />
<glyph unicode="=" horiz-adv-x="1069" d="M76 391v191h917v-191h-917zM76 815v189h917v-189h-917z" />
<glyph unicode="&#x3e;" horiz-adv-x="1214" d="M76 909l96 156l967 -528l-949 -582l-96 156l682 413z" />
<glyph unicode="?" horiz-adv-x="882" d="M39 1243q76 68 171.5 119t199.5 51q90 0 162.5 -17.5t125 -56.5t81 -99t28.5 -146v-76q0 -37 -14.5 -68.5t-36 -60.5t-49 -54.5t-54.5 -48.5q-35 -31 -60.5 -56t-40.5 -53t-22.5 -60.5t-7.5 -75.5v-72h-239v109q0 88 32.5 155.5t98.5 134.5q20 20 44.5 39t45 39.5t35 45 t14.5 55.5v38q0 53 -38 78t-95 25q-33 0 -70 -10.5t-70.5 -26.5t-65.5 -36.5t-56 -41.5zM250 0v276h287v-276h-287z" />
<glyph unicode="@" horiz-adv-x="1597" d="M76 547q0 12 1 43t3 70.5t7 87t13 92.5q23 125 83.5 235.5t151.5 192.5t213 129t267 47q154 0 282 -43t222 -120t146.5 -182.5t52.5 -232.5q0 -115 -19.5 -209t-62.5 -161.5t-111 -105.5t-164 -38q-29 0 -65.5 3t-71.5 15.5t-61.5 35t-36.5 61.5q-41 -53 -117 -96 t-162 -43q-129 0 -189.5 54t-60.5 132q0 25 4.5 63.5t13.5 89t24.5 110t37.5 120.5q23 59 66 106.5t96 80t112.5 49t114.5 16.5q117 0 192 -51t75 -137q0 -47 -9.5 -92.5t-19.5 -92.5q-8 -39 -14.5 -82t-6.5 -96q0 -39 21.5 -65.5t56.5 -26.5q53 0 88 26.5t56.5 74.5 t31 114.5t9.5 146.5q0 94 -39 172t-110 134.5t-168 88t-214 31.5q-113 0 -206 -35.5t-163.5 -98t-114.5 -147.5t-59 -184q-6 -43 -10 -88t-7 -82.5t-5 -66.5t-2 -41q0 -86 33.5 -161t102.5 -129t175.5 -86t251.5 -32q74 0 153.5 20.5t165.5 67.5l76 -137 q-96 -53 -196.5 -78.5t-198.5 -25.5q-184 0 -322.5 43t-230.5 117.5t-137 176t-45 220.5zM612 594q0 -102 90 -102q70 0 124.5 49t64.5 123q12 55 25.5 119.5t13.5 117.5q0 84 -96 84q-35 0 -68 -18.5t-58.5 -47t-44 -64.5t-24.5 -71q-6 -29 -11 -60.5t-8.5 -59t-5.5 -47 t-2 -23.5z" />
<glyph unicode="A" d="M39 0l461 1403h309l446 -1403h-266l-96 330h-485l-99 -330h-270zM471 535h358l-178 604z" />
<glyph unicode="B" horiz-adv-x="1155" d="M131 0v1393h518q170 0 269.5 -101.5t99.5 -271.5v-37q0 -37 -10.5 -75t-31 -73.5t-49 -64.5t-63.5 -45q98 -41 149.5 -114.5t51.5 -186.5v-70q0 -174 -99.5 -264t-271.5 -90h-563zM385 225h238q41 0 74.5 5.5t59 18.5t40 38.5t14.5 66.5v82q0 43 -18.5 76t-49 53.5 t-71.5 30.5t-84 10h-203v-381zM385 811h193q86 0 137 42t51 130v37q0 86 -51 116.5t-137 30.5h-193v-356z" />
<glyph unicode="C" horiz-adv-x="1144" d="M90 432v529q0 106 42 190t113.5 142.5t168 89t204.5 30.5q84 0 148.5 -11t117 -36t98.5 -61.5t95 -85.5l-139 -172q-66 61 -141 101t-179 40q-55 0 -105 -15.5t-88 -44t-59.5 -70.5t-21.5 -97v-529q0 -119 79 -173t198 -54q104 0 193 28.5t159 90.5l110 -187 q-104 -92 -215.5 -124.5t-246.5 -32.5q-113 0 -210.5 28.5t-168 85t-111.5 141t-41 197.5z" />
<glyph unicode="D" horiz-adv-x="1212" d="M133 0v1393h461q117 0 214 -27t166.5 -82t108.5 -140t39 -202v-491q0 -117 -43 -202t-117.5 -140.5t-175 -82t-215.5 -26.5h-438zM383 223h188q59 0 113.5 12.5t95.5 40t65.5 70.5t24.5 105v491q0 59 -20.5 102t-57 71t-88 40t-110.5 12h-211v-944z" />
<glyph unicode="E" horiz-adv-x="1034" d="M133 0v1393h782v-226h-528v-342h444v-215h-444v-385h571v-225h-825z" />
<glyph unicode="F" horiz-adv-x="960" d="M133 0v1393h780v-226h-528v-350h444v-215h-444v-602h-252z" />
<glyph unicode="G" horiz-adv-x="1257" d="M90 432v529q0 111 44 195.5t119 141t174 86t210 29.5q137 0 256 -41t217 -133l-115 -184q-76 59 -170 96t-188 37q-57 0 -110.5 -14.5t-93.5 -43t-64.5 -71.5t-24.5 -98v-529q0 -61 23.5 -104t63.5 -71t93.5 -40t114.5 -12q76 0 132 10t126 49v301h-266v205h522v-620 q-68 -39 -128 -71t-119.5 -54.5t-124 -33.5t-142.5 -11q-117 0 -217 27.5t-174 82.5t-116 140t-42 202z" />
<glyph unicode="H" horiz-adv-x="1406" d="M195 0v1393h254v-605h571v605h254v-1393h-254v563h-571v-563h-254z" />
<glyph unicode="I" horiz-adv-x="665" d="M205 0v1393h254v-1393h-254z" />
<glyph unicode="J" horiz-adv-x="1001" d="M33 305l243 70q6 -23 18.5 -52.5t34 -55t52.5 -44t70 -18.5q66 0 114.5 29.5t48.5 97.5v1061h254v-1061q0 -86 -31.5 -151.5t-86 -109.5t-128 -65.5t-159.5 -21.5q-170 0 -282.5 83t-147.5 238z" />
<glyph unicode="K" horiz-adv-x="1296" d="M133 0v1393h254v-568l520 568h334l-592 -637l635 -756h-346l-463 569l-88 -92v-477h-254z" />
<glyph unicode="L" horiz-adv-x="1028" d="M133 0v1393h254v-1168h621v-225h-875z" />
<glyph unicode="M" horiz-adv-x="1624" d="M133 0v1393h318l358 -721l369 721h313v-1393h-225v1108l-400 -850h-118l-390 850v-1108h-225z" />
<glyph unicode="N" horiz-adv-x="1409" d="M133 0v1393h332l586 -1129v1129h225v-1393h-352l-566 1100v-1100h-225z" />
<glyph unicode="O" horiz-adv-x="1310" d="M90 432v531q0 109 45 191.5t121 141t175 88t208 29.5h33q106 0 204.5 -30.5t174 -89t122 -141.5t46.5 -189v-531q0 -111 -44.5 -195.5t-119 -142t-174 -86t-209.5 -28.5h-31q-113 0 -213 28.5t-175 85t-119 141t-44 197.5zM344 432q0 -59 24.5 -102t65.5 -71t94.5 -41 t112.5 -13h31q57 0 110.5 13t93 42t64.5 72t25 100v529q0 55 -26 97t-67 70.5t-93 44t-107 15.5h-33q-55 0 -108.5 -14.5t-95.5 -43t-66.5 -70.5t-24.5 -97v-531z" />
<glyph unicode="P" horiz-adv-x="1093" d="M131 0v1393h465q92 0 170 -23.5t134 -71t88 -117t32 -161.5v-158q0 -86 -34 -151.5t-91 -109.5t-133 -66.5t-162 -22.5h-215v-512h-254zM385 737h211q66 0 118 29t52 96v158q0 72 -49 109.5t-121 37.5h-211v-430z" />
<glyph unicode="Q" horiz-adv-x="1310" d="M90 432v531q0 109 45 191.5t121 141t175 88t208 29.5h33q106 0 204.5 -30.5t174 -89t122 -141.5t46.5 -189v-531q0 -104 -39 -185t-107 -138l10 -11q47 -59 104.5 -81.5t129.5 -22.5v-156q-72 0 -128 4t-103.5 18.5t-87.5 44t-78 81.5l-23 26q-53 -16 -109.5 -24 t-115.5 -8h-31q-113 0 -213 28.5t-175 85t-119 141t-44 197.5zM344 432q0 -59 24.5 -102t65.5 -71t94.5 -41t112.5 -13h31h36.5t34.5 4l-122 160l149 127l152 -193q43 53 43 129v529q0 55 -26 97t-67 70.5t-93 44t-107 15.5h-33q-55 0 -108.5 -14.5t-95.5 -43t-66.5 -70.5 t-24.5 -97v-531z" />
<glyph unicode="R" horiz-adv-x="1193" d="M131 0v1393h533q193 0 308 -89.5t115 -281.5v-107q0 -129 -69.5 -208.5t-192.5 -114.5l328 -592h-283l-309 565h-176v-565h-254zM385 791h279q66 0 118 30.5t52 96.5v102q0 74 -49.5 110.5t-122.5 36.5h-277v-376z" />
<glyph unicode="S" horiz-adv-x="1189" d="M78 242l166 157q25 -37 66.5 -70.5t91 -60t102.5 -43t100 -16.5q49 0 98.5 9t88 29.5t63.5 55.5t25 86q0 53 -34 88t-85 58.5t-110.5 39t-110.5 29.5q-96 31 -173 66t-130.5 83t-81 113.5t-27.5 155.5q0 102 40 177t108.5 122t159.5 69.5t196 22.5q147 0 260 -49 t199 -119l-142 -188q-25 23 -61.5 45t-79.5 41.5t-89 32t-87 12.5q-47 0 -92 -8.5t-80 -27.5t-56.5 -51t-21.5 -79t27.5 -79t70.5 -55.5t96.5 -39t104.5 -27.5q106 -27 190 -61.5t142.5 -83.5t89.5 -119t31 -168q0 -104 -41 -181t-111 -127t-163 -73.5t-195 -23.5 q-82 0 -162 17t-150.5 50t-131 81t-101.5 110z" />
<glyph unicode="T" horiz-adv-x="1118" d="M18 1167v226h1082v-228h-416v-1165h-254v1165z" />
<glyph unicode="U" horiz-adv-x="1372" d="M133 446v947h254v-947q0 -61 23.5 -107t63.5 -76t95.5 -44t116.5 -14t115.5 14t95.5 45t64.5 76t23.5 106v947h254v-947q0 -117 -43 -203.5t-117.5 -145t-175 -88t-215.5 -29.5q-117 0 -218 29.5t-176 88t-118 145.5t-43 203z" />
<glyph unicode="V" horiz-adv-x="1298" d="M33 1393h262l350 -1094l359 1094h262l-467 -1393h-310z" />
<glyph unicode="W" horiz-adv-x="1798" d="M33 1393h262l225 -1033l256 1033h258l264 -1039l189 1039h264l-301 -1393h-285l-262 989l-254 -989h-287z" />
<glyph unicode="X" horiz-adv-x="1370" d="M66 0l479 692l-453 701h299l305 -494l320 494h299l-469 -701l467 -692h-301l-318 485l-327 -485h-301z" />
<glyph unicode="Y" horiz-adv-x="1316" d="M33 1393h291l323 -621l330 621h293l-496 -844v-549h-254v551z" />
<glyph unicode="Z" horiz-adv-x="1171" d="M76 0v123l657 1044h-649v226h1012v-117l-660 -1051h649v-225h-1009z" />
<glyph unicode="[" horiz-adv-x="569" d="M133 -322v1715h361v-176h-144v-1367h135v-172h-352z" />
<glyph unicode="\" horiz-adv-x="899" d="M47 1393h227l578 -1393h-225z" />
<glyph unicode="]" horiz-adv-x="565" d="M78 -143h135v1345h-135v191h354v-1715h-354v179z" />
<glyph unicode="^" horiz-adv-x="907" d="M76 815l383 598l372 -594l-159 -82l-213 344l-217 -344z" />
<glyph unicode="_" horiz-adv-x="1157" d="M76 -74h1005v-190h-1005v190z" />
<glyph unicode="`" horiz-adv-x="571" d="M102 1399l164 112l203 -319l-125 -88z" />
<glyph unicode="a" horiz-adv-x="1015" d="M76 322v208l581 101v26q0 86 -44 119t-130 33q-31 0 -70.5 -8t-81.5 -21.5t-79 -30t-62 -30.5l-77 166q39 27 88 52.5t103 44.5t108.5 30.5t103.5 11.5q186 0 290.5 -90t104.5 -277v-657h-200l-43 131q-47 -88 -120 -116.5t-169 -28.5q-154 0 -228.5 91t-74.5 245z M330 334q0 -61 29.5 -96t91.5 -35q31 0 65.5 7t64 22.5t49 39t19.5 56.5v135l-319 -55v-74z" />
<glyph unicode="b" horiz-adv-x="1095" d="M119 0v1475h254v-619q14 37 46 67.5t72.5 52t86 34t86.5 12.5q176 0 266 -99.5t90 -275.5v-289q0 -180 -94.5 -279t-272.5 -99q-92 0 -171 35.5t-126 113.5l-34 -129h-203zM373 354q0 -43 16.5 -72.5t46 -46t68.5 -23.5t82 -7q72 0 126 40t54 113v289q0 84 -52 114 t-136 30q-37 0 -74 -10.5t-66.5 -31t-47 -48t-17.5 -64.5v-283z" />
<glyph unicode="c" horiz-adv-x="931" d="M76 356v291q0 90 32.5 160t89 118t134.5 73.5t170 25.5q70 0 122 -10t97 -28.5t84 -47.5t80 -66l-127 -178q-55 47 -119.5 76t-136.5 29q-76 0 -124 -39t-48 -113v-291q0 -82 53 -116.5t135 -34.5q145 0 266 96l97 -188q-80 -78 -174.5 -105.5t-202.5 -27.5 q-94 0 -173 23.5t-136.5 69.5t-88 117.5t-30.5 165.5z" />
<glyph unicode="d" horiz-adv-x="1075" d="M78 358v293q0 176 90 274.5t270 98.5q82 0 153 -29.5t124 -93.5v574h252v-1475h-195l-55 111q-47 -63 -126 -95t-153 -32q-180 0 -270 97t-90 277zM332 358q0 -88 53 -118.5t141 -30.5q74 0 130.5 36t56.5 113v285q0 84 -56.5 122t-140.5 38q-74 0 -129 -40t-55 -112 v-293z" />
<glyph unicode="e" horiz-adv-x="1036" d="M76 375v274q0 92 34.5 162t94 117t141.5 71.5t174 24.5q84 0 160 -25.5t133 -72.5t91 -116t34 -153v-170l-608 -88v-24q0 -41 21.5 -73t55 -53.5t76.5 -32.5t84 -11q39 0 81 8t82 22.5t75 35t59 42.5l111 -180q-92 -86 -196.5 -119.5t-227.5 -33.5q-100 0 -187.5 23.5 t-152 72.5t-100 123.5t-35.5 175.5zM330 567l346 49v56q0 74 -44 102.5t-118 28.5q-37 0 -69.5 -10.5t-58.5 -30t-41 -48t-15 -65.5v-82z" />
<glyph unicode="f" horiz-adv-x="702" d="M10 834v170h191v231q0 70 28.5 120t77.5 84t113.5 50t134.5 16q47 0 104.5 -12t104.5 -29l-53 -190q-29 8 -68 14t-63 6q-68 0 -97.5 -20.5t-29.5 -85.5v-184h247v-170h-247v-834h-252v834h-191z" />
<glyph unicode="g" horiz-adv-x="1087" d="M55 -174q0 76 36 119t95 86q-29 23 -47 42t-27.5 40.5t-12.5 49t-3 64.5q0 20 12.5 44t31 45.5t40 40t41.5 28.5q-117 98 -117 258v29q0 92 32 157.5t89.5 108.5t135 63.5t169.5 20.5q61 0 109.5 -13.5t105.5 -41.5l248 100l68 -168l-162 -53q23 -43 39 -86t16 -88v-49 q0 -90 -32.5 -153.5t-90 -104.5t-134 -60.5t-167.5 -19.5q-16 0 -40.5 2t-50 5t-49 9t-36.5 12q-16 -10 -27.5 -22t-11.5 -41t7.5 -54.5t48.5 -35.5l628 -160v-174q0 -80 -30.5 -136.5t-82.5 -92t-122 -52t-150 -16.5h-184q-76 0 -144.5 18.5t-119.5 55.5t-81 93t-30 130z M295 -152q0 -43 15.5 -67.5t42 -36.5t64.5 -14t83 -2h114q55 0 89 25.5t42 80.5v47l-387 88q-35 -16 -49 -48t-14 -73zM342 608q0 -35 16.5 -60.5t43 -43t60.5 -25.5t68 -8q35 0 69 8t60.5 24.5t42 42t15.5 62.5v64q0 35 -16.5 60.5t-43 42t-59.5 25.5t-68 9t-68.5 -9 t-60 -25.5t-43 -42t-16.5 -60.5v-64z" />
<glyph unicode="h" horiz-adv-x="1112" d="M117 0v1475h254v-635q18 39 53 72.5t78 58t90 39t92 14.5q90 0 152.5 -24.5t100.5 -71.5t54.5 -118t16.5 -161v-649h-254v649q0 72 -45 111t-117 39q-41 0 -81 -15.5t-70.5 -43t-50 -63.5t-19.5 -77v-600h-254z" />
<glyph unicode="i" horiz-adv-x="532" d="M145 0v1004h254v-1004h-254zM145 1135v258h254v-258h-254z" />
<glyph unicode="j" horiz-adv-x="561" d="M-123 -270q41 25 92 53.5t97.5 69.5t78 102t31.5 154v895h254v-914q0 -123 -41 -208t-107.5 -145.5t-151.5 -101.5t-175 -75zM176 1133v260h254v-260h-254z" />
<glyph unicode="k" horiz-adv-x="1009" d="M117 0v1454h254v-801h90l219 351h289l-291 -451l332 -553h-305l-250 442h-84v-442h-254z" />
<glyph unicode="l" horiz-adv-x="516" d="M133 0v1454h254v-1454h-254z" />
<glyph unicode="m" horiz-adv-x="1646" d="M119 0v1004h209l26 -152q18 37 50 67.5t72 54t83 37t86 13.5q111 0 185.5 -36t97.5 -146q16 33 47 65.5t69.5 59t81.5 43t82 16.5q174 0 254 -74.5t80 -249.5v-702h-254v629q0 90 -28.5 131t-118.5 41q-41 0 -76 -19.5t-59.5 -51.5t-38 -70.5t-13.5 -79.5v-580h-254v627 q0 86 -28.5 133t-114.5 47q-39 0 -72.5 -19.5t-58.5 -50t-39 -69.5t-14 -78v-590h-254z" />
<glyph unicode="n" horiz-adv-x="1114" d="M119 0v1004h219l35 -146q57 78 126 122t167 44q182 0 262 -96.5t80 -278.5v-649h-254v606q0 84 -39 139.5t-123 55.5q-41 0 -81 -16.5t-70.5 -44t-49 -63.5t-18.5 -77v-600h-254z" />
<glyph unicode="o" horiz-adv-x="1040" d="M76 358v289q0 90 32.5 160t93 118t143.5 73.5t181 25.5q211 0 326 -98.5t115 -278.5v-289q0 -90 -36 -160.5t-96.5 -118.5t-140.5 -73.5t-170 -25.5q-92 0 -173 24.5t-142.5 72.5t-97 118.5t-35.5 162.5zM330 358q0 -78 58 -115.5t136 -37.5q76 0 132.5 38t56.5 115v289 q0 74 -56.5 113t-130.5 39q-39 0 -73.5 -9.5t-62.5 -29t-44 -48t-16 -65.5v-289z" />
<glyph unicode="p" horiz-adv-x="1087" d="M117 -453v1457h182l53 -109q61 68 123 98.5t156 30.5q174 0 278.5 -100.5t104.5 -274.5v-280q0 -88 -28 -160t-78 -123t-120.5 -78.5t-156.5 -27.5q-90 0 -150.5 22.5t-109.5 93.5v-549h-254zM371 371q0 -82 57 -125t137 -43q35 0 70 9t62.5 29.5t45 51.5t17.5 76v270 q0 47 -15.5 78t-42 49t-62.5 26.5t-75 8.5q-37 0 -72.5 -10.5t-62.5 -30t-43 -47t-16 -64.5v-278z" />
<glyph unicode="q" horiz-adv-x="1046" d="M76 356v293q0 176 92 275.5t270 99.5q92 0 162 -30.5t135 -98.5l53 109h183v-1457h-254v562q-41 -76 -119 -102.5t-162 -26.5q-178 0 -269 99t-91 277zM330 356q0 -74 57 -113.5t131 -39.5q39 0 74 9t61.5 27.5t43 47t16.5 69.5v293q0 37 -16.5 65.5t-44 48t-62.5 30 t-72 10.5q-80 0 -134 -42t-54 -120v-285z" />
<glyph unicode="r" horiz-adv-x="708" d="M125 0v1004h176l53 -150q14 35 39 65.5t57.5 54t69.5 37t74 13.5q72 0 111 -16l-52 -224q-16 6 -45.5 10.5t-58.5 4.5q-31 0 -61.5 -9.5t-54 -30t-39 -49t-15.5 -69.5v-641h-254z" />
<glyph unicode="s" horiz-adv-x="942" d="M61 164l129 174q25 -25 60 -50.5t75 -46t79.5 -33.5t76.5 -13q31 0 58.5 2t49 11t34 27.5t12.5 49.5q0 39 -24.5 59.5t-60.5 31.5t-79 18t-80 16q-68 16 -122 39.5t-92 58.5t-57.5 85t-19.5 120q0 82 31 140t85 96t127 55.5t155 17.5q98 0 193 -44t169 -114l-125 -170 q-45 47 -118.5 79t-139.5 32q-57 0 -89 -19.5t-32 -72.5q0 -33 23.5 -51.5t58.5 -27.5t75 -15.5t73 -14.5q135 -33 215 -98.5t80 -186.5q0 -90 -32 -153.5t-88 -103t-132 -58t-164 -18.5q-117 0 -221.5 47t-182.5 131z" />
<glyph unicode="t" horiz-adv-x="823" d="M25 829v175h186v294h252v-294h244v-175h-244v-555q0 -29 16 -51t45 -22q23 0 62 6t76 16l90 23l53 -178q-18 -8 -56 -22.5t-82 -28t-86 -22.5t-69 -9q-141 0 -222 57t-81 199v587h-184z" />
<glyph unicode="u" horiz-adv-x="1099" d="M117 356v648h254v-648q0 -78 53 -114.5t131 -36.5q74 0 130 38t56 113v648h254v-648q0 -92 -34.5 -161.5t-94 -117.5t-140.5 -72.5t-171 -24.5q-92 0 -172 24.5t-139.5 72.5t-93 117.5t-33.5 161.5z" />
<glyph unicode="v" horiz-adv-x="1093" d="M33 1004h270l248 -760l242 760h268l-393 -1004h-240z" />
<glyph unicode="w" horiz-adv-x="1423" d="M33 1004h264l127 -785l156 785h264l170 -777l114 777h263l-244 -1004h-273l-157 678l-152 -678h-282z" />
<glyph unicode="x" horiz-adv-x="1019" d="M35 0l334 520l-314 484h264l193 -308l190 308h271l-320 -484l332 -520h-266l-207 340l-209 -340h-268z" />
<glyph unicode="y" horiz-adv-x="993" d="M31 1004h266l205 -736l196 736h265l-379 -1137q-29 -86 -79 -144.5t-112.5 -93.5t-135.5 -49t-146 -16l-33 190q29 0 69.5 9.5t80.5 25.5t73 41t47 59l29 91z" />
<glyph unicode="z" horiz-adv-x="817" d="M68 0v150l381 655h-373v199h645v-125l-379 -670h406v-209h-680z" />
<glyph unicode="{" horiz-adv-x="616" d="M119 600l71 96l-63 361q0 82 20.5 150.5t61.5 130t103.5 118.5t144.5 115l67 -125q-55 -37 -91 -85t-57.5 -98.5t-29.5 -102.5t-8 -99l41 -367l-53 -86l59 -73l-47 -429q4 -115 48 -217t155 -176l-76 -137q-100 70 -164.5 137.5t-103.5 133t-54.5 133t-15.5 141.5l59 405 z" />
<glyph unicode="|" horiz-adv-x="448" d="M133 -301v1694h182v-1694h-182z" />
<glyph unicode="}" horiz-adv-x="655" d="M119 -285q68 39 112.5 87t72.5 99.5t40 104.5t12 100l-53 433l66 69l-60 82l47 371q0 47 -14 100t-41 105.5t-66.5 98.5t-95.5 79l74 117q180 -109 267 -238t87 -266l-69 -361l82 -96l-82 -74l69 -405q0 -147 -92 -285.5t-272 -249.5z" />
<glyph unicode="~" horiz-adv-x="821" d="M104 1294q41 72 94.5 110t118.5 38q33 0 68 -12.5t68.5 -25.5t65.5 -25.5t56 -12.5q49 0 72 23.5t35 44.5l104 -80q-8 -14 -22 -41t-37 -54.5t-54.5 -48t-72.5 -20.5q-37 0 -73 12t-71.5 27.5t-73.5 28t-79 12.5q-37 0 -62.5 -26.5t-39.5 -43.5z" />
<glyph unicode="&#xa1;" horiz-adv-x="530" d="M147 -418l35 944h217l37 -944h-289zM166 758v246h244v-246h-244z" />
<glyph unicode="&#xa2;" horiz-adv-x="985" d="M76 362v273q0 66 28.5 133.5t77.5 120.5t113.5 87t134.5 34h68l41 268l204 -35l-43 -235q53 -14 108.5 -49t100.5 -95l-139 -166q-53 57 -115.5 83t-119.5 26q-39 0 -76 -14.5t-65.5 -38t-45 -54t-16.5 -65.5v-273q0 -37 15 -67.5t43 -54t65 -37t80 -13.5 q61 0 126.5 18.5t112.5 72.5l121 -185q-45 -43 -84 -68.5t-76 -40t-73.5 -19.5t-79.5 -5h-13.5t-21.5 2l-45 -239l-197 32l43 228q-68 10 -119 50t-84.5 94t-51 115.5t-17.5 116.5z" />
<glyph unicode="&#xa3;" horiz-adv-x="1089" d="M76 592v184h239l-12 182q0 115 46 200t129 141.5t198 85t252 30.5v-225q-82 0 -149.5 -12.5t-117 -40t-76 -70.5t-26.5 -104l16 -187h283v-184h-262q4 -35 6 -67.5t4 -57.5q0 -49 -2 -82t-10 -57.5t-24.5 -48t-45.5 -54.5h490v-225h-936v172q86 8 140 30.5t83 56.5t39 77 t10 92l-14 164h-260z" />
<glyph unicode="&#xa5;" horiz-adv-x="1384" d="M33 1393h291l364 -545l371 545h293l-484 -693h367v-139h-420v-129h418v-131h-418v-301h-254v301h-391v131h391v129h-393v139h342z" />
<glyph unicode="&#xa6;" horiz-adv-x="356" d="M76 -209v686h205v-686h-205zM76 750v684h205v-684h-205z" />
<glyph unicode="&#xa7;" horiz-adv-x="1157" d="M86 621q0 33 9 70.5t26.5 72.5t42 64.5t55.5 45.5q-20 39 -27.5 86.5t-7.5 94.5q0 88 34 154.5t92.5 111.5t136 68.5t165.5 23.5q131 0 237.5 -40t178.5 -113l-110 -164q-57 51 -140.5 81.5t-159.5 30.5q-78 0 -128 -40t-50 -117q0 -49 30 -84t75 -62.5t98 -48.5t100 -41 q76 -33 138.5 -71.5t108.5 -90t71.5 -119t25.5 -155.5q0 -78 -33.5 -150.5t-97.5 -113.5q20 -35 29.5 -74t9.5 -76q0 -100 -33.5 -176t-92 -127t-138.5 -76.5t-172 -25.5q-131 0 -245.5 50t-184.5 142l139 154q18 -27 50 -52.5t71 -45t80 -32t74 -12.5q35 0 70.5 5.5 t64.5 24t46 54t17 95.5q0 49 -39.5 93t-98 82t-124 68.5t-114.5 51.5q-76 33 -129.5 67.5t-86 79.5t-48 102.5t-15.5 133.5zM338 627q0 -43 19.5 -75t50 -55.5t70.5 -41t79 -33.5q66 -31 122 -57.5t116 -67.5q14 6 33.5 35t19.5 47q0 43 -20.5 74.5t-55.5 57.5t-79 47.5 t-91 39.5q-66 27 -113 52.5t-104 64.5q-27 -8 -37 -36t-10 -52z" />
<glyph unicode="&#xa8;" horiz-adv-x="833" d="M102 1214v220h220v-220h-220zM514 1214v220h217v-220h-217z" />
<glyph unicode="&#xa9;" horiz-adv-x="1603" d="M76 719q0 154 55 287t152.5 231t230.5 153.5t289 55.5q154 0 286 -56.5t230 -153.5t153.5 -230.5t55.5 -286.5q0 -154 -55.5 -287t-153.5 -230.5t-230.5 -152.5t-285.5 -55q-156 0 -289 55t-230.5 152.5t-152.5 229.5t-55 288zM229 717q0 -123 44 -227.5t121 -181.5 t182.5 -121t228.5 -44q121 0 226.5 44t182 121t120.5 181.5t44 227.5t-44 227.5t-120.5 182t-181 121.5t-227.5 44t-228.5 -44t-182.5 -121.5t-121 -182t-44 -227.5zM438 655v97q0 72 31 131t83 102t119.5 66.5t141.5 23.5q55 0 96 -7t76 -24.5t67.5 -45t69.5 -68.5 l-112 -137q-35 41 -89.5 65.5t-107.5 24.5q-61 0 -108.5 -36t-47.5 -95v-97q0 -66 52.5 -99.5t117.5 -33.5q55 0 110.5 22.5t96.5 61.5l103 -141q-27 -31 -66 -56.5t-83 -43t-88 -26.5t-85 -9q-76 0 -144.5 22.5t-119.5 64.5t-82 102.5t-31 135.5z" />
<glyph unicode="&#xaa;" horiz-adv-x="712" d="M76 954v131l373 54v20q0 55 -31 76.5t-86 21.5q-16 0 -40 -4t-48.5 -10t-46 -14t-33.5 -15l-58 132q51 27 114 45t124 18q129 0 209 -58.5t80 -187.5v-409h-121l-53 84q-27 -41 -78 -64.5t-94 -23.5q-100 0 -155.5 52t-55.5 152zM260 965q0 -29 29.5 -44.5t58.5 -15.5 t61.5 16.5t32.5 47.5v57l-182 -25v-36z" />
<glyph unicode="&#xab;" horiz-adv-x="956" d="M76 358l325 371l86 -86l-186 -283l184 -266l-84 -94zM469 358l326 371l86 -86l-187 -283l185 -266l-84 -94z" />
<glyph unicode="&#xac;" horiz-adv-x="923" d="M76 498v190h772v-369h-186v179h-586z" />
<glyph unicode="&#xad;" horiz-adv-x="690" d="M76 496v225h538v-225h-538z" />
<glyph unicode="&#xae;" horiz-adv-x="1603" d="M76 719q0 160 53 293t149.5 229t230.5 150.5t294 54.5q158 0 291 -54.5t229 -150.5t150.5 -230t54.5 -292q0 -160 -54.5 -293t-150.5 -229.5t-229 -149.5t-291 -53q-160 0 -294 53t-230.5 148.5t-149.5 229.5t-53 294zM229 717q0 -127 42 -232.5t119 -181.5t182.5 -118 t232.5 -42q125 0 230.5 42t181 119t118.5 182.5t43 230.5t-43 230.5t-118.5 182t-181 119.5t-230.5 43q-127 0 -232.5 -43t-182.5 -119.5t-119 -182t-42 -230.5zM512 338v756h352q104 0 172 -62.5t68 -167.5v-39q0 -74 -39 -121t-104 -71l188 -295h-197l-178 270h-86v-270 h-176zM688 739h152q35 0 62.5 16.5t27.5 53.5v49q0 35 -28 59.5t-62 24.5h-152v-203z" />
<glyph unicode="&#xaf;" horiz-adv-x="890" d="M102 1309v125h686v-125h-686z" />
<glyph unicode="&#xb0;" horiz-adv-x="772" d="M76 1098v55q0 61 24.5 109.5t66.5 81t98.5 50t119.5 19.5q61 -2 117.5 -19.5t99.5 -50t68.5 -81t25.5 -109.5v-55q0 -63 -25.5 -110.5t-68.5 -80.5t-99.5 -49t-117.5 -16q-63 0 -119.5 16t-98.5 49t-66.5 80t-24.5 111zM272 1077q0 -41 36 -58.5t77 -17.5q39 0 78 17.5 t39 58.5v101q0 41 -38 60t-79 19t-77 -20t-36 -59v-101z" />
<glyph unicode="&#xb1;" horiz-adv-x="1128" d="M76 0v188h977v-188h-977zM113 621v206h325v310h234v-310h344v-206h-344v-326h-234v326h-325z" />
<glyph unicode="&#xb2;" horiz-adv-x="882" d="M150 735v105q0 102 57 161.5t172 106.5q20 8 46 17.5t47.5 19.5t36.5 24.5t15 30.5q0 35 -29.5 40t-64.5 5q-66 0 -106.5 -22.5t-77.5 -51.5l-90 134q35 35 106 70.5t180 35.5q127 0 203 -46t76 -163q0 -80 -40 -117.5t-106 -66.5q-31 -14 -63.5 -25.5t-60 -24t-46 -27.5 t-24.5 -40h338v-166h-569z" />
<glyph unicode="&#xb3;" horiz-adv-x="739" d="M70 805l123 94q29 -45 80 -68.5t106 -23.5q20 0 42.5 3t41 10t31 18.5t12.5 27.5v23q0 20 -11.5 34.5t-28.5 23.5t-38.5 14.5t-42.5 5.5h-137v145h131q16 0 36.5 3t38 10.5t30 19.5t12.5 31v18q0 35 -35 48t-70 13q-59 0 -110.5 -18t-81.5 -49l-99 108q23 29 55.5 51.5 t71.5 37t80 21.5t80 7q66 0 121 -7t96 -29.5t64.5 -61.5t23.5 -105v-18q0 -27 -12 -52.5t-31.5 -45t-43 -35t-48.5 -21.5q49 -16 95 -57t46 -92v-31q0 -63 -24.5 -104t-67.5 -64.5t-99 -32t-120 -8.5q-98 0 -184 35t-133 121z" />
<glyph unicode="&#xb4;" horiz-adv-x="575" d="M102 1174l211 333l160 -114l-242 -293z" />
<glyph unicode="&#xb6;" horiz-adv-x="1122" d="M76 1040v43q0 68 23.5 124.5t65.5 97.5t100.5 63.5t125.5 24.5h598v-1393h-162v1255h-163v-1255h-177v752h-96q-137 0 -226 75.5t-89 212.5z" />
<glyph unicode="&#xb7;" horiz-adv-x="421" d="M104 408v276h271v-276h-271z" />
<glyph unicode="&#xb8;" horiz-adv-x="555" d="M102 -442q8 4 31 14t46.5 25.5t42 35t18.5 43.5q0 47 -30 76t-106 45l39 203h172l-24 -121q18 -6 46 -19.5t53.5 -37t44 -58t18.5 -86.5q0 -86 -76 -147t-199 -102z" />
<glyph unicode="&#xb9;" horiz-adv-x="559" d="M47 1178v215h408v-688h-207v473h-201z" />
<glyph unicode="&#xba;" horiz-adv-x="772" d="M76 1028v125q0 59 25.5 107.5t68.5 81t98.5 50t116.5 17.5q59 0 115.5 -17.5t99.5 -50t69.5 -81t26.5 -107.5v-125q0 -61 -26.5 -109.5t-69.5 -80t-99.5 -49t-115.5 -17.5q-61 0 -116.5 17.5t-98.5 50t-68.5 80t-25.5 108.5zM281 1051q0 -59 24.5 -86t83.5 -27 q35 0 71 15.5t36 50.5v163q0 35 -36 52.5t-71 17.5q-39 0 -73.5 -19.5t-34.5 -54.5v-112z" />
<glyph unicode="&#xbb;" horiz-adv-x="946" d="M57 643l86 86l326 -371l-326 -358l-84 94l185 266zM451 643l86 86l325 -371l-325 -358l-84 94l184 266z" />
<glyph unicode="&#xbc;" horiz-adv-x="1423" d="M47 1178v215h408v-688h-207v473h-201zM69 0l987 1393h205l-973 -1393h-219zM662 160v105l324 469h264v-420h139v-154h-139v-160h-191v160h-397zM883 314h176v266h-18z" />
<glyph unicode="&#xbd;" horiz-adv-x="1327" d="M26 0l987 1393h205l-973 -1393h-219zM47 1178v215h408v-688h-207v473h-201zM740 4v105q0 102 57 161.5t172 106.5q20 8 46 17.5t47.5 19.5t36.5 24.5t15 30.5q0 35 -29.5 40t-64.5 5q-66 0 -106.5 -22.5t-77.5 -51.5l-90 134q35 35 106 70.5t180 35.5q127 0 203 -46 t76 -163q0 -80 -40 -117.5t-106 -66.5q-31 -14 -63.5 -25.5t-60 -24t-46 -27.5t-24.5 -40h338v-166h-569z" />
<glyph unicode="&#xbe;" horiz-adv-x="1574" d="M31 805l123 94q29 -45 80 -68.5t106 -23.5q20 0 42.5 3t41 10t31 18.5t12.5 27.5v23q0 20 -11.5 34.5t-28.5 23.5t-38.5 14.5t-42.5 5.5h-137v145h131q16 0 36.5 3t38 10.5t30 19.5t12.5 31v18q0 35 -35 48t-70 13q-59 0 -110.5 -18t-81.5 -49l-99 108q23 29 55.5 51.5 t71.5 37t80 21.5t80 7q66 0 121 -7t96 -29.5t64.5 -61.5t23.5 -105v-18q0 -27 -12 -52.5t-31.5 -45t-43 -35t-48.5 -21.5q49 -16 95 -57t46 -92v-31q0 -63 -24.5 -104t-67.5 -64.5t-99 -32t-120 -8.5q-98 0 -184 35t-133 121zM239 0l987 1393h205l-973 -1393h-219zM832 157 v105l324 469h264v-420h139v-154h-139v-160h-191v160h-397zM1053 311h176v266h-18z" />
<glyph unicode="&#xbf;" horiz-adv-x="860" d="M70 -33q0 72 34.5 119t92.5 96q70 61 113.5 124t43.5 157v74h240v-115q0 -109 -42 -186.5t-118 -149.5q-39 -37 -74.5 -69.5t-35.5 -84.5v-43q0 -47 42 -79.5t91 -32.5q57 0 120.5 27.5t141.5 80.5l98 -180q-78 -68 -163 -105.5t-187 -37.5q-92 0 -165 17.5t-125 56 t-79.5 101t-27.5 152.5v78zM328 729v275h286v-275h-286z" />
<glyph unicode="&#xc0;" d="M39 0l461 1403h309l446 -1403h-266l-96 330h-485l-99 -330h-270zM405 1825l164 112l203 -319l-125 -88zM471 535h358l-178 604z" />
<glyph unicode="&#xc1;" d="M39 0l461 1403h309l446 -1403h-266l-96 330h-485l-99 -330h-270zM471 535h358l-178 604zM518 1604l211 333l160 -114l-242 -293z" />
<glyph unicode="&#xc2;" d="M39 0l461 1403h309l446 -1403h-266l-96 330h-485l-99 -330h-270zM381 1638l267 193l266 -199l-92 -113l-174 109l-174 -109zM471 535h358l-178 604z" />
<glyph unicode="&#xc3;" d="M39 0l461 1403h309l446 -1403h-266l-96 330h-485l-99 -330h-270zM305 1642q41 72 94.5 110t118.5 38q33 0 68 -12.5t68.5 -25.5t65.5 -25.5t56 -12.5q49 0 72 23.5t35 44.5l104 -80q-8 -14 -22 -41t-37 -54.5t-54.5 -48t-72.5 -20.5q-37 0 -73 12t-71.5 27.5t-73.5 28 t-79 12.5q-37 0 -62.5 -26.5t-39.5 -43.5zM471 535h358l-178 604z" />
<glyph unicode="&#xc4;" d="M39 0l461 1403h309l446 -1403h-266l-96 330h-485l-99 -330h-270zM331 1560v220h220v-220h-220zM471 535h358l-178 604zM743 1560v220h217v-220h-217z" />
<glyph unicode="&#xc5;" d="M39 0l461 1403h309l446 -1403h-266l-96 330h-485l-99 -330h-270zM471 535h358l-178 604zM487 1691q0 68 46 113t112 45t114 -45t48 -113q0 -66 -48 -112.5t-114 -46.5q-33 0 -61.5 12t-50 33.5t-34 51.5t-12.5 62zM571 1691q0 -33 21.5 -54t52.5 -21q33 0 55.5 21.5 t22.5 53.5q0 33 -22.5 56.5t-55.5 23.5q-31 0 -52.5 -23.5t-21.5 -56.5z" />
<glyph unicode="&#xc6;" horiz-adv-x="1900" d="M33 0l837 1393h926v-226h-539v-342h455v-204h-452v-396h579v-225h-833v326h-484l-196 -326h-293zM629 530h377v656z" />
<glyph unicode="&#xc7;" horiz-adv-x="1095" d="M90 432v529q0 106 42 190t113.5 142.5t168 89t204.5 30.5q84 0 148.5 -11t117 -36t98.5 -61.5t95 -85.5l-139 -172q-66 61 -141 101t-179 40q-55 0 -105 -15.5t-88 -44t-59.5 -70.5t-21.5 -97v-529q0 -119 79 -173t198 -54q104 0 193 28.5t159 90.5l110 -187 q-104 -92 -215.5 -124.5t-246.5 -32.5q-113 0 -210.5 28.5t-168 85t-111.5 141t-41 197.5zM483 -442q8 4 31 14t46.5 25.5t42 35t18.5 43.5q0 47 -30 76t-106 45l39 203h172l-24 -121q18 -6 46 -19.5t53.5 -37t44 -58t18.5 -86.5q0 -86 -76 -147t-199 -102z" />
<glyph unicode="&#xc8;" horiz-adv-x="1034" d="M133 0v1393h782v-226h-528v-342h444v-215h-444v-385h571v-225h-825zM303 1809l164 112l203 -319l-125 -88z" />
<glyph unicode="&#xc9;" horiz-adv-x="1034" d="M133 0v1393h782v-226h-528v-342h444v-215h-444v-385h571v-225h-825zM415 1604l211 333l160 -114l-242 -293z" />
<glyph unicode="&#xca;" horiz-adv-x="1034" d="M133 0v1393h782v-226h-528v-342h444v-215h-444v-385h571v-225h-825zM278 1638l267 193l266 -199l-92 -113l-174 109l-174 -109z" />
<glyph unicode="&#xcb;" horiz-adv-x="1034" d="M133 0v1393h782v-226h-528v-342h444v-215h-444v-385h571v-225h-825zM231 1560v220h220v-220h-220zM643 1560v220h217v-220h-217z" />
<glyph unicode="&#xcc;" horiz-adv-x="665" d="M94 1829l164 112l203 -319l-125 -88zM205 0v1393h254v-1393h-254z" />
<glyph unicode="&#xcd;" horiz-adv-x="665" d="M208 1604l211 333l160 -114l-242 -293zM211 0v1393h254v-1393h-254z" />
<glyph unicode="&#xce;" horiz-adv-x="665" d="M86 1640l267 193l266 -199l-92 -113l-174 109l-174 -109zM221 0v1393h254v-1393h-254z" />
<glyph unicode="&#xcf;" horiz-adv-x="665" d="M28 1556v220h220v-220h-220zM213 0v1393h254v-1393h-254zM440 1556v220h217v-220h-217z" />
<glyph unicode="&#xd0;" horiz-adv-x="1337" d="M37 627v186h233v621h441q102 0 201.5 -29t177 -84t125 -135t47.5 -182v-553q0 -115 -44 -200t-119 -140.5t-175.5 -83t-214.5 -27.5h-439v627h-233zM522 223h187q59 0 113.5 12.5t95 40t65.5 70.5t25 105v553q0 49 -28 87.5t-71 64.5t-96 39t-102 13h-187v-395h289v-186 h-291v-404z" />
<glyph unicode="&#xd1;" horiz-adv-x="1409" d="M133 0v1393h332l586 -1129v1129h225v-1393h-352l-566 1100v-1100h-225zM362 1622q41 72 94.5 110t118.5 38q33 0 68 -12.5t68.5 -25.5t65.5 -25.5t56 -12.5q49 0 72 23.5t35 44.5l104 -80q-8 -14 -22 -41t-37 -54.5t-54.5 -48t-72.5 -20.5q-37 0 -73 12t-71.5 27.5 t-73.5 28t-79 12.5q-37 0 -62.5 -26.5t-39.5 -43.5z" />
<glyph unicode="&#xd2;" horiz-adv-x="1310" d="M90 432v531q0 109 45 191.5t121 141t175 88t208 29.5h33q106 0 204.5 -30.5t174 -89t122 -141.5t46.5 -189v-531q0 -111 -44.5 -195.5t-119 -142t-174 -86t-209.5 -28.5h-31q-113 0 -213 28.5t-175 85t-119 141t-44 197.5zM344 432q0 -59 24.5 -102t65.5 -71t94.5 -41 t112.5 -13h31q57 0 110.5 13t93 42t64.5 72t25 100v529q0 55 -26 97t-67 70.5t-93 44t-107 15.5h-33q-55 0 -108.5 -14.5t-95.5 -43t-66.5 -70.5t-24.5 -97v-531zM413 1829l164 112l203 -319l-125 -88z" />
<glyph unicode="&#xd3;" horiz-adv-x="1310" d="M90 432v531q0 109 45 191.5t121 141t175 88t208 29.5h33q106 0 204.5 -30.5t174 -89t122 -141.5t46.5 -189v-531q0 -111 -44.5 -195.5t-119 -142t-174 -86t-209.5 -28.5h-31q-113 0 -213 28.5t-175 85t-119 141t-44 197.5zM344 432q0 -59 24.5 -102t65.5 -71t94.5 -41 t112.5 -13h31q57 0 110.5 13t93 42t64.5 72t25 100v529q0 55 -26 97t-67 70.5t-93 44t-107 15.5h-33q-55 0 -108.5 -14.5t-95.5 -43t-66.5 -70.5t-24.5 -97v-531zM526 1604l211 333l160 -114l-242 -293z" />
<glyph unicode="&#xd4;" horiz-adv-x="1310" d="M90 432v531q0 109 45 191.5t121 141t175 88t208 29.5h33q106 0 204.5 -30.5t174 -89t122 -141.5t46.5 -189v-531q0 -111 -44.5 -195.5t-119 -142t-174 -86t-209.5 -28.5h-31q-113 0 -213 28.5t-175 85t-119 141t-44 197.5zM344 432q0 -59 24.5 -102t65.5 -71t94.5 -41 t112.5 -13h31q57 0 110.5 13t93 42t64.5 72t25 100v529q0 55 -26 97t-67 70.5t-93 44t-107 15.5h-33q-55 0 -108.5 -14.5t-95.5 -43t-66.5 -70.5t-24.5 -97v-531zM389 1659l267 193l266 -199l-92 -113l-174 109l-174 -109z" />
<glyph unicode="&#xd5;" horiz-adv-x="1310" d="M90 432v531q0 109 45 191.5t121 141t175 88t208 29.5h33q106 0 204.5 -30.5t174 -89t122 -141.5t46.5 -189v-531q0 -111 -44.5 -195.5t-119 -142t-174 -86t-209.5 -28.5h-31q-113 0 -213 28.5t-175 85t-119 141t-44 197.5zM313 1642q41 72 94.5 110t118.5 38 q33 0 68 -12.5t68.5 -25.5t65.5 -25.5t56 -12.5q49 0 72 23.5t35 44.5l104 -80q-8 -14 -22 -41t-37 -54.5t-54.5 -48t-72.5 -20.5q-37 0 -73 12t-71.5 27.5t-73.5 28t-79 12.5q-37 0 -62.5 -26.5t-39.5 -43.5zM344 432q0 -59 24.5 -102t65.5 -71t94.5 -41t112.5 -13h31 q57 0 110.5 13t93 42t64.5 72t25 100v529q0 55 -26 97t-67 70.5t-93 44t-107 15.5h-33q-55 0 -108.5 -14.5t-95.5 -43t-66.5 -70.5t-24.5 -97v-531z" />
<glyph unicode="&#xd6;" horiz-adv-x="1310" d="M90 432v531q0 109 45 191.5t121 141t175 88t208 29.5h33q106 0 204.5 -30.5t174 -89t122 -141.5t46.5 -189v-531q0 -111 -44.5 -195.5t-119 -142t-174 -86t-209.5 -28.5h-31q-113 0 -213 28.5t-175 85t-119 141t-44 197.5zM340 1560v220h220v-220h-220zM344 432 q0 -59 24.5 -102t65.5 -71t94.5 -41t112.5 -13h31q57 0 110.5 13t93 42t64.5 72t25 100v529q0 55 -26 97t-67 70.5t-93 44t-107 15.5h-33q-55 0 -108.5 -14.5t-95.5 -43t-66.5 -70.5t-24.5 -97v-531zM752 1560v220h217v-220h-217z" />
<glyph unicode="&#xd7;" horiz-adv-x="1200" d="M76 0l413 508l-399 496h215l295 -359l295 359h215l-397 -496l411 -508h-229l-295 369l-295 -369h-229z" />
<glyph unicode="&#xd8;" horiz-adv-x="1236" d="M90 432v531q0 109 45 191.5t121 141t175 88t208 29.5h33q121 0 231 -41l94 191h177l-130 -265q78 -59 126.5 -143t48.5 -192v-531q0 -111 -44.5 -195.5t-119 -142t-174 -86t-209.5 -28.5h-31q-61 0 -117.5 8t-109.5 24l-76 -157h-186l112 229q-80 57 -127 143t-47 205z M344 432q0 -72 35 -119l422 852q-63 23 -129 23h-33q-55 0 -108.5 -14.5t-95.5 -43t-66.5 -70.5t-24.5 -97v-531zM516 221q29 -10 60.5 -13t64.5 -3h31q57 0 110.5 13t93 42t64.5 72t25 100v529q0 59 -33 108z" />
<glyph unicode="&#xd9;" horiz-adv-x="1372" d="M133 446v947h254v-947q0 -61 23.5 -107t63.5 -76t95.5 -44t116.5 -14t115.5 14t95.5 45t64.5 76t23.5 106v947h254v-947q0 -117 -43 -203.5t-117.5 -145t-175 -88t-215.5 -29.5q-117 0 -218 29.5t-176 88t-118 145.5t-43 203zM444 1768l164 112l203 -319l-125 -88z" />
<glyph unicode="&#xda;" horiz-adv-x="1372" d="M133 446v947h254v-947q0 -61 23.5 -107t63.5 -76t95.5 -44t116.5 -14t115.5 14t95.5 45t64.5 76t23.5 106v947h254v-947q0 -117 -43 -203.5t-117.5 -145t-175 -88t-215.5 -29.5q-117 0 -218 29.5t-176 88t-118 145.5t-43 203zM557 1543l211 333l160 -114l-242 -293z" />
<glyph unicode="&#xdb;" horiz-adv-x="1372" d="M133 446v947h254v-947q0 -61 23.5 -107t63.5 -76t95.5 -44t116.5 -14t115.5 14t95.5 45t64.5 76t23.5 106v947h254v-947q0 -117 -43 -203.5t-117.5 -145t-175 -88t-215.5 -29.5q-117 0 -218 29.5t-176 88t-118 145.5t-43 203zM419 1644l267 193l266 -199l-92 -113 l-174 109l-174 -109z" />
<glyph unicode="&#xdc;" horiz-adv-x="1372" d="M133 446v947h254v-947q0 -61 23.5 -107t63.5 -76t95.5 -44t116.5 -14t115.5 14t95.5 45t64.5 76t23.5 106v947h254v-947q0 -117 -43 -203.5t-117.5 -145t-175 -88t-215.5 -29.5q-117 0 -218 29.5t-176 88t-118 145.5t-43 203zM370 1562v220h220v-220h-220zM782 1562v220 h217v-220h-217z" />
<glyph unicode="&#xdd;" horiz-adv-x="1316" d="M33 1393h291l323 -621l330 621h293l-496 -844v-549h-254v551zM522 1545l211 333l160 -114l-242 -293z" />
<glyph unicode="&#xde;" horiz-adv-x="1038" d="M76 0v1393h254v-265h223q186 0 298 -103t112 -290v-37q0 -190 -111 -281t-299 -91h-223v-326h-254zM330 549h209q66 0 118 39t52 110v37q0 72 -50.5 122t-121.5 50h-207v-358z" />
<glyph unicode="&#xe0;" horiz-adv-x="1015" d="M76 322v208l581 101v26q0 86 -44 119t-130 33q-31 0 -70.5 -8t-81.5 -21.5t-79 -30t-62 -30.5l-77 166q39 27 88 52.5t103 44.5t108.5 30.5t103.5 11.5q186 0 290.5 -90t104.5 -277v-657h-200l-43 131q-47 -88 -120 -116.5t-169 -28.5q-154 0 -228.5 91t-74.5 245z M252 1422l164 112l203 -319l-125 -88zM330 334q0 -61 29.5 -96t91.5 -35q31 0 65.5 7t64 22.5t49 39t19.5 56.5v135l-319 -55v-74z" />
<glyph unicode="&#xe1;" horiz-adv-x="1015" d="M76 322v208l581 101v26q0 86 -44 119t-130 33q-31 0 -70.5 -8t-81.5 -21.5t-79 -30t-62 -30.5l-77 166q39 27 88 52.5t103 44.5t108.5 30.5t103.5 11.5q186 0 290.5 -90t104.5 -277v-657h-200l-43 131q-47 -88 -120 -116.5t-169 -28.5q-154 0 -228.5 91t-74.5 245z M330 334q0 -61 29.5 -96t91.5 -35q31 0 65.5 7t64 22.5t49 39t19.5 56.5v135l-319 -55v-74zM364 1194l211 333l160 -114l-242 -293z" />
<glyph unicode="&#xe2;" horiz-adv-x="1015" d="M76 322v208l581 101v26q0 86 -44 119t-130 33q-31 0 -70.5 -8t-81.5 -21.5t-79 -30t-62 -30.5l-77 166q39 27 88 52.5t103 44.5t108.5 30.5t103.5 11.5q186 0 290.5 -90t104.5 -277v-657h-200l-43 131q-47 -88 -120 -116.5t-169 -28.5q-154 0 -228.5 91t-74.5 245z M227 1274l267 193l266 -199l-92 -113l-174 109l-174 -109zM330 334q0 -61 29.5 -96t91.5 -35q31 0 65.5 7t64 22.5t49 39t19.5 56.5v135l-319 -55v-74z" />
<glyph unicode="&#xe3;" horiz-adv-x="1015" d="M76 322v208l581 101v26q0 86 -44 119t-130 33q-31 0 -70.5 -8t-81.5 -21.5t-79 -30t-62 -30.5l-77 166q39 27 88 52.5t103 44.5t108.5 30.5t103.5 11.5q186 0 290.5 -90t104.5 -277v-657h-200l-43 131q-47 -88 -120 -116.5t-169 -28.5q-154 0 -228.5 91t-74.5 245z M151 1294q41 72 94.5 110t118.5 38q33 0 68 -12.5t68.5 -25.5t65.5 -25.5t56 -12.5q49 0 72 23.5t35 44.5l104 -80q-8 -14 -22 -41t-37 -54.5t-54.5 -48t-72.5 -20.5q-37 0 -73 12t-71.5 27.5t-73.5 28t-79 12.5q-37 0 -62.5 -26.5t-39.5 -43.5zM330 334q0 -61 29.5 -96 t91.5 -35q31 0 65.5 7t64 22.5t49 39t19.5 56.5v135l-319 -55v-74z" />
<glyph unicode="&#xe4;" horiz-adv-x="1015" d="M76 322v208l581 101v26q0 86 -44 119t-130 33q-31 0 -70.5 -8t-81.5 -21.5t-79 -30t-62 -30.5l-77 166q39 27 88 52.5t103 44.5t108.5 30.5t103.5 11.5q186 0 290.5 -90t104.5 -277v-657h-200l-43 131q-47 -88 -120 -116.5t-169 -28.5q-154 0 -228.5 91t-74.5 245z M178 1196v220h220v-220h-220zM330 334q0 -61 29.5 -96t91.5 -35q31 0 65.5 7t64 22.5t49 39t19.5 56.5v135l-319 -55v-74zM590 1196v220h217v-220h-217z" />
<glyph unicode="&#xe5;" horiz-adv-x="1015" d="M76 322v208l581 101v26q0 86 -44 119t-130 33q-31 0 -70.5 -8t-81.5 -21.5t-79 -30t-62 -30.5l-77 166q39 27 88 52.5t103 44.5t108.5 30.5t103.5 11.5q186 0 290.5 -90t104.5 -277v-657h-200l-43 131q-47 -88 -120 -116.5t-169 -28.5q-154 0 -228.5 91t-74.5 245z M330 334q0 -61 29.5 -96t91.5 -35q31 0 65.5 7t64 22.5t49 39t19.5 56.5v135l-319 -55v-74zM334 1300q0 68 46 113t112 45t114 -45t48 -113q0 -66 -48 -112.5t-114 -46.5q-33 0 -61.5 12t-50 33.5t-34 51.5t-12.5 62zM418 1300q0 -33 21.5 -54t52.5 -21q33 0 55.5 21.5 t22.5 53.5q0 33 -22.5 56.5t-55.5 23.5q-31 0 -52.5 -23.5t-21.5 -56.5z" />
<glyph unicode="&#xe6;" horiz-adv-x="1622" d="M76 322v167l581 101v67q0 86 -44 119t-130 33q-31 0 -70.5 -8t-81.5 -21.5t-79 -30t-62 -30.5l-77 166q39 27 85 52.5t96 44.5t101 30.5t101 11.5q111 0 181.5 -35t106.5 -84q53 57 131 88t177 31q84 0 159.5 -26.5t133 -76t91 -119t33.5 -153.5v-141l-608 -88v-45 q0 -41 21.5 -74t55.5 -56.5t77 -35.5t84 -12q39 0 82 11t82.5 28.5t74.5 39t58 41.5l110 -163q-186 -170 -424 -170q-143 0 -246.5 45t-156.5 143q-47 -96 -131 -141t-189 -45q-154 0 -238.5 91t-84.5 245zM330 334q0 -61 29.5 -96t91.5 -35q31 0 67.5 7t67 22.5t52 39 t21.5 56.5v94l-329 -55v-33zM901 588l346 49v27q0 74 -44 106.5t-118 32.5q-37 0 -69.5 -10.5t-58 -30t-41 -48t-15.5 -65.5v-61z" />
<glyph unicode="&#xe7;" horiz-adv-x="950" d="M76 356v291q0 90 32.5 160t89 118t134.5 73.5t170 25.5q70 0 122 -10t97 -28.5t84 -47.5t80 -66l-127 -178q-55 47 -119.5 76t-136.5 29q-76 0 -124 -39t-48 -113v-291q0 -82 53 -116.5t135 -34.5q145 0 266 96l97 -188q-80 -78 -174.5 -105.5t-202.5 -27.5 q-94 0 -173 23.5t-136.5 69.5t-88 117.5t-30.5 165.5zM372 -413q8 4 31 14t46.5 25.5t42 35t18.5 43.5q0 47 -30 76t-106 45l39 203h172l-24 -121q18 -6 46 -19.5t53.5 -37t44 -58t18.5 -86.5q0 -86 -76 -147t-199 -102z" />
<glyph unicode="&#xe8;" horiz-adv-x="1036" d="M76 375v274q0 92 34.5 162t94 117t141.5 71.5t174 24.5q84 0 160 -25.5t133 -72.5t91 -116t34 -153v-170l-608 -88v-24q0 -41 21.5 -73t55 -53.5t76.5 -32.5t84 -11q39 0 81 8t82 22.5t75 35t59 42.5l111 -180q-92 -86 -196.5 -119.5t-227.5 -33.5q-100 0 -187.5 23.5 t-152 72.5t-100 123.5t-35.5 175.5zM282 1399l164 112l203 -319l-125 -88zM330 567l346 49v56q0 74 -44 102.5t-118 28.5q-37 0 -69.5 -10.5t-58.5 -30t-41 -48t-15 -65.5v-82z" />
<glyph unicode="&#xe9;" horiz-adv-x="1036" d="M76 375v274q0 92 34.5 162t94 117t141.5 71.5t174 24.5q84 0 160 -25.5t133 -72.5t91 -116t34 -153v-170l-608 -88v-24q0 -41 21.5 -73t55 -53.5t76.5 -32.5t84 -11q39 0 81 8t82 22.5t75 35t59 42.5l111 -180q-92 -86 -196.5 -119.5t-227.5 -33.5q-100 0 -187.5 23.5 t-152 72.5t-100 123.5t-35.5 175.5zM330 567l346 49v56q0 74 -44 102.5t-118 28.5q-37 0 -69.5 -10.5t-58.5 -30t-41 -48t-15 -65.5v-82zM395 1194l211 333l160 -114l-242 -293z" />
<glyph unicode="&#xea;" horiz-adv-x="1036" d="M76 375v274q0 92 34.5 162t94 117t141.5 71.5t174 24.5q84 0 160 -25.5t133 -72.5t91 -116t34 -153v-170l-608 -88v-24q0 -41 21.5 -73t55 -53.5t76.5 -32.5t84 -11q39 0 81 8t82 22.5t75 35t59 42.5l111 -180q-92 -86 -196.5 -119.5t-227.5 -33.5q-100 0 -187.5 23.5 t-152 72.5t-100 123.5t-35.5 175.5zM258 1272l267 193l266 -199l-92 -113l-174 109l-174 -109zM330 567l346 49v56q0 74 -44 102.5t-118 28.5q-37 0 -69.5 -10.5t-58.5 -30t-41 -48t-15 -65.5v-82z" />
<glyph unicode="&#xeb;" horiz-adv-x="1036" d="M76 375v274q0 92 34.5 162t94 117t141.5 71.5t174 24.5q84 0 160 -25.5t133 -72.5t91 -116t34 -153v-170l-608 -88v-24q0 -41 21.5 -73t55 -53.5t76.5 -32.5t84 -11q39 0 81 8t82 22.5t75 35t59 42.5l111 -180q-92 -86 -196.5 -119.5t-227.5 -33.5q-100 0 -187.5 23.5 t-152 72.5t-100 123.5t-35.5 175.5zM211 1179v220h220v-220h-220zM330 567l346 49v56q0 74 -44 102.5t-118 28.5q-37 0 -69.5 -10.5t-58.5 -30t-41 -48t-15 -65.5v-82zM623 1179v220h217v-220h-217z" />
<glyph unicode="&#xec;" horiz-adv-x="532" d="M41 1419l164 112l203 -319l-125 -88zM153 0v1004h254v-1004h-254z" />
<glyph unicode="&#xed;" horiz-adv-x="532" d="M151 1194l211 333l160 -114l-242 -293zM153 0v1004h254v-1004h-254z" />
<glyph unicode="&#xee;" horiz-adv-x="532" d="M16 1290l267 193l266 -199l-92 -113l-174 109l-174 -109zM156 0v1004h254v-1004h-254z" />
<glyph unicode="&#xef;" horiz-adv-x="532" d="M-43 1196v220h220v-220h-220zM141 0v1004h254v-1004h-254zM369 1196v220h217v-220h-217z" />
<glyph unicode="&#xf0;" horiz-adv-x="1040" d="M76 358v205q0 80 22.5 148.5t65.5 119t106.5 79t143.5 28.5q29 0 64.5 -5t71.5 -14.5t68.5 -23.5t55.5 -33q-27 84 -83 154.5t-120 130.5l-276 -123l-74 141l198 90q-45 23 -75.5 36.5t-77.5 29.5l65 219q98 -29 183.5 -67.5t169.5 -98.5l266 121l76 -145l-209 -93 q111 -119 179.5 -258t68.5 -299v-342q0 -88 -35 -158.5t-95.5 -119.5t-142.5 -74.5t-176 -25.5q-90 0 -170 25.5t-140.5 74.5t-95 119.5t-34.5 158.5zM330 358q0 -37 16 -64.5t42 -48t59.5 -30.5t70.5 -10q35 0 70 10t62.5 29.5t44 47t16.5 64.5v193q0 82 -58.5 123 t-140.5 41q-72 0 -127 -40t-55 -110v-205z" />
<glyph unicode="&#xf1;" horiz-adv-x="1114" d="M119 0v1004h219l35 -146q57 78 126 122t167 44q182 0 262 -96.5t80 -278.5v-649h-254v606q0 84 -39 139.5t-123 55.5q-41 0 -81 -16.5t-70.5 -44t-49 -63.5t-18.5 -77v-600h-254zM223 1294q41 72 94.5 110t118.5 38q33 0 68 -12.5t68.5 -25.5t65.5 -25.5t56 -12.5 q49 0 72 23.5t35 44.5l104 -80q-8 -14 -22 -41t-37 -54.5t-54.5 -48t-72.5 -20.5q-37 0 -73 12t-71.5 27.5t-73.5 28t-79 12.5q-37 0 -62.5 -26.5t-39.5 -43.5z" />
<glyph unicode="&#xf2;" horiz-adv-x="1040" d="M76 358v289q0 90 32.5 160t93 118t143.5 73.5t181 25.5q211 0 326 -98.5t115 -278.5v-289q0 -90 -36 -160.5t-96.5 -118.5t-140.5 -73.5t-170 -25.5q-92 0 -173 24.5t-142.5 72.5t-97 118.5t-35.5 162.5zM278 1399l164 112l203 -319l-125 -88zM330 358q0 -78 58 -115.5 t136 -37.5q76 0 132.5 38t56.5 115v289q0 74 -56.5 113t-130.5 39q-39 0 -73.5 -9.5t-62.5 -29t-44 -48t-16 -65.5v-289z" />
<glyph unicode="&#xf3;" horiz-adv-x="1040" d="M76 358v289q0 90 32.5 160t93 118t143.5 73.5t181 25.5q211 0 326 -98.5t115 -278.5v-289q0 -90 -36 -160.5t-96.5 -118.5t-140.5 -73.5t-170 -25.5q-92 0 -173 24.5t-142.5 72.5t-97 118.5t-35.5 162.5zM330 358q0 -78 58 -115.5t136 -37.5q76 0 132.5 38t56.5 115v289 q0 74 -56.5 113t-130.5 39q-39 0 -73.5 -9.5t-62.5 -29t-44 -48t-16 -65.5v-289zM391 1194l211 333l160 -114l-242 -293z" />
<glyph unicode="&#xf4;" horiz-adv-x="1040" d="M76 358v289q0 90 32.5 160t93 118t143.5 73.5t181 25.5q211 0 326 -98.5t115 -278.5v-289q0 -90 -36 -160.5t-96.5 -118.5t-140.5 -73.5t-170 -25.5q-92 0 -173 24.5t-142.5 72.5t-97 118.5t-35.5 162.5zM254 1272l267 193l266 -199l-92 -113l-174 109l-174 -109z M330 358q0 -78 58 -115.5t136 -37.5q76 0 132.5 38t56.5 115v289q0 74 -56.5 113t-130.5 39q-39 0 -73.5 -9.5t-62.5 -29t-44 -48t-16 -65.5v-289z" />
<glyph unicode="&#xf5;" horiz-adv-x="1040" d="M76 358v289q0 90 32.5 160t93 118t143.5 73.5t181 25.5q211 0 326 -98.5t115 -278.5v-289q0 -90 -36 -160.5t-96.5 -118.5t-140.5 -73.5t-170 -25.5q-92 0 -173 24.5t-142.5 72.5t-97 118.5t-35.5 162.5zM178 1255q41 72 94.5 110t118.5 38q33 0 68 -12.5t68.5 -25.5 t65.5 -25.5t56 -12.5q49 0 72 23.5t35 44.5l104 -80q-8 -14 -22 -41t-37 -54.5t-54.5 -48t-72.5 -20.5q-37 0 -73 12t-71.5 27.5t-73.5 28t-79 12.5q-37 0 -62.5 -26.5t-39.5 -43.5zM330 358q0 -78 58 -115.5t136 -37.5q76 0 132.5 38t56.5 115v289q0 74 -56.5 113 t-130.5 39q-39 0 -73.5 -9.5t-62.5 -29t-44 -48t-16 -65.5v-289z" />
<glyph unicode="&#xf6;" horiz-adv-x="1040" d="M76 358v289q0 90 32.5 160t93 118t143.5 73.5t181 25.5q211 0 326 -98.5t115 -278.5v-289q0 -90 -36 -160.5t-96.5 -118.5t-140.5 -73.5t-170 -25.5q-92 0 -173 24.5t-142.5 72.5t-97 118.5t-35.5 162.5zM204 1175v220h220v-220h-220zM330 358q0 -78 58 -115.5t136 -37.5 q76 0 132.5 38t56.5 115v289q0 74 -56.5 113t-130.5 39q-39 0 -73.5 -9.5t-62.5 -29t-44 -48t-16 -65.5v-289zM616 1175v220h217v-220h-217z" />
<glyph unicode="&#xf7;" horiz-adv-x="1368" d="M76 465v188h1216v-188h-1216zM555 94v266h279v-266h-279zM555 750v266h279v-266h-279z" />
<glyph unicode="&#xf8;" horiz-adv-x="1007" d="M76 358v289q0 90 32.5 160t93 118t143.5 73.5t181 25.5q119 0 211 -35l64 115h141l-96 -176q59 -49 90 -119t31 -162v-289q0 -90 -36 -160.5t-96.5 -118.5t-140.5 -73.5t-170 -25.5q-94 0 -178 24l-78 -145h-151l112 204q-72 47 -112.5 122t-40.5 173zM330 358 q0 -45 18 -75l275 495q-47 20 -97 21q-39 0 -73.5 -9.5t-62.5 -29t-44 -48t-16 -65.5v-289zM459 211q31 -6 65 -6q76 0 132.5 38t56.5 115v289q0 8 -1 14.5t-3 14.5z" />
<glyph unicode="&#xf9;" horiz-adv-x="1099" d="M117 356v648h254v-648q0 -78 53 -114.5t131 -36.5q74 0 130 38t56 113v648h254v-648q0 -92 -34.5 -161.5t-94 -117.5t-140.5 -72.5t-171 -24.5q-92 0 -172 24.5t-139.5 72.5t-93 117.5t-33.5 161.5zM315 1399l164 112l203 -319l-125 -88z" />
<glyph unicode="&#xfa;" horiz-adv-x="1099" d="M117 356v648h254v-648q0 -78 53 -114.5t131 -36.5q74 0 130 38t56 113v648h254v-648q0 -92 -34.5 -161.5t-94 -117.5t-140.5 -72.5t-171 -24.5q-92 0 -172 24.5t-139.5 72.5t-93 117.5t-33.5 161.5zM428 1174l211 333l160 -114l-242 -293z" />
<glyph unicode="&#xfb;" horiz-adv-x="1099" d="M117 356v648h254v-648q0 -78 53 -114.5t131 -36.5q74 0 130 38t56 113v648h254v-648q0 -92 -34.5 -161.5t-94 -117.5t-140.5 -72.5t-171 -24.5q-92 0 -172 24.5t-139.5 72.5t-93 117.5t-33.5 161.5zM290 1290l267 193l266 -199l-92 -113l-174 109l-174 -109z" />
<glyph unicode="&#xfc;" horiz-adv-x="1099" d="M117 356v648h254v-648q0 -78 53 -114.5t131 -36.5q74 0 130 38t56 113v648h254v-648q0 -92 -34.5 -161.5t-94 -117.5t-140.5 -72.5t-171 -24.5q-92 0 -172 24.5t-139.5 72.5t-93 117.5t-33.5 161.5zM241 1214v220h220v-220h-220zM653 1214v220h217v-220h-217z" />
<glyph unicode="&#xfd;" horiz-adv-x="993" d="M31 1004h266l205 -736l196 736h265l-379 -1137q-29 -86 -79 -144.5t-112.5 -93.5t-135.5 -49t-146 -16l-33 190q29 0 69.5 9.5t80.5 25.5t73 41t47 59l29 91zM366 1174l211 333l160 -114l-242 -293z" />
<glyph unicode="&#xfe;" horiz-adv-x="1097" d="M119 -494v2028h254v-627q20 29 52 50.5t67.5 36t74.5 22.5t76 8q176 0 277.5 -92t101.5 -268v-312q0 -180 -103.5 -278.5t-279.5 -98.5q-80 0 -153.5 32t-112.5 99v-600h-254zM387 336q0 -37 16.5 -63.5t43 -42t61.5 -22.5t72 -7t70.5 7t59 23.5t42 42t16.5 62.5v328 q0 35 -16.5 60.5t-43 41.5t-60.5 24.5t-68 8.5q-76 0 -134.5 -32t-58.5 -103v-328z" />
<glyph unicode="&#xff;" horiz-adv-x="993" d="M31 1004h266l205 -736l196 736h265l-379 -1137q-29 -86 -79 -144.5t-112.5 -93.5t-135.5 -49t-146 -16l-33 190q29 0 69.5 9.5t80.5 25.5t73 41t47 59l29 91zM182 1214v220h220v-220h-220zM594 1214v220h217v-220h-217z" />
<glyph unicode="&#x152;" horiz-adv-x="1828" d="M90 455v487q0 88 44 169t119 143.5t174 100.5t208 38h1075v-226h-528v-346h444v-215h-442v-381h569v-225h-1116q-113 0 -213 36t-174 97.5t-117 144t-43 177.5zM344 455q0 -45 22.5 -87t62.5 -74t93 -50.5t115 -18.5h289v942h-291q-57 0 -110.5 -19.5t-93.5 -52 t-63.5 -72.5t-23.5 -81v-487z" />
<glyph unicode="&#x153;" horiz-adv-x="1681" d="M76 362v295q0 176 101.5 269.5t279.5 93.5q43 0 93 -5t98 -21.5t90 -45t67 -76.5q61 86 141 120t191 34q92 0 172 -22.5t138 -68.5t92 -115.5t34 -162.5v-157l-608 -84v-60q0 -39 22.5 -68.5t57 -48t77.5 -27.5t82 -9q33 0 70 8t73.5 22.5t70.5 35t59 42.5l129 -153 q-88 -78 -197 -122t-221 -44q-119 0 -220.5 33.5t-166.5 130.5q-25 -49 -63 -82t-84 -52.5t-95 -27.5t-96 -8q-178 0 -282.5 99t-104.5 277zM330 362q0 -74 57 -113.5t131 -39.5q70 0 127 37t66 108v312q-8 68 -66.5 103.5t-128.5 35.5q-74 0 -130 -38t-56 -110v-295z M965 594l352 47l-2 31q0 35 -14.5 60.5t-37 42t-51 23.5t-57.5 7q-72 -4 -127 -40t-63 -103v-68z" />
<glyph unicode="&#x178;" horiz-adv-x="1316" d="M33 1393h291l323 -621l330 621h293l-496 -844v-549h-254v551zM335 1521v220h220v-220h-220zM747 1521v220h217v-220h-217z" />
<glyph unicode="&#x2c6;" horiz-adv-x="737" d="M102 1290l267 193l266 -199l-92 -113l-174 109l-174 -109z" />
<glyph unicode="&#x2dc;" horiz-adv-x="886" d="M102 1294q41 72 94.5 110t118.5 38q33 0 68 -12.5t68.5 -25.5t65.5 -25.5t56 -12.5q49 0 72 23.5t35 44.5l104 -80q-8 -14 -22 -41t-37 -54.5t-54.5 -48t-72.5 -20.5q-37 0 -73 12t-71.5 27.5t-73.5 28t-79 12.5q-37 0 -62.5 -26.5t-39.5 -43.5z" />
<glyph unicode="&#x2000;" horiz-adv-x="970" />
<glyph unicode="&#x2001;" horiz-adv-x="1941" />
<glyph unicode="&#x2002;" horiz-adv-x="970" />
<glyph unicode="&#x2003;" horiz-adv-x="1941" />
<glyph unicode="&#x2004;" horiz-adv-x="647" />
<glyph unicode="&#x2005;" horiz-adv-x="485" />
<glyph unicode="&#x2006;" horiz-adv-x="323" />
<glyph unicode="&#x2007;" horiz-adv-x="323" />
<glyph unicode="&#x2008;" horiz-adv-x="242" />
<glyph unicode="&#x2009;" horiz-adv-x="388" />
<glyph unicode="&#x200a;" horiz-adv-x="107" />
<glyph unicode="&#x2010;" horiz-adv-x="690" d="M76 496v225h538v-225h-538z" />
<glyph unicode="&#x2011;" horiz-adv-x="690" d="M76 496v225h538v-225h-538z" />
<glyph unicode="&#x2012;" horiz-adv-x="690" d="M76 496v225h538v-225h-538z" />
<glyph unicode="&#x2013;" horiz-adv-x="1208" d="M0 516v189h1200v-189h-1200z" />
<glyph unicode="&#x2014;" horiz-adv-x="1634" d="M2 516v189h1628v-189h-1628z" />
<glyph unicode="&#x2018;" horiz-adv-x="331" d="M61 922v55q0 90 13.5 160.5t35 126t48 93.5t51.5 58l123 -76q-23 -43 -40.5 -117.5t-17.5 -168.5v-131h-213z" />
<glyph unicode="&#x2019;" horiz-adv-x="352" d="M-6 962q14 20 29.5 46t27.5 58.5t20.5 75.5t8.5 101v131h213v-56q0 -96 -20.5 -168.5t-50 -125t-63.5 -88t-59 -56.5z" />
<glyph unicode="&#x201a;" horiz-adv-x="481" d="M121 -209q14 20 29.5 46t27.5 58.5t20.5 75.5t8.5 101v131h213v-56q0 -96 -20.5 -168.5t-50 -125t-63.5 -88t-59 -56.5z" />
<glyph unicode="&#x201c;" horiz-adv-x="686" d="M61 922v55q0 90 13.5 160.5t35 126t48 93.5t51.5 58l123 -76q-23 -43 -40.5 -117.5t-17.5 -168.5v-131h-213zM395 922v55q0 90 13.5 160.5t35 126t48 93.5t51.5 58l123 -76q-23 -43 -40.5 -117.5t-17.5 -168.5v-131h-213z" />
<glyph unicode="&#x201d;" horiz-adv-x="681" d="M-6 983q14 20 29.5 46t27.5 58.5t20.5 75.5t8.5 101v131h213v-56q0 -96 -20.5 -168.5t-50 -125t-63.5 -88t-59 -56.5zM322 983q14 20 29.5 46t27.5 58.5t20.5 75.5t8.5 101v131h213v-56q0 -96 -20.5 -168.5t-50 -125t-63.5 -88t-59 -56.5z" />
<glyph unicode="&#x201e;" horiz-adv-x="870" d="M121 -207q14 20 29.5 46t27.5 58.5t20.5 75.5t8.5 101v131h213v-56q0 -96 -20.5 -168.5t-50 -125t-63.5 -88t-59 -56.5zM453 -205q14 20 29.5 46t27.5 58.5t20.5 75.5t8.5 101v131h213v-56q0 -96 -20.5 -168.5t-50 -125t-63.5 -88t-59 -56.5z" />
<glyph unicode="&#x2022;" horiz-adv-x="669" d="M119 338v430h432v-430h-432z" />
<glyph unicode="&#x2026;" horiz-adv-x="1648" d="M119 0v276h289v-276h-289zM680 0v276h289v-276h-289zM1241 0v276h289v-276h-289z" />
<glyph unicode="&#x202f;" horiz-adv-x="388" />
<glyph unicode="&#x2039;" horiz-adv-x="563" d="M55 358l326 371l106 -86l-186 -283l184 -266l-104 -94z" />
<glyph unicode="&#x203a;" horiz-adv-x="563" d="M76 643l106 86l326 -371l-326 -358l-104 94l184 266z" />
<glyph unicode="&#x205f;" horiz-adv-x="485" />
<glyph unicode="&#x20ac;" horiz-adv-x="1376" d="M47 498v145h281v117h-281v143h281v144q0 90 40 157.5t105.5 114.5t150.5 70.5t175 23.5q129 0 240.5 -36t213.5 -117l-102 -183q-31 25 -76 44.5t-93 34.5t-96 23.5t-87 8.5q-104 0 -158.5 -52.5t-54.5 -152.5v-80h467v-143h-467v-117h467v-145h-465v-86q0 -45 19.5 -83 t52 -65.5t73.5 -43t86 -15.5q92 0 176 30.5t148 81.5l110 -180q-96 -82 -203.5 -119.5t-230.5 -37.5q-104 0 -193 27.5t-156 80.5t-104.5 132t-37.5 183v95h-281z" />
<glyph unicode="&#x2122;" horiz-adv-x="1097" d="M57 1329v105h389v-105h-137v-332h-116v332h-136zM532 1004v430h121l103 -172l102 172h123v-430h-117v241l-90 -153h-37l-88 153v-241h-117z" />
<glyph unicode="&#xe000;" horiz-adv-x="1003" d="M0 0v1004h1004v-1004h-1004z" />
<glyph unicode="&#xfb03;" horiz-adv-x="1890" d="M-4 827v177h184v153q0 78 32 142.5t86 110.5t127 71.5t153 25.5q86 0 200.5 -31.5t216.5 -97.5q68 76 143.5 105.5t186.5 29.5q47 0 110.5 -10t130 -25.5t127 -34t101.5 -32.5l-72 -211q-14 4 -59 17.5t-103.5 26.5t-126 24.5t-128.5 11.5q-63 0 -102.5 -30.5 t-39.5 -78.5v-167h191v-177h-195v-827h-252v827h-184v177h184v110q0 20 -1 35.5t-1 34.5q-27 14 -64.5 30.5t-80.5 32t-90 25.5t-92 10q-72 0 -109 -32.5t-37 -78.5v-167h189v-177h-189v-827h-252v827h-184zM1511 0v1004h254v-1004h-254z" />
<glyph unicode="&#xfb04;" horiz-adv-x="1892" d="M-4 827v177h184v153q0 78 32 142.5t86 110.5t127 71.5t153 25.5q82 0 188 -24.5t213 -93.5q53 55 129 86.5t166 31.5q53 0 112.5 -11t113.5 -27.5t100.5 -35t72.5 -30.5h94v-1403h-251v1249q-41 16 -109 31.5t-133 15.5q-57 0 -97 -37.5t-40 -82.5v-172h209v-179h-211 v-825h-246v825h-187v179h191v172q0 16 1 22t5 23q-68 18 -151.5 39.5t-169.5 21.5q-72 0 -109 -32.5t-37 -78.5v-167h189v-177h-189v-827h-252v827h-184z" />
</font>
</defs>
</svg>
