<?xml version="1.0" standalone="no"?>
<!DOCTYPE svg PUBLIC "-//W3C//DTD SVG 1.1//EN" "http://www.w3.org/Graphics/SVG/1.1/DTD/svg11.dtd" >
<svg xmlns="http://www.w3.org/2000/svg">
<metadata></metadata>
<defs>
<font id="pill_gothic_600mg_ltbold" horiz-adv-x="1284" >
<font-face units-per-em="2048" ascent="1638" descent="-410" />
<missing-glyph horiz-adv-x="446" />
<glyph unicode="&#xdf;" horiz-adv-x="1316" d="M84 852v152h111v202q0 68 24.5 124t67.5 97t101 63.5t126 22.5q25 0 56.5 -4t64.5 -10t62.5 -15t54.5 -20l-56 -170q-43 20 -77.5 27.5t-67.5 7.5q-86 0 -122 -50t-36 -134v-141h770v-136l-207 -256h37q55 0 98.5 -21.5t71 -56t42 -78.5t14.5 -91v-129q0 -59 -26 -106.5 t-69 -79.5t-100 -48t-121 -16q-92 0 -174 32.5t-121 104.5l105 108q18 -37 69.5 -61.5t100.5 -24.5q61 0 98 30t37 89v66q0 66 -32 101.5t-103 35.5h-178v137l204 246h-508v-850h-206v852h-111z" />
<glyph unicode="&#xfb01;" horiz-adv-x="1208" d="M37 850v154h192v184q0 76 27 138.5t76 106.5t115.5 67.5t146.5 23.5q68 0 133.5 -13.5t126.5 -33t115.5 -44t99.5 -49.5l-90 -163q-37 16 -82 36.5t-95 39t-102.5 30.5t-101.5 12q-66 0 -111 -39.5t-45 -99.5v-196h205v-154h-207v-850h-211v850h-192zM844 0v1004h213 v-1004h-213z" />
<glyph unicode="&#xfb02;" horiz-adv-x="1247" d="M37 850v154h199v202q0 74 29.5 132.5t80.5 100.5t119.5 64.5t144.5 22.5q41 0 91.5 -6.5t101.5 -17.5t100 -26.5t86 -31.5h80v-1444h-213v1296q-55 20 -123.5 29.5t-122.5 9.5q-66 0 -113.5 -36.5t-47.5 -96.5v-198h215v-154h-220v-850h-213v850h-194z" />
<glyph horiz-adv-x="2048" />
<glyph horiz-adv-x="2048" />
<glyph unicode="&#xd;" horiz-adv-x="446" />
<glyph unicode=" "  horiz-adv-x="446" />
<glyph unicode="&#x09;" horiz-adv-x="446" />
<glyph unicode="&#xa0;" horiz-adv-x="446" />
<glyph unicode="!" horiz-adv-x="497" d="M150 1393h233l-25 -906h-184zM156 0v254h227v-254h-227z" />
<glyph unicode="&#x22;" horiz-adv-x="614" d="M100 1409h164l-12 -453h-139zM354 1409h160l-10 -453h-137z" />
<glyph unicode="#" horiz-adv-x="1294" d="M84 266v131h283l82 426h-291v131h313l53 291h135l-53 -291h238l55 291h129l-49 -291h231v-131h-256l-80 -426h254v-131h-278l-45 -266h-137l47 266h-238l-47 -266h-135l47 266h-258zM502 397h237l80 426h-237z" />
<glyph unicode="$" horiz-adv-x="1101" d="M86 256l170 115q45 -78 128 -130.5t181 -52.5q102 0 170 41t68 148v108l-680 291v246q0 82 29.5 147.5t80 111.5t119 74.5t148.5 37.5v235h172v-242q111 -2 201 -66.5t145 -156.5l-148 -129q-51 70 -127.5 120t-162.5 50q-43 0 -87 -9t-78 -30.5t-55.5 -58.5t-21.5 -90 v-117l680 -297v-211q0 -82 -27.5 -150.5t-77 -119.5t-117 -82t-145.5 -35v-252h-172v246q-55 0 -115.5 20.5t-113.5 54t-97 81t-67 102.5z" />
<glyph unicode="%" horiz-adv-x="1466" d="M117 1036v146q0 55 22.5 98t61.5 72.5t90 45t108 15.5q55 0 105.5 -16.5t89.5 -47t62.5 -72.5t23.5 -95v-146q0 -55 -22.5 -98t-60.5 -73.5t-89 -46t-109 -15.5q-59 0 -111 14t-90 44t-59.5 74t-21.5 101zM164 0l956 1393h180l-946 -1393h-190zM297 1044q0 -41 28.5 -59 t73.5 -18q39 0 72 22.5t33 57.5v131q0 35 -32 52t-73 17t-71.5 -20.5t-30.5 -55.5v-127zM809 201v178q0 111 78 168t194 57q53 0 101.5 -13t86.5 -41t60.5 -69t22.5 -96v-172q0 -113 -77 -171t-194 -58q-53 0 -102 15t-87 43t-60.5 68t-22.5 91zM979 225q0 -37 30.5 -58.5 t71.5 -21.5q37 0 70 24t33 58v129q0 41 -30 61.5t-73 20.5q-41 0 -71.5 -24.5t-30.5 -59.5v-129z" />
<glyph unicode="&#x26;" horiz-adv-x="1388" d="M84 346q0 74 30.5 134.5t79 113.5t108.5 100t118 94l-158 175v190q0 61 24.5 109.5t67.5 82t99.5 51t119.5 17.5q154 0 246 -75.5t92 -223.5q0 -111 -54 -193.5t-140 -148.5l244 -268l188 205l147 -136l-198 -213l239 -239l-151 -144l-221 230q-82 -109 -187.5 -168 t-249.5 -59q-203 0 -323.5 90t-120.5 276zM307 354q0 -86 54.5 -132t152.5 -46q53 0 93 15.5t76 41t69.5 59.5t72.5 70l-268 295q-39 -35 -83 -68.5t-81 -68.5t-61.5 -76t-24.5 -90zM453 1034l125 -141q53 41 97 95t44 120t-37 98.5t-102 32.5q-59 0 -93 -31.5t-34 -72.5 v-101z" />
<glyph unicode="'" horiz-adv-x="475" d="M131 1434h213l-27 -488h-159z" />
<glyph unicode="(" horiz-adv-x="696" d="M156 240v628q0 121 25.5 226.5t70.5 193.5t109.5 158t140.5 115l71 -111q-49 -31 -93 -85t-77.5 -128t-53 -166t-19.5 -203v-628q0 -117 19.5 -210t53 -165t77.5 -123t93 -82l-71 -113q-76 45 -140.5 115t-109.5 158t-70.5 194.5t-25.5 225.5z" />
<glyph unicode=")" horiz-adv-x="733" d="M123 -354q49 35 93 91t77 133t52.5 171t19.5 205v620q0 221 -63.5 367.5t-162.5 216.5l56 111q154 -92 249 -272.5t95 -422.5v-620q0 -240 -95.5 -421t-248.5 -274z" />
<glyph unicode="*" horiz-adv-x="790" d="M84 1171l39 123l205 -65v211h133v-213l207 67l37 -123l-201 -65l127 -170l-109 -78l-127 172l-129 -172l-104 76l127 172z" />
<glyph unicode="+" horiz-adv-x="1146" d="M53 698v191h414v381h213v-381h414v-191h-414v-432h-213v432h-414z" />
<glyph unicode="," horiz-adv-x="425" d="M39 -207q16 20 30.5 46t25.5 57.5t18.5 72.5t7.5 94v125h182v-53q0 -90 -17.5 -157.5t-43 -116.5t-55 -83t-54.5 -57z" />
<glyph unicode="-" horiz-adv-x="681" d="M84 504v190h514v-190h-514z" />
<glyph unicode="." horiz-adv-x="475" d="M117 0v252h243v-252h-243z" />
<glyph unicode="/" horiz-adv-x="788" d="M37 -174l536 1567h189l-539 -1567h-186z" />
<glyph unicode="0" horiz-adv-x="1247" d="M131 414v559q0 102 39 184t105.5 139.5t156 87t191.5 29.5t191 -29.5t156.5 -87t106.5 -139.5t39 -184v-559q0 -102 -39 -183t-106.5 -136.5t-157.5 -85t-190 -29.5t-189.5 29.5t-157 85t-106.5 136t-39 183.5zM344 414q0 -121 81 -182.5t198 -61.5q57 0 108 15.5t89 45 t60.5 75.5t22.5 108v559q0 61 -21.5 107t-59.5 78t-89 48.5t-110 16.5q-121 0 -200 -64.5t-79 -185.5v-559z" />
<glyph unicode="1" horiz-adv-x="884" d="M127 1202v191h524v-1393h-213v1202h-311z" />
<glyph unicode="2" horiz-adv-x="1087" d="M106 1171q84 102 201 162t258 60q90 0 168 -20.5t134.5 -63.5t89 -111t32.5 -162q0 -82 -20.5 -143.5t-60.5 -112.5t-95 -96t-127 -96q-61 -43 -122.5 -85t-112 -90t-82 -102.5t-31.5 -120.5h676v-190h-889v109q0 111 23.5 195.5t71.5 153t119 128t165 121.5 q47 29 95 59.5t88 66t64.5 79.5t24.5 102q0 88 -54 138t-161 50q-47 0 -95 -14t-92 -39t-83 -55.5t-66 -63.5z" />
<glyph unicode="3" horiz-adv-x="1144" d="M100 276l181 68q10 -39 38.5 -70.5t66.5 -54t83 -36t90 -13.5q43 0 89 8t83 26.5t61.5 48.5t24.5 75v143q0 43 -24.5 72.5t-62.5 49t-83 30t-86 12.5h-158v184h150q43 0 87 8.5t80 26.5t59.5 49t23.5 74v86q0 43 -20.5 73.5t-53.5 50t-75 28t-87 8.5q-86 0 -159.5 -42 t-98.5 -118l-166 76q18 70 63.5 121t107 84.5t133 51t145.5 17.5q90 0 168 -21.5t134 -64.5t89 -108.5t33 -155.5v-86q0 -51 -17.5 -91t-45 -71t-64.5 -52.5t-78 -35.5q41 -16 80 -37.5t69.5 -52.5t50 -72t19.5 -94v-143q0 -90 -38 -156t-101.5 -109t-146 -63t-171.5 -20 q-86 0 -162.5 17t-139 54t-107.5 93.5t-64 131.5z" />
<glyph unicode="4" horiz-adv-x="1146" d="M55 391v152l494 850h334v-811h225v-191h-225v-391h-213v391h-615zM291 582h379v624h-27z" />
<glyph unicode="5" horiz-adv-x="1126" d="M106 330l209 49q4 -39 25.5 -77t56.5 -67.5t79 -47t95 -17.5q47 0 89 10t75 33t52.5 57.5t19.5 81.5v131q0 47 -20.5 83t-53.5 58.5t-76 34t-88 11.5h-409l71 723h711v-191h-516l-33 -340h193q88 0 166.5 -23.5t138 -71.5t94.5 -118.5t35 -165.5v-131q0 -88 -39 -157.5 t-103.5 -117.5t-147.5 -72.5t-171 -24.5q-186 0 -307 91t-146 259z" />
<glyph unicode="6" horiz-adv-x="1155" d="M131 348v703q0 82 39 148.5t101.5 114.5t144.5 73.5t168 25.5q123 0 213 -33.5t174 -103.5l-109 -160q-68 57 -135.5 83t-142.5 26q-45 0 -88 -12.5t-77 -35t-54.5 -54t-20.5 -72.5v-275q66 66 134.5 100.5t164.5 34.5q82 0 153.5 -22.5t126 -67.5t85 -112.5t30.5 -157.5 v-203q0 -90 -38.5 -158.5t-102 -115.5t-145.5 -70.5t-168 -23.5q-88 0 -169 23.5t-144.5 70.5t-101.5 115.5t-38 158.5zM344 348q0 -47 20.5 -81t54.5 -56.5t77 -32.5t88 -10q43 0 87 10t77.5 32.5t55 56.5t21.5 81v174q0 45 -20.5 80t-54 57.5t-76.5 35t-86 12.5 q-45 0 -89 -12.5t-78 -36t-55.5 -58.5t-21.5 -78v-174z" />
<glyph unicode="7" horiz-adv-x="964" d="M12 1202v191h908l-471 -1393h-232l414 1202h-619z" />
<glyph unicode="8" horiz-adv-x="1171" d="M131 332v153q0 39 18.5 79t49 76t69.5 62.5t78 40.5q-84 33 -136 111t-52 166v74q0 86 34.5 151.5t93 109.5t135.5 66.5t163 22.5t162.5 -22.5t136 -66.5t94.5 -109.5t35 -151.5v-101q0 -37 -17.5 -75.5t-44 -72.5t-60.5 -60.5t-67 -41.5q37 -14 75 -38.5t69.5 -58.5 t51 -75t19.5 -86v-153q0 -94 -36.5 -161t-99 -110t-144.5 -62t-174 -19t-174 19t-143.5 62t-98.5 110t-37 161zM344 338q0 -47 20.5 -79t54.5 -52.5t77 -28.5t88 -8q43 0 85 8t76.5 27.5t56 50.5t21.5 76v153q0 37 -20.5 67t-53 49.5t-72.5 30.5t-77 11h-29 q-39 -2 -79.5 -12t-73.5 -29.5t-53.5 -48.5t-20.5 -68v-147zM371 993q0 -39 17.5 -67.5t46 -48t64.5 -30.5t72 -13h27q82 4 141.5 39.5t59.5 119.5v101q0 41 -18.5 71.5t-49.5 50t-69.5 28.5t-77.5 9t-78 -9t-68.5 -29.5t-48 -50t-18.5 -70.5v-101z" />
<glyph unicode="9" horiz-adv-x="1155" d="M117 848v199q0 86 38 153.5t100 115.5t143 72.5t169 24.5q86 0 168 -24.5t145.5 -71.5t102.5 -115.5t39 -154.5v-699q0 -90 -39 -158.5t-102.5 -115.5t-145.5 -70.5t-168 -23.5q-109 0 -214 36.5t-181 112.5l109 156q53 -39 128.5 -77t157.5 -38q43 0 86 10t78 31.5 t56.5 55.5t21.5 81v246q-49 -59 -123 -88t-145 -29q-88 0 -166 24.5t-135.5 72t-90 116t-32.5 158.5zM330 848q0 -47 21.5 -81t55 -56.5t77.5 -32.5t89 -10q43 0 86 11t76 33.5t53.5 56.5t20.5 79v199q0 43 -21.5 76.5t-55.5 55t-77 33t-88 11.5t-87 -11.5t-75.5 -33 t-54 -55t-20.5 -76.5v-199z" />
<glyph unicode=":" horiz-adv-x="555" d="M180 0v272h228v-272h-228zM180 735v269h228v-269h-228z" />
<glyph unicode=";" horiz-adv-x="610" d="M168 -207q16 20 30.5 46t26 57.5t18.5 72.5t7 94v125h182v-53q0 -90 -17.5 -157.5t-43 -116.5t-55 -83t-54.5 -57zM233 709v276h211v-276h-211z" />
<glyph unicode="&#x3c;" horiz-adv-x="1218" d="M84 496l942 571l84 -135l-711 -426l736 -402l-84 -135z" />
<glyph unicode="=" horiz-adv-x="1132" d="M84 412v163h965v-163h-965zM84 842v162h965v-162h-965z" />
<glyph unicode="&#x3e;" horiz-adv-x="1204" d="M94 922l84 133l942 -529l-938 -567l-84 135l709 422z" />
<glyph unicode="?" horiz-adv-x="858" d="M45 1249q72 68 162 116t190 48q172 0 274.5 -72.5t102.5 -240.5v-84q0 -37 -13 -67.5t-34.5 -58.5t-49.5 -52.5t-54 -46.5q-70 -59 -105 -110.5t-35 -135.5v-92h-202v125q0 88 38.5 153.5t104.5 130.5q20 20 45 39t45.5 39.5t33.5 45t13 54.5v54q0 66 -45 97.5t-110 31.5 q-70 0 -140.5 -35t-118.5 -80zM246 0v254h258v-254h-258z" />
<glyph unicode="@" horiz-adv-x="1613" d="M84 541q0 18 1 49t4 69.5t7 82.5t13 87q23 127 81 238t150 192.5t214 130t269 48.5q154 0 282 -43t221 -120t145.5 -182.5t52.5 -232.5q0 -115 -19.5 -209t-60.5 -161.5t-107.5 -104.5t-160.5 -37q-31 0 -66 5t-66.5 18.5t-57 36t-36.5 57.5q-45 -55 -122.5 -98 t-165.5 -43q-131 0 -190.5 56t-59.5 138q0 20 4 57t12 84.5t22.5 101.5t32.5 107q18 61 59.5 111.5t94.5 85.5t113.5 54.5t119.5 19.5q119 0 192 -53.5t73 -141.5q0 -41 -9.5 -86t-19.5 -92q-8 -41 -15.5 -86t-7.5 -92q0 -41 26 -72t67 -31q109 0 153.5 100.5t44.5 276.5 q0 98 -41 179t-113.5 140.5t-174 92.5t-222.5 33q-117 0 -215 -38t-170.5 -103.5t-119 -154.5t-60.5 -192q-10 -82 -17.5 -160.5t-7.5 -113.5q0 -88 38 -166t112 -134.5t183.5 -89t252.5 -32.5q78 0 159 20.5t165 65.5l65 -121q-92 -51 -191 -76.5t-198 -25.5 q-178 0 -314 42t-230.5 116.5t-142.5 176t-48 220.5zM596 582q0 -115 109 -115q80 0 141 53t74 131q14 59 27.5 125t13.5 123q0 96 -115 96q-41 0 -78 -18.5t-66.5 -49t-50 -69.5t-26.5 -80q-6 -27 -12.5 -60.5t-9.5 -62t-5 -49t-2 -24.5z" />
<glyph unicode="A" d="M41 0l481 1405h254l465 -1405h-223l-119 369h-510l-119 -369h-229zM446 543h398l-199 631z" />
<glyph unicode="B" horiz-adv-x="1161" d="M145 0v1393h498q82 0 150.5 -26t118 -73t76 -115.5t26.5 -152.5v-39q0 -39 -11.5 -79t-33 -75.5t-52 -63.5t-67.5 -44q98 -41 154.5 -114.5t56.5 -188.5v-72q0 -172 -103.5 -261t-269.5 -89h-543zM358 190h277q43 0 82 8.5t67.5 27t46 49t17.5 75.5v82q0 49 -20.5 85 t-55.5 59.5t-79 36t-93 12.5h-242v-435zM358 799h230q92 0 152.5 47t60.5 141v39q0 100 -58.5 138t-154.5 38h-230v-403z" />
<glyph unicode="C" horiz-adv-x="1142" d="M100 426v541q0 104 41 187t112 140.5t165 88t200 30.5q80 0 143.5 -11t116 -35t99.5 -58.5t92 -83.5l-119 -146q-66 63 -147 103.5t-185 40.5q-61 0 -117.5 -17.5t-97.5 -50.5t-65.5 -80t-24.5 -108v-541q0 -66 23.5 -114t64.5 -79.5t97.5 -47t122.5 -15.5 q104 0 196 28.5t162 90.5l94 -158q-98 -88 -208.5 -119.5t-243.5 -31.5q-111 0 -206.5 28.5t-165 83.5t-109.5 139t-40 195z" />
<glyph unicode="D" horiz-adv-x="1222" d="M147 0v1393h447q115 0 211 -27t166.5 -82t110.5 -139t40 -199v-502q0 -113 -43 -196.5t-116.5 -139t-173 -82t-211.5 -26.5h-431zM356 188h222q68 0 127 14.5t105 46.5t72.5 80t26.5 115v502q0 66 -24.5 114t-67.5 79.5t-100.5 47t-122.5 15.5h-238v-1014z" />
<glyph unicode="E" horiz-adv-x="1036" d="M147 0v1393h760v-191h-547v-393h461v-184h-461v-435h592v-190h-805z" />
<glyph unicode="F" horiz-adv-x="958" d="M147 0v1393h758v-191h-547v-395h461v-182h-461v-625h-211z" />
<glyph unicode="G" horiz-adv-x="1265" d="M100 426v541q0 104 43 187t117 140.5t172 88t209 30.5q135 0 252 -42t209 -130l-103 -156q-72 61 -166 99.5t-192 38.5q-63 0 -122.5 -17.5t-105.5 -51.5t-73 -81t-27 -106v-541q0 -63 26 -111.5t71 -80t105 -48t128 -16.5q92 0 157.5 16.5t135.5 55.5v333h-301v177h514 v-607q-61 -37 -116.5 -66.5t-115 -52t-126 -34.5t-148.5 -12q-115 0 -214 28.5t-172 85t-115 140t-42 192.5z" />
<glyph unicode="H" horiz-adv-x="1409" d="M195 0v1393h213v-623h641v623h213v-1393h-213v580h-641v-580h-213z" />
<glyph unicode="I" horiz-adv-x="638" d="M211 0v1393h213v-1393h-213z" />
<glyph unicode="J" horiz-adv-x="1001" d="M37 307l205 53q4 -31 20.5 -64.5t42 -61t61 -46t80.5 -18.5q76 0 135.5 39t59.5 119v1065h213v-1065q0 -84 -31.5 -148.5t-85 -107.5t-126 -65.5t-156.5 -22.5q-166 0 -277.5 84t-140.5 239z" />
<glyph unicode="K" horiz-adv-x="1282" d="M147 0v1393h213v-607l576 607h283l-613 -641l664 -752h-291l-520 596l-99 -98v-498h-213z" />
<glyph unicode="L" horiz-adv-x="1021" d="M147 0v1393h213v-1203h644v-190h-857z" />
<glyph unicode="M" horiz-adv-x="1624" d="M147 0v1393h267l395 -760l403 760h265v-1393h-191v1145l-428 -858h-100l-420 856v-1143h-191z" />
<glyph unicode="N" horiz-adv-x="1423" d="M147 0v1393h279l659 -1164v1164h191v-1393h-293l-645 1143v-1143h-191z" />
<glyph unicode="O" horiz-adv-x="1318" d="M100 426v541q0 106 45 189t121 140.5t173.5 87t203.5 29.5h33q104 0 202.5 -30.5t173 -88t121 -140.5t46.5 -187v-541q0 -109 -44.5 -192.5t-119 -140t-173 -85t-206.5 -28.5h-31q-111 0 -210 28.5t-173 83.5t-118 139t-44 195zM313 426q0 -66 28 -114t74 -79.5 t105.5 -47t124.5 -15.5h31q66 0 125 15.5t104 48t73 80.5t28 112v541q0 61 -29 108t-76 80t-105.5 50.5t-119.5 17.5h-33q-61 0 -120.5 -17.5t-105.5 -50.5t-75 -80t-29 -108v-541z" />
<glyph unicode="P" horiz-adv-x="1097" d="M145 0v1393h455q88 0 164 -23.5t131 -70t87 -115t32 -156.5v-156q0 -84 -33 -147t-88 -106.5t-130 -65t-159 -21.5h-246v-532h-213zM358 723h242q39 0 76 8t64.5 26.5t44 47.5t16.5 67v156q0 84 -58.5 129t-142.5 45h-242v-479z" />
<glyph unicode="Q" horiz-adv-x="1318" d="M100 426v541q0 106 45 189t121 140.5t173.5 87t203.5 29.5h33q104 0 202.5 -30.5t173 -88t121 -140.5t46.5 -187v-541q0 -106 -41 -187t-113 -139l14 -16q49 -63 102.5 -85t127.5 -22v-137q-68 0 -120 4t-95 18.5t-80 44.5t-76 79l-25 32q-55 -18 -114.5 -28t-122.5 -10 h-31q-111 0 -210 28.5t-173 83.5t-118 139t-44 195zM313 426q0 -66 28 -114t74 -79.5t105.5 -47t124.5 -15.5h31q59 0 108 14l-143 187l129 108l168 -215q29 29 48.5 69t19.5 93v541q0 61 -29 108t-76 80t-105.5 50.5t-119.5 17.5h-33q-61 0 -120.5 -17.5t-105.5 -50.5 t-75 -80t-29 -108v-541z" />
<glyph unicode="R" horiz-adv-x="1196" d="M145 0v1393h527q92 0 167.5 -22.5t130 -68t85 -114t30.5 -158.5v-108q0 -131 -77.5 -211t-202.5 -109l334 -602h-238l-319 582h-224v-582h-213zM358 772h314q37 0 73.5 9.5t64.5 27.5t45 47t17 68v104q0 84 -59 129t-143 45h-312v-430z" />
<glyph unicode="S" horiz-adv-x="1185" d="M86 236l145 131q25 -39 68 -75t94 -61.5t106.5 -41t106.5 -15.5q55 0 109.5 10.5t95.5 35t66.5 64.5t25.5 97q0 59 -32.5 98t-83 65.5t-113 44t-121.5 36.5q-94 29 -171 62.5t-132 80.5t-85 111.5t-30 154.5q0 100 39 172t104.5 118t154.5 67.5t190 21.5q147 0 258.5 -51 t195.5 -123l-121 -158q-27 25 -64.5 50.5t-81.5 45t-92 33t-95 13.5q-53 0 -102.5 -10.5t-88.5 -32t-61.5 -57.5t-22.5 -89q0 -55 30 -91t77 -61.5t104.5 -43t114.5 -33.5q102 -29 184 -61.5t139.5 -80t88 -116t30.5 -166.5q0 -102 -39 -177t-106.5 -124t-157.5 -72.5 t-192 -23.5q-80 0 -159 16t-149.5 48t-128 79t-98.5 109z" />
<glyph unicode="T" horiz-adv-x="1112" d="M20 1202v191h1070v-193h-431v-1200h-213v1200z" />
<glyph unicode="U" horiz-adv-x="1382" d="M147 438v955h213v-955q0 -70 27 -120t72 -82.5t105.5 -49t127.5 -16.5q66 0 126.5 16.5t105.5 50t71.5 84t26.5 117.5v955h213v-955q0 -115 -42 -200.5t-115.5 -143t-172 -86t-211.5 -28.5q-115 0 -215 28.5t-174 86t-116 143.5t-42 200z" />
<glyph unicode="V" horiz-adv-x="1282" d="M37 1393h219l381 -1135l389 1135h219l-481 -1393h-256z" />
<glyph unicode="W" horiz-adv-x="1796" d="M37 1393h221l254 -1090l281 1090h215l286 -1096l226 1096h223l-322 -1393h-241l-281 1053l-278 -1053h-242z" />
<glyph unicode="X" horiz-adv-x="1341" d="M74 0l481 694l-455 699h252l332 -525l344 525h252l-471 -699l469 -694h-254l-342 520l-354 -520h-254z" />
<glyph unicode="Y" horiz-adv-x="1308" d="M37 1393h246l360 -650l367 650h245l-505 -840v-553h-213v555z" />
<glyph unicode="Z" horiz-adv-x="1177" d="M84 0v102l698 1100h-684v191h987v-105l-692 -1098h692v-190h-1001z" />
<glyph unicode="[" horiz-adv-x="563" d="M145 -328v1721h334v-154h-147v-1417h139v-150h-326z" />
<glyph unicode="\" horiz-adv-x="864" d="M53 1393h195l563 -1393h-193z" />
<glyph unicode="]" horiz-adv-x="559" d="M86 -168h139v1397h-139v164h328v-1715h-328v154z" />
<glyph unicode="^" horiz-adv-x="878" d="M84 844l360 569l351 -567l-144 -62l-207 340l-211 -340z" />
<glyph unicode="_" horiz-adv-x="1134" d="M84 -68h967v-165h-967v165z" />
<glyph unicode="`" horiz-adv-x="548" d="M102 1393l146 100l198 -313l-110 -78z" />
<glyph unicode="a" horiz-adv-x="1013" d="M84 309v205l602 104v46q0 96 -49 137t-145 41q-37 0 -80 -9.5t-84 -23.5t-78 -30.5t-62 -30.5l-67 143q37 25 84 48.5t100 42.5t108.5 30.5t104.5 11.5q178 0 279.5 -90t101.5 -270v-664h-172l-33 133q-51 -90 -125.5 -119.5t-171.5 -29.5q-152 0 -232.5 88t-80.5 237z M297 319q0 -72 42 -111.5t114 -39.5q37 0 76.5 10t73.5 30.5t55.5 49.5t21.5 68v145l-383 -65v-87z" />
<glyph unicode="b" horiz-adv-x="1097" d="M131 0v1475h213v-621q16 39 50 69.5t76 52t89 34t90 12.5q174 0 269.5 -96.5t95.5 -270.5v-305q0 -176 -99.5 -273t-273.5 -97q-98 0 -180 36.5t-129 114.5l-27 -131h-174zM344 346q0 -49 20.5 -83t54.5 -54.5t78 -29.5t93 -9q41 0 80 12.5t67.5 35t46 56t17.5 76.5v305 q0 96 -61.5 134t-155.5 38q-43 0 -86 -12t-77 -34.5t-55.5 -55.5t-21.5 -76v-303z" />
<glyph unicode="c" horiz-adv-x="921" d="M84 348v307q0 86 31.5 155t88 117t132.5 72.5t164 24.5q66 0 117 -9t94 -27.5t80.5 -46.5t76.5 -64l-110 -152q-53 51 -119.5 80t-138.5 29q-88 0 -145.5 -46.5t-57.5 -132.5v-307q0 -94 61.5 -136t155.5 -42q74 0 138.5 22.5t127.5 73.5l84 -160q-80 -76 -169 -101 t-193 -25q-92 0 -169 22.5t-132.5 68.5t-86 115.5t-30.5 161.5z" />
<glyph unicode="d" horiz-adv-x="1075" d="M86 354v301q0 174 95 271.5t274 97.5q86 0 161.5 -30.5t128.5 -98.5v580h211v-1475h-165l-43 119q-49 -70 -131 -102.5t-162 -32.5q-178 0 -273.5 96t-95.5 274zM299 354q0 -98 61.5 -139t161.5 -41q43 0 83 10.5t71 32t49 55t18 78.5v303q0 47 -18 82t-49 57.5t-73 34 t-89 11.5q-88 0 -151.5 -48.5t-63.5 -134.5v-301z" />
<glyph unicode="e" horiz-adv-x="1024" d="M84 362v300q0 86 34 153.5t92 113.5t138 70.5t170 24.5q84 0 159 -25.5t130 -71.5t87 -111.5t32 -147.5v-160l-629 -92v-54q0 -47 23.5 -82.5t61.5 -60t85 -37t96 -12.5q88 0 171 31.5t128 72.5l94 -151q-86 -78 -188 -110.5t-217 -32.5q-98 0 -183 22.5t-147.5 70.5 t-99.5 119.5t-37 169.5zM297 563l410 58v57q0 80 -53.5 119t-139.5 39q-43 0 -82 -12.5t-69.5 -35t-48 -54.5t-17.5 -72v-99z" />
<glyph unicode="f" horiz-adv-x="673" d="M12 856v148h197v223q0 72 27.5 124t75.5 85.5t110.5 51t130.5 17.5q45 0 100.5 -12t100.5 -29l-45 -161q-31 10 -69 16t-67 6q-78 0 -114.5 -28.5t-36.5 -104.5v-188h246v-148h-246v-856h-213v856h-197z" />
<glyph unicode="g" horiz-adv-x="1083" d="M68 -178q0 86 41 132t112 83q-59 41 -79.5 80t-20.5 110q0 23 11 45.5t27.5 43t38 38t42.5 27.5q-123 92 -123 258v43q0 88 31.5 152.5t88 106.5t132 62.5t163.5 20.5q61 0 112.5 -14.5t109.5 -42.5l241 94l58 -146l-166 -55q27 -43 44 -86t17 -90v-61 q0 -86 -32.5 -148.5t-88 -102.5t-130 -59.5t-160.5 -19.5q-35 0 -89.5 6t-82.5 18q-25 -10 -41.5 -23t-16.5 -48t20.5 -63.5t61.5 -37.5l610 -155v-170q0 -78 -32.5 -132.5t-86 -89t-124 -51t-148.5 -16.5h-159q-76 0 -146 17.5t-122 53.5t-82.5 91t-30.5 129zM270 -160 q0 -47 18.5 -74.5t50.5 -41t74 -17.5t89 -4h108q68 0 117 27.5t59 95.5v59l-403 95q-49 -12 -81 -46t-32 -94zM317 612q0 -78 63.5 -118.5t154.5 -40.5q41 0 79.5 9t68.5 28.5t47.5 49t17.5 72.5v72q-2 39 -20.5 68.5t-49.5 49t-69 30t-77 10.5q-41 0 -79.5 -10.5t-68.5 -30 t-48.5 -49t-18.5 -68.5v-72z" />
<glyph unicode="h" horiz-adv-x="1118" d="M129 0v1475h213v-644q23 43 58.5 78t79.5 60.5t93.5 40t98.5 14.5q178 0 253.5 -94t75.5 -273v-657h-213v657q0 84 -51 130.5t-135 46.5q-47 0 -93 -18.5t-83 -49.5t-60.5 -72t-23.5 -88v-606h-213z" />
<glyph unicode="i" horiz-adv-x="522" d="M158 1167v226h217v-226h-217zM160 0v1004h213v-1004h-213z" />
<glyph unicode="j" horiz-adv-x="555" d="M-109 -293q51 31 105.5 61.5t99.5 73.5t73 105.5t28 156.5v900h213v-914q0 -121 -36 -204t-97.5 -142t-143.5 -102t-174 -80zM195 1165v228h215v-228h-215z" />
<glyph unicode="k" horiz-adv-x="980" d="M129 0v1454h213v-819h82l270 369h244l-334 -455l375 -549h-258l-303 455h-76v-455h-213z" />
<glyph unicode="l" horiz-adv-x="509" d="M150 0v1454h212v-1454h-212z" />
<glyph unicode="m" horiz-adv-x="1671" d="M131 0v1004h178l23 -162q20 39 53 72.5t73 58t86 38t91 13.5q109 0 186.5 -39t100.5 -147q20 37 53 71.5t72.5 60t85 41t90.5 15.5q170 0 250.5 -80t80.5 -248v-698h-213v641q0 98 -36.5 146.5t-133.5 48.5q-49 0 -90 -19.5t-70.5 -52.5t-47 -77t-17.5 -91v-596h-213v645 q0 92 -37 143.5t-129 51.5q-45 0 -86 -21.5t-71.5 -55.5t-48 -77t-17.5 -86v-600h-213z" />
<glyph unicode="n" horiz-adv-x="1120" d="M131 0v1004h186l27 -160q59 84 134 132t179 48q178 0 261 -94t83 -273v-657h-213v625q0 92 -47 151.5t-139 59.5q-47 0 -93 -18.5t-83 -50.5t-59.5 -73t-22.5 -88v-606h-213z" />
<glyph unicode="o" horiz-adv-x="1038" d="M84 352v303q0 86 34 155t93 117t139 72.5t174 24.5q197 0 313.5 -97.5t116.5 -271.5v-303q0 -88 -34.5 -157.5t-94 -116.5t-138.5 -72.5t-165 -25.5q-88 0 -168 25.5t-139 72.5t-95 116.5t-36 157.5zM297 352q0 -45 18.5 -78.5t49 -56t71.5 -34t86 -11.5q43 0 83 11.5 t70 34t48 56t18 78.5v303q0 43 -18 76t-48 56.5t-69 35t-82 11.5t-84 -11.5t-72.5 -35t-51 -56.5t-19.5 -76v-303z" />
<glyph unicode="p" horiz-adv-x="1091" d="M129 -453v1457h158l43 -121q57 70 126 105.5t167 35.5q86 0 156.5 -26.5t121.5 -73.5t79 -115t28 -152v-299q0 -84 -28 -153.5t-79 -119.5t-121.5 -77.5t-156.5 -27.5q-92 0 -163 27.5t-118 98.5v-559h-213zM342 358q0 -92 68.5 -140t160.5 -50q43 0 83 12.5t71 36 t50.5 59t19.5 82.5v291q0 49 -17.5 85t-48.5 58.5t-72 33t-86 10.5t-86 -13.5t-72.5 -37t-51 -56.5t-19.5 -74v-297z" />
<glyph unicode="q" horiz-adv-x="1044" d="M84 350v307q0 172 98.5 269.5t272.5 97.5q92 0 168.5 -31.5t138.5 -103.5l41 115h158v-1457h-213v568q-43 -76 -126 -104.5t-169 -28.5q-174 0 -271.5 97t-97.5 271zM297 350q0 -43 18.5 -75.5t48 -56t69.5 -36t83 -12.5t84 11.5t73 33t51 56t19 79.5v307q0 43 -19 77 t-52 56.5t-73 35t-83 12.5q-92 0 -155.5 -49.5t-63.5 -137.5v-301z" />
<glyph unicode="r" horiz-adv-x="694" d="M139 0v1004h154l41 -168q14 37 38.5 71.5t57.5 60t71 41t79 15.5q70 0 110 -16l-43 -191q-16 6 -45 10t-57 4q-39 0 -74 -15t-61.5 -43t-42 -65.5t-15.5 -84.5v-623h-213z" />
<glyph unicode="s" horiz-adv-x="929" d="M66 156l108 147q25 -27 60.5 -51.5t76.5 -45t83 -32.5t79 -12t71 4t58.5 16.5t39.5 36t15 60.5q0 43 -24.5 66.5t-62.5 38.5t-83 23.5t-86 20.5q-68 18 -122 41t-91.5 56.5t-59.5 81.5t-22 118q0 78 30 134t81 92t121 53.5t149 17.5q92 0 185.5 -40t165.5 -103l-105 -150 q-49 45 -121.5 77t-138.5 32q-70 0 -110.5 -23.5t-40.5 -89.5q0 -37 23.5 -58.5t59 -33.5t76.5 -20.5t78 -18.5q68 -18 123 -42t95 -57.5t62.5 -79.5t22.5 -108q0 -86 -30.5 -147.5t-85 -100.5t-127 -57t-158.5 -18q-113 0 -215.5 45t-179.5 127z" />
<glyph unicode="t" horiz-adv-x="798" d="M29 852v152h188v296h211v-296h256v-152h-256v-586q0 -41 21.5 -68.5t62.5 -27.5q25 0 60.5 6t69.5 14.5t58.5 15.5t28.5 9l47 -154q-18 -8 -52 -20t-73 -24.5t-79 -20.5t-70 -8q-135 0 -211 59t-76 195v610h-186z" />
<glyph unicode="u" horiz-adv-x="1103" d="M129 348v656h213v-656q0 -88 64.5 -133t152.5 -45q43 0 82 11.5t68.5 35t48 56t18.5 75.5v656h213v-656q0 -88 -34.5 -156.5t-93 -115.5t-136.5 -71.5t-166 -24.5t-167 24.5t-137 71.5t-92 115.5t-34 156.5z" />
<glyph unicode="v" horiz-adv-x="1069" d="M37 1004h227l275 -789l266 789h227l-397 -1004h-201z" />
<glyph unicode="w" horiz-adv-x="1415" d="M37 1004h223l158 -807l180 807h219l193 -799l147 799h221l-258 -1004h-227l-182 721l-176 -721h-236z" />
<glyph unicode="x" horiz-adv-x="983" d="M37 0l336 520l-316 484h226l211 -332l208 332h232l-322 -484l334 -520h-225l-227 367l-228 -367h-229z" />
<glyph unicode="y" horiz-adv-x="970" d="M35 1004h223l231 -783l228 783h223l-383 -1131q-29 -84 -77 -142.5t-109.5 -95t-133 -53t-147.5 -18.5l-24 164q37 0 82 11t85.5 32.5t74.5 52.5t50 72l25 79z" />
<glyph unicode="z" horiz-adv-x="847" d="M76 0v129l430 707h-422v168h655v-109l-428 -717h459v-178h-694z" />
<glyph unicode="{" horiz-adv-x="614" d="M131 600l76 102l-60 357q0 80 19.5 147.5t58.5 126t97.5 112.5t136.5 109l59 -114q-111 -74 -150.5 -174.5t-41.5 -202.5l43 -367l-58 -88l62 -78l-47 -424q4 -117 49 -215t155 -172l-65 -120q-92 66 -152.5 127t-97.5 123.5t-52.5 129t-15.5 140.5l56 401z" />
<glyph unicode="|" horiz-adv-x="452" d="M147 -301v1694h158v-1694h-158z" />
<glyph unicode="}" horiz-adv-x="645" d="M131 -279q127 76 179 180.5t55 204.5l-54 429l66 73l-62 86l50 369q0 47 -13.5 98t-39 101.5t-66.5 96.5t-99 81l64 106q332 -207 332 -487l-64 -357l82 -102l-82 -80l64 -401q0 -145 -82 -273.5t-258 -238.5z" />
<glyph unicode="~" horiz-adv-x="815" d="M102 1288q41 68 89.5 105t113.5 37q35 0 70 -12.5t68.5 -28t65.5 -28.5t58 -13q43 0 64.5 22.5t34.5 44.5l96 -69q-8 -14 -23.5 -40t-37 -50.5t-51 -43t-66.5 -18.5q-39 0 -75 13.5t-71 28.5t-70.5 28.5t-74.5 13.5q-37 0 -61.5 -26.5t-38.5 -45.5z" />
<glyph unicode="&#xa1;" horiz-adv-x="520" d="M164 -412l31 947h186l33 -947h-250zM178 784v220h217v-220h-217z" />
<glyph unicode="&#xa2;" horiz-adv-x="978" d="M84 358v283q0 68 30.5 134.5t81 119.5t117 86t140.5 33h59l43 270l176 -29l-45 -247q55 -14 110.5 -49t96.5 -93l-119 -139q-53 57 -117 85t-125 28q-45 0 -88 -16.5t-74.5 -44t-51 -63.5t-19.5 -75v-283q0 -43 18.5 -78.5t50 -62.5t73.5 -42t91 -15q66 0 131.5 19.5 t112.5 70.5l105 -156q-43 -39 -81 -63.5t-75 -39t-75 -19.5t-81 -5h-19t-26 4l-45 -247l-168 28l43 238q-66 12 -116 51t-84.5 91t-52 111.5t-17.5 114.5z" />
<glyph unicode="&#xa3;" horiz-adv-x="1097" d="M84 598v160h260l-16 205q0 111 44 193.5t122.5 140t188.5 86t241 30.5v-190q-168 0 -273.5 -62.5t-107.5 -191.5l18 -211h309v-160h-290q4 -47 7 -84t5 -57q0 -49 -2 -85t-11.5 -66t-29 -57.5t-51.5 -58.5h516v-190h-920v150q90 6 145.5 29.5t86 59t41 84t10.5 103.5 l-17 172h-276z" />
<glyph unicode="&#xa5;" horiz-adv-x="1363" d="M37 1393h246l395 -574l397 574h252l-496 -699h379v-123h-426v-141h424v-119h-424v-311h-213v311h-401v119h401v141h-403v123h358z" />
<glyph unicode="&#xa6;" horiz-adv-x="344" d="M84 -215v680h176v-680h-176zM84 748v679h176v-679h-176z" />
<glyph unicode="&#xa7;" horiz-adv-x="1163" d="M96 614q0 37 11.5 75t32 73t47 62.5t57.5 39.5q-25 41 -35 93.5t-10 99.5q0 86 32.5 152.5t90 111.5t133 68.5t163.5 23.5q131 0 234.5 -44t169.5 -122l-102 -133q-51 55 -132 89t-165 34q-90 0 -149.5 -48t-59.5 -134q0 -55 31.5 -95t79.5 -71t104.5 -54.5t107.5 -46.5 q74 -31 137.5 -68.5t110.5 -86.5t73.5 -111.5t26.5 -146.5q0 -76 -33.5 -149.5t-111.5 -114.5q25 -37 37 -82t12 -88q0 -94 -32.5 -167t-90 -122t-134.5 -73.5t-167 -24.5q-131 0 -243.5 52t-176.5 144l123 125q18 -29 50 -55.5t71 -47t82 -32.5t82 -12q41 0 81 8t71.5 29.5 t51 60.5t19.5 98q0 55 -40 103.5t-100.5 88.5t-129 71.5t-123.5 54.5q-70 31 -123 64.5t-90 76.5t-55.5 99.5t-18.5 131.5zM307 618q0 -45 19.5 -76.5t52.5 -57t77 -46t95 -43.5q68 -31 129 -60.5t121 -70.5q14 4 28.5 14.5t26.5 25.5t19.5 33t7.5 32q0 45 -19.5 78.5 t-55.5 61.5t-84 51.5t-103 45.5q-66 29 -120.5 56.5t-113.5 68.5q-37 -8 -58.5 -43t-21.5 -70z" />
<glyph unicode="&#xa8;" horiz-adv-x="792" d="M102 1206v199h197v-199h-197zM496 1206v199h194v-199h-194z" />
<glyph unicode="&#xa9;" horiz-adv-x="1613" d="M84 717q0 154 55.5 286t153.5 229t230 153.5t286 56.5q152 0 283 -56.5t228 -154.5t153.5 -230.5t56.5 -283.5q0 -152 -56.5 -284t-153.5 -229.5t-228 -152.5t-283 -55q-154 0 -286 55t-230 152.5t-153.5 228.5t-55.5 285zM219 717q0 -125 45 -232.5t125 -187.5 t188.5 -125t233.5 -45q123 0 230.5 45t186.5 125t124 187.5t45 232.5t-45 232.5t-124 187.5t-186.5 125t-232.5 45t-232.5 -45t-187.5 -125t-125 -187.5t-45 -232.5zM442 653v97q0 72 31 131t83 103t119.5 68.5t143.5 24.5q53 0 95 -7t78 -24.5t69 -44t67 -65.5l-98 -119 q-37 43 -95.5 68.5t-115.5 25.5q-78 0 -134 -45t-56 -116v-97q0 -39 16.5 -68.5t44 -51t64.5 -33t75 -11.5q59 0 119 23t103 63l88 -122q-27 -31 -65 -54.5t-81 -41t-87 -25.5t-85 -8q-78 0 -147.5 23.5t-120.5 66.5t-81 104.5t-30 134.5z" />
<glyph unicode="&#xaa;" horiz-adv-x="706" d="M84 954v136l373 55v22q0 63 -33 86t-90 23q-18 0 -41 -4t-46.5 -11.5t-45 -15.5t-33.5 -14l-51 117q47 25 107.5 43t119.5 18q121 0 196.5 -55.5t75.5 -175.5v-414h-108l-41 76q-29 -37 -78 -58.5t-94 -21.5q-98 0 -154.5 51t-56.5 143zM244 963q0 -29 31.5 -47.5 t66.5 -18.5t72 18.5t37 51.5v73l-207 -28v-49z" />
<glyph unicode="&#xab;" horiz-adv-x="950" d="M84 358l326 371l77 -82l-202 -287l200 -272l-75 -88zM463 358l323 371l78 -82l-200 -287l200 -272l-78 -88z" />
<glyph unicode="&#xac;" horiz-adv-x="917" d="M84 520v164h750v-348h-162v184h-588z" />
<glyph unicode="&#xad;" horiz-adv-x="681" d="M84 504v190h514v-190h-514z" />
<glyph unicode="&#xae;" horiz-adv-x="1613" d="M84 717q0 158 54.5 290t150.5 229t229 151.5t291 54.5q156 0 288 -55.5t228 -151.5t150.5 -229.5t54.5 -288.5q0 -156 -54.5 -289t-150.5 -228.5t-228 -149.5t-288 -54q-158 0 -291 53t-229 149.5t-150.5 228.5t-54.5 290zM219 717q0 -129 44 -236.5t123 -186.5 t187.5 -123t237.5 -44q127 0 233.5 44t185.5 123t123 187.5t44 235.5t-44 234.5t-123 186.5t-186.5 124t-234.5 45t-235.5 -45t-187.5 -124t-123 -186.5t-44 -234.5zM526 332v766h344q104 0 172 -63.5t68 -164.5v-36q0 -76 -42 -125.5t-114 -69.5l193 -307h-174l-185 286 h-106v-286h-156zM680 737h170q41 0 74.5 21.5t33.5 62.5v43q-2 41 -34.5 71t-73.5 30h-170v-228z" />
<glyph unicode="&#xaf;" horiz-adv-x="907" d="M102 1307v114h703v-114h-703z" />
<glyph unicode="&#xb0;" horiz-adv-x="761" d="M84 1108v57q0 57 23.5 102.5t63.5 77t94.5 49t113.5 19.5q59 -2 113.5 -19.5t95.5 -49t65.5 -76.5t24.5 -103v-57q0 -57 -24.5 -102t-65.5 -77t-95.5 -48.5t-113.5 -16.5t-113.5 16.5t-94.5 48.5t-63.5 77t-23.5 102zM254 1094q0 -45 39 -66.5t86 -21.5t89 21.5t42 66.5 v90q0 43 -42 67.5t-89 24.5t-86 -24.5t-39 -67.5v-90z" />
<glyph unicode="&#xb1;" horiz-adv-x="1120" d="M84 0v162h952v-162h-952zM113 623v176h340v323h196v-323h355v-176h-355v-340h-196v340h-340z" />
<glyph unicode="&#xb2;" horiz-adv-x="913" d="M166 719v98q0 104 64.5 164.5t177.5 108.5q25 10 52 20t51 23.5t39 30t15 36.5q0 39 -27.5 52.5t-86.5 13.5q-66 0 -108 -23.5t-81 -58.5l-84 114q39 43 110 78t173 35q133 0 203.5 -49t70.5 -160q0 -82 -47 -124t-117 -72q-35 -14 -70.5 -28.5t-65 -30t-50 -35 t-25.5 -48.5h373v-145h-567z" />
<glyph unicode="&#xb3;" horiz-adv-x="733" d="M78 825l112 72q23 -47 75 -73.5t112 -26.5q25 0 50.5 4t46 12t33.5 21.5t13 33.5v25q0 23 -12 40t-32.5 28.5t-45 17.5t-47.5 6h-135v129h127q23 0 46 3t42.5 12.5t33 23.5t13.5 39v16q0 23 -11.5 37.5t-29.5 23.5t-39.5 12t-42.5 3q-66 0 -118 -22.5t-74 -61.5l-95 84 q18 33 48 58.5t69 44t81 27.5t85 9q61 0 115.5 -8t94.5 -29.5t62.5 -61.5t22.5 -101v-19q0 -33 -12.5 -58.5t-32 -45t-44 -32.5t-46.5 -19q25 -8 49 -21.5t45.5 -33t35 -45t13.5 -56.5v-31q0 -61 -24.5 -100t-66.5 -61.5t-96.5 -32t-115.5 -9.5q-100 0 -185 39t-120 127z " />
<glyph unicode="&#xb4;" horiz-adv-x="550" d="M102 1167l207 320l140 -101l-232 -284z" />
<glyph unicode="&#xb6;" horiz-adv-x="1097" d="M84 1040v52q0 66 23.5 120t64.5 94t99.5 62.5t127.5 24.5h551v-1393h-143v1272h-166v-1272h-154v758h-88q-137 0 -226 73.5t-89 208.5z" />
<glyph unicode="&#xb7;" horiz-adv-x="407" d="M117 408v252h243v-252h-243z" />
<glyph unicode="&#xb8;" horiz-adv-x="526" d="M104 -195l39 195h152l-27 -119q14 -6 40 -17t51.5 -35t45 -58.5t19.5 -85.5q0 -86 -70.5 -144.5t-185.5 -95.5l-64 113q10 6 34 16t47.5 25.5t41 36t17.5 45.5q0 57 -40 84.5t-100 39.5z" />
<glyph unicode="&#xb9;" horiz-adv-x="555" d="M53 1210v183h385v-693h-176v510h-209z" />
<glyph unicode="&#xba;" horiz-adv-x="761" d="M84 1022v143q0 55 24.5 101.5t64.5 78t94.5 49t111.5 17.5q59 0 112.5 -17.5t95.5 -49t66.5 -77.5t24.5 -102v-143q0 -57 -24.5 -102.5t-66.5 -77t-95.5 -48t-112.5 -16.5q-57 0 -111.5 16.5t-94.5 48t-64.5 77t-24.5 102.5zM260 1038q2 -117 123 -116q43 0 82 20.5 t39 61.5v174q0 41 -39 62.5t-82 21.5q-47 0 -85 -24t-38 -64v-136z" />
<glyph unicode="&#xbb;" horiz-adv-x="937" d="M63 647l78 82l326 -371l-326 -358l-75 88l200 272zM442 647l78 82l326 -371l-326 -358l-76 88l201 272z" />
<glyph unicode="&#xbc;" horiz-adv-x="1409" d="M53 1210v183h385v-693h-176v510h-209zM84 0l957 1393h180l-946 -1393h-191zM661 177v94l322 463h233v-424h144v-133h-144v-174h-166v174h-389zM850 310h200v293h-16z" />
<glyph unicode="&#xbd;" horiz-adv-x="1335" d="M49 0l957 1393h180l-946 -1393h-191zM53 1210v183h385v-693h-176v510h-209zM729 4v98q0 104 64.5 164.5t177.5 108.5q25 10 52 20t51 23.5t39 30t15 36.5q0 39 -27.5 52.5t-86.5 13.5q-66 0 -108 -23.5t-81 -58.5l-84 114q39 43 110 78t173 35q133 0 203.5 -49t70.5 -160 q0 -82 -47 -124t-117 -72q-35 -14 -70.5 -28.5t-65 -30t-50 -35t-25.5 -48.5h373v-145h-567z" />
<glyph unicode="&#xbe;" horiz-adv-x="1531" d="M43 825l112 72q23 -47 75 -73.5t112 -26.5q25 0 50.5 4t46 12t33.5 21.5t13 33.5v25q0 23 -12 40t-32.5 28.5t-45 17.5t-47.5 6h-135v129h127q23 0 46 3t42.5 12.5t33 23.5t13.5 39v16q0 23 -11.5 37.5t-29.5 23.5t-39.5 12t-42.5 3q-66 0 -118 -22.5t-74 -61.5l-95 84 q18 33 48 58.5t69 44t81 27.5t85 9q61 0 115.5 -8t94.5 -29.5t62.5 -61.5t22.5 -101v-19q0 -33 -12.5 -58.5t-32 -45t-44 -32.5t-46.5 -19q25 -8 49 -21.5t45.5 -33t35 -45t13.5 -56.5v-31q0 -61 -24.5 -100t-66.5 -61.5t-96.5 -32t-115.5 -9.5q-100 0 -185 39t-120 127z M241 0l957 1393h180l-946 -1393h-191zM803 174v94l322 463h233v-424h144v-133h-144v-174h-166v174h-389zM992 307h200v293h-16z" />
<glyph unicode="&#xbf;" horiz-adv-x="839" d="M78 -29q0 74 38 122t97 97q33 29 61.5 56.5t49 59.5t33 69t12.5 82v96h202v-131q0 -102 -45 -176t-118 -142q-41 -39 -79 -73.5t-38 -87.5v-66q0 -35 14 -60.5t38 -42t51.5 -24.5t51.5 -8q61 0 126 29.5t135 81.5l86 -152q-72 -63 -154 -103t-184 -40q-178 0 -277.5 74.5 t-99.5 244.5v94zM338 752v252h258v-252h-258z" />
<glyph unicode="&#xc0;" d="M41 0l481 1405h254l465 -1405h-223l-119 369h-510l-119 -369h-229zM409 1819l146 100l198 -313l-110 -78zM446 543h398l-199 631z" />
<glyph unicode="&#xc1;" d="M41 0l481 1405h254l465 -1405h-223l-119 369h-510l-119 -369h-229zM446 543h398l-199 631zM528 1597l207 320l140 -101l-232 -284z" />
<glyph unicode="&#xc2;" d="M41 0l481 1405h254l465 -1405h-223l-119 369h-510l-119 -369h-229zM381 1624l260 186l263 -190l-80 -101l-180 115l-183 -115zM446 543h398l-199 631z" />
<glyph unicode="&#xc3;" d="M41 0l481 1405h254l465 -1405h-223l-119 369h-510l-119 -369h-229zM311 1636q41 68 89.5 105t113.5 37q35 0 70 -12.5t68.5 -28t65.5 -28.5t58 -13q43 0 64.5 22.5t34.5 44.5l96 -69q-8 -14 -23.5 -40t-37 -50.5t-51 -43t-66.5 -18.5q-39 0 -75 13.5t-71 28.5t-70.5 28.5 t-74.5 13.5q-37 0 -61.5 -26.5t-38.5 -45.5zM446 543h398l-199 631z" />
<glyph unicode="&#xc4;" d="M41 0l481 1405h254l465 -1405h-223l-119 369h-510l-119 -369h-229zM346 1552v199h197v-199h-197zM446 543h398l-199 631zM740 1552v199h194v-199h-194z" />
<glyph unicode="&#xc5;" d="M41 0l481 1405h254l465 -1405h-223l-119 369h-510l-119 -369h-229zM446 543h398l-199 631zM481 1691q0 68 47.5 113t112.5 45q66 0 114 -45t48 -113q0 -66 -48 -112.5t-114 -46.5q-33 0 -61.5 12t-50 33.5t-35 51.5t-13.5 62zM565 1691q0 -35 21.5 -56t54.5 -21 q35 0 57.5 21.5t22.5 55.5q0 33 -22.5 57.5t-57.5 24.5q-33 0 -54.5 -24.5t-21.5 -57.5z" />
<glyph unicode="&#xc6;" horiz-adv-x="1880" d="M37 0l852 1393h876v-191h-555v-391h469v-176h-467v-445h598v-190h-811v350h-499l-217 -350h-246zM592 524h407v688z" />
<glyph unicode="&#xc7;" horiz-adv-x="1101" d="M100 426v541q0 104 41 187t112 140.5t165 88t200 30.5q80 0 143.5 -11t116 -35t99.5 -58.5t92 -83.5l-119 -146q-66 63 -147 103.5t-185 40.5q-61 0 -117.5 -17.5t-97.5 -50.5t-65.5 -80t-24.5 -108v-541q0 -66 23.5 -114t64.5 -79.5t97.5 -47t122.5 -15.5 q104 0 196 28.5t162 90.5l94 -158q-98 -88 -208.5 -119.5t-243.5 -31.5q-111 0 -206.5 28.5t-165 83.5t-109.5 139t-40 195zM495 -195l39 195h152l-27 -119q14 -6 40 -17t51.5 -35t45 -58.5t19.5 -85.5q0 -86 -70.5 -144.5t-185.5 -95.5l-64 113q10 6 34 16t47.5 25.5t41 36 t17.5 45.5q0 57 -40 84.5t-100 39.5z" />
<glyph unicode="&#xc8;" horiz-adv-x="1036" d="M147 0v1393h760v-191h-547v-393h461v-184h-461v-435h592v-190h-805zM315 1803l146 100l198 -313l-110 -78z" />
<glyph unicode="&#xc9;" horiz-adv-x="1036" d="M147 0v1393h760v-191h-547v-393h461v-184h-461v-435h592v-190h-805zM434 1597l207 320l140 -101l-232 -284z" />
<glyph unicode="&#xca;" horiz-adv-x="1036" d="M147 0v1393h760v-191h-547v-393h461v-184h-461v-435h592v-190h-805zM286 1624l260 186l263 -190l-80 -101l-180 115l-183 -115z" />
<glyph unicode="&#xcb;" horiz-adv-x="1036" d="M147 0v1393h760v-191h-547v-393h461v-184h-461v-435h592v-190h-805zM256 1552v199h197v-199h-197zM650 1552v199h194v-199h-194z" />
<glyph unicode="&#xcc;" horiz-adv-x="638" d="M94 1823l146 100l198 -313l-110 -78zM217 0v1393h213v-1393h-213z" />
<glyph unicode="&#xcd;" horiz-adv-x="638" d="M208 1597l207 320l140 -101l-232 -284zM215 0v1393h213v-1393h-213z" />
<glyph unicode="&#xce;" horiz-adv-x="638" d="M73 1626l260 186l263 -190l-80 -101l-180 115l-183 -115zM225 0v1393h213v-1393h-213z" />
<glyph unicode="&#xcf;" horiz-adv-x="638" d="M34 1548v199h197v-199h-197zM219 0v1393h213v-1393h-213zM428 1548v199h194v-199h-194z" />
<glyph unicode="&#xd0;" horiz-adv-x="1351" d="M41 635v162h250v626h432q104 0 201.5 -29.5t174.5 -86t123 -136t46 -178.5v-549q0 -109 -43 -191.5t-118 -139t-174 -85t-212 -28.5h-430v635h-250zM504 188h217q68 0 128 16.5t106 48.5t73 80t27 111v549q0 55 -30 99.5t-78 75t-106.5 48t-117.5 17.5h-217v-436h295 v-162h-297v-447z" />
<glyph unicode="&#xd1;" horiz-adv-x="1423" d="M147 0v1393h279l659 -1164v1164h191v-1393h-293l-645 1143v-1143h-191zM381 1616q41 68 89.5 105t113.5 37q35 0 70 -12.5t68.5 -28t65.5 -28.5t58 -13q43 0 64.5 22.5t34.5 44.5l96 -69q-8 -14 -23.5 -40t-37 -50.5t-51 -43t-66.5 -18.5q-39 0 -75 13.5t-71 28.5 t-70.5 28.5t-74.5 13.5q-37 0 -61.5 -26.5t-38.5 -45.5z" />
<glyph unicode="&#xd2;" horiz-adv-x="1318" d="M100 426v541q0 106 45 189t121 140.5t173.5 87t203.5 29.5h33q104 0 202.5 -30.5t173 -88t121 -140.5t46.5 -187v-541q0 -109 -44.5 -192.5t-119 -140t-173 -85t-206.5 -28.5h-31q-111 0 -210 28.5t-173 83.5t-118 139t-44 195zM313 426q0 -66 28 -114t74 -79.5 t105.5 -47t124.5 -15.5h31q66 0 125 15.5t104 48t73 80.5t28 112v541q0 61 -29 108t-76 80t-105.5 50.5t-119.5 17.5h-33q-61 0 -120.5 -17.5t-105.5 -50.5t-75 -80t-29 -108v-541zM426 1823l146 100l198 -313l-110 -78z" />
<glyph unicode="&#xd3;" horiz-adv-x="1318" d="M100 426v541q0 106 45 189t121 140.5t173.5 87t203.5 29.5h33q104 0 202.5 -30.5t173 -88t121 -140.5t46.5 -187v-541q0 -109 -44.5 -192.5t-119 -140t-173 -85t-206.5 -28.5h-31q-111 0 -210 28.5t-173 83.5t-118 139t-44 195zM313 426q0 -66 28 -114t74 -79.5 t105.5 -47t124.5 -15.5h31q66 0 125 15.5t104 48t73 80.5t28 112v541q0 61 -29 108t-76 80t-105.5 50.5t-119.5 17.5h-33q-61 0 -120.5 -17.5t-105.5 -50.5t-75 -80t-29 -108v-541zM544 1597l207 320l140 -101l-232 -284z" />
<glyph unicode="&#xd4;" horiz-adv-x="1318" d="M100 426v541q0 106 45 189t121 140.5t173.5 87t203.5 29.5h33q104 0 202.5 -30.5t173 -88t121 -140.5t46.5 -187v-541q0 -109 -44.5 -192.5t-119 -140t-173 -85t-206.5 -28.5h-31q-111 0 -210 28.5t-173 83.5t-118 139t-44 195zM313 426q0 -66 28 -114t74 -79.5 t105.5 -47t124.5 -15.5h31q66 0 125 15.5t104 48t73 80.5t28 112v541q0 61 -29 108t-76 80t-105.5 50.5t-119.5 17.5h-33q-61 0 -120.5 -17.5t-105.5 -50.5t-75 -80t-29 -108v-541zM397 1645l260 186l263 -190l-80 -101l-180 115l-183 -115z" />
<glyph unicode="&#xd5;" horiz-adv-x="1318" d="M100 426v541q0 106 45 189t121 140.5t173.5 87t203.5 29.5h33q104 0 202.5 -30.5t173 -88t121 -140.5t46.5 -187v-541q0 -109 -44.5 -192.5t-119 -140t-173 -85t-206.5 -28.5h-31q-111 0 -210 28.5t-173 83.5t-118 139t-44 195zM313 426q0 -66 28 -114t74 -79.5 t105.5 -47t124.5 -15.5h31q66 0 125 15.5t104 48t73 80.5t28 112v541q0 61 -29 108t-76 80t-105.5 50.5t-119.5 17.5h-33q-61 0 -120.5 -17.5t-105.5 -50.5t-75 -80t-29 -108v-541zM329 1636q41 68 89.5 105t113.5 37q35 0 70 -12.5t68.5 -28t65.5 -28.5t58 -13 q43 0 64.5 22.5t34.5 44.5l96 -69q-8 -14 -23.5 -40t-37 -50.5t-51 -43t-66.5 -18.5q-39 0 -75 13.5t-71 28.5t-70.5 28.5t-74.5 13.5q-37 0 -61.5 -26.5t-38.5 -45.5z" />
<glyph unicode="&#xd6;" horiz-adv-x="1318" d="M100 426v541q0 106 45 189t121 140.5t173.5 87t203.5 29.5h33q104 0 202.5 -30.5t173 -88t121 -140.5t46.5 -187v-541q0 -109 -44.5 -192.5t-119 -140t-173 -85t-206.5 -28.5h-31q-111 0 -210 28.5t-173 83.5t-118 139t-44 195zM313 426q0 -66 28 -114t74 -79.5 t105.5 -47t124.5 -15.5h31q66 0 125 15.5t104 48t73 80.5t28 112v541q0 61 -29 108t-76 80t-105.5 50.5t-119.5 17.5h-33q-61 0 -120.5 -17.5t-105.5 -50.5t-75 -80t-29 -108v-541zM364 1552v199h197v-199h-197zM758 1552v199h194v-199h-194z" />
<glyph unicode="&#xd7;" horiz-adv-x="1171" d="M84 0l405 512l-387 492h185l299 -371l297 371h186l-385 -492l403 -512h-198l-303 389l-303 -389h-199z" />
<glyph unicode="&#xd8;" horiz-adv-x="1253" d="M100 426v541q0 106 45 189t121 140.5t173.5 87t203.5 29.5h33q123 0 229 -41l92 191h154l-121 -254q86 -59 137.5 -145.5t51.5 -196.5v-541q0 -109 -44.5 -192.5t-119 -140t-173 -85t-206.5 -28.5h-31q-119 0 -229 34l-74 -161h-164l107 223q-86 55 -135.5 142t-49.5 208 zM313 426q0 -100 68 -158l438 928q-35 12 -70.5 19.5t-72.5 7.5h-33q-61 0 -120.5 -17.5t-105.5 -50.5t-75 -80t-29 -108v-541zM502 190q35 -10 70.5 -15t72.5 -5h31q66 0 125 15.5t104 48t73 80.5t28 112v541q0 45 -19.5 81.5t-48.5 65.5z" />
<glyph unicode="&#xd9;" horiz-adv-x="1382" d="M147 438v955h213v-955q0 -70 27 -120t72 -82.5t105.5 -49t127.5 -16.5q66 0 126.5 16.5t105.5 50t71.5 84t26.5 117.5v955h213v-955q0 -115 -42 -200.5t-115.5 -143t-172 -86t-211.5 -28.5q-115 0 -215 28.5t-174 86t-116 143.5t-42 200zM458 1762l146 100l198 -313 l-110 -78z" />
<glyph unicode="&#xda;" horiz-adv-x="1382" d="M147 438v955h213v-955q0 -70 27 -120t72 -82.5t105.5 -49t127.5 -16.5q66 0 126.5 16.5t105.5 50t71.5 84t26.5 117.5v955h213v-955q0 -115 -42 -200.5t-115.5 -143t-172 -86t-211.5 -28.5q-115 0 -215 28.5t-174 86t-116 143.5t-42 200zM577 1536l207 320l140 -101 l-232 -284z" />
<glyph unicode="&#xdb;" horiz-adv-x="1382" d="M147 438v955h213v-955q0 -70 27 -120t72 -82.5t105.5 -49t127.5 -16.5q66 0 126.5 16.5t105.5 50t71.5 84t26.5 117.5v955h213v-955q0 -115 -42 -200.5t-115.5 -143t-172 -86t-211.5 -28.5q-115 0 -215 28.5t-174 86t-116 143.5t-42 200zM430 1630l260 186l263 -190 l-80 -101l-180 115l-183 -115z" />
<glyph unicode="&#xdc;" horiz-adv-x="1382" d="M147 438v955h213v-955q0 -70 27 -120t72 -82.5t105.5 -49t127.5 -16.5q66 0 126.5 16.5t105.5 50t71.5 84t26.5 117.5v955h213v-955q0 -115 -42 -200.5t-115.5 -143t-172 -86t-211.5 -28.5q-115 0 -215 28.5t-174 86t-116 143.5t-42 200zM395 1554v199h197v-199h-197z M789 1554v199h194v-199h-194z" />
<glyph unicode="&#xdd;" horiz-adv-x="1308" d="M37 1393h246l360 -650l367 650h245l-505 -840v-553h-213v555zM532 1538l207 320l140 -101l-232 -284z" />
<glyph unicode="&#xde;" horiz-adv-x="1032" d="M84 0v1393h213v-271h256q90 0 162.5 -26.5t124 -75.5t80 -120t28.5 -159v-36q0 -178 -106.5 -268.5t-288.5 -90.5h-256v-346h-213zM297 535h246q80 0 136 46t56 124v36q0 39 -14 75t-40 62.5t-61.5 42t-78.5 15.5h-244v-401z" />
<glyph unicode="&#xe0;" horiz-adv-x="1015" d="M84 309v205l602 104v46q0 96 -49 137t-145 41q-37 0 -80 -9.5t-84 -23.5t-78 -30.5t-62 -30.5l-67 143q37 25 84 48.5t100 42.5t108.5 30.5t104.5 11.5q178 0 279.5 -90t101.5 -270v-664h-172l-33 133q-51 -90 -125.5 -119.5t-171.5 -29.5q-152 0 -232.5 88t-80.5 237z M258 1416l146 100l198 -313l-110 -78zM297 319q0 -72 42 -111.5t114 -39.5q37 0 76.5 10t73.5 30.5t55.5 49.5t21.5 68v145l-383 -65v-87z" />
<glyph unicode="&#xe1;" horiz-adv-x="1015" d="M84 309v205l602 104v46q0 96 -49 137t-145 41q-37 0 -80 -9.5t-84 -23.5t-78 -30.5t-62 -30.5l-67 143q37 25 84 48.5t100 42.5t108.5 30.5t104.5 11.5q178 0 279.5 -90t101.5 -270v-664h-172l-33 133q-51 -90 -125.5 -119.5t-171.5 -29.5q-152 0 -232.5 88t-80.5 237z M297 319q0 -72 42 -111.5t114 -39.5q37 0 76.5 10t73.5 30.5t55.5 49.5t21.5 68v145l-383 -65v-87zM376 1187l207 320l140 -101l-232 -284z" />
<glyph unicode="&#xe2;" horiz-adv-x="1015" d="M84 309v205l602 104v46q0 96 -49 137t-145 41q-37 0 -80 -9.5t-84 -23.5t-78 -30.5t-62 -30.5l-67 143q37 25 84 48.5t100 42.5t108.5 30.5t104.5 11.5q178 0 279.5 -90t101.5 -270v-664h-172l-33 133q-51 -90 -125.5 -119.5t-171.5 -29.5q-152 0 -232.5 88t-80.5 237z M229 1260l260 186l263 -190l-80 -101l-180 115l-183 -115zM297 319q0 -72 42 -111.5t114 -39.5q37 0 76.5 10t73.5 30.5t55.5 49.5t21.5 68v145l-383 -65v-87z" />
<glyph unicode="&#xe3;" horiz-adv-x="1015" d="M84 309v205l602 104v46q0 96 -49 137t-145 41q-37 0 -80 -9.5t-84 -23.5t-78 -30.5t-62 -30.5l-67 143q37 25 84 48.5t100 42.5t108.5 30.5t104.5 11.5q178 0 279.5 -90t101.5 -270v-664h-172l-33 133q-51 -90 -125.5 -119.5t-171.5 -29.5q-152 0 -232.5 88t-80.5 237z M161 1288q41 68 89.5 105t113.5 37q35 0 70 -12.5t68.5 -28t65.5 -28.5t58 -13q43 0 64.5 22.5t34.5 44.5l96 -69q-8 -14 -23.5 -40t-37 -50.5t-51 -43t-66.5 -18.5q-39 0 -75 13.5t-71 28.5t-70.5 28.5t-74.5 13.5q-37 0 -61.5 -26.5t-38.5 -45.5zM297 319q0 -72 42 -111.5 t114 -39.5q37 0 76.5 10t73.5 30.5t55.5 49.5t21.5 68v145l-383 -65v-87z" />
<glyph unicode="&#xe4;" horiz-adv-x="1015" d="M84 309v205l602 104v46q0 96 -49 137t-145 41q-37 0 -80 -9.5t-84 -23.5t-78 -30.5t-62 -30.5l-67 143q37 25 84 48.5t100 42.5t108.5 30.5t104.5 11.5q178 0 279.5 -90t101.5 -270v-664h-172l-33 133q-51 -90 -125.5 -119.5t-171.5 -29.5q-152 0 -232.5 88t-80.5 237z M196 1188v199h197v-199h-197zM297 319q0 -72 42 -111.5t114 -39.5q37 0 76.5 10t73.5 30.5t55.5 49.5t21.5 68v145l-383 -65v-87zM590 1188v199h194v-199h-194z" />
<glyph unicode="&#xe5;" horiz-adv-x="1015" d="M84 309v205l602 104v46q0 96 -49 137t-145 41q-37 0 -80 -9.5t-84 -23.5t-78 -30.5t-62 -30.5l-67 143q37 25 84 48.5t100 42.5t108.5 30.5t104.5 11.5q178 0 279.5 -90t101.5 -270v-664h-172l-33 133q-51 -90 -125.5 -119.5t-171.5 -29.5q-152 0 -232.5 88t-80.5 237z M297 319q0 -72 42 -111.5t114 -39.5q37 0 76.5 10t73.5 30.5t55.5 49.5t21.5 68v145l-383 -65v-87zM329 1300q0 68 47.5 113t112.5 45q66 0 114 -45t48 -113q0 -66 -48 -112.5t-114 -46.5q-33 0 -61.5 12t-50 33.5t-35 51.5t-13.5 62zM413 1300q0 -35 21.5 -56t54.5 -21 q35 0 57.5 21.5t22.5 55.5q0 33 -22.5 57.5t-57.5 24.5q-33 0 -54.5 -24.5t-21.5 -57.5z" />
<glyph unicode="&#xe6;" horiz-adv-x="1634" d="M84 311v176l602 97v82q0 94 -49 135t-143 41q-35 0 -78 -9.5t-86 -23.5t-80 -30.5t-62 -30.5l-65 145q35 25 80 48.5t95 41.5t102.5 29.5t101.5 11.5q113 0 184.5 -38t108.5 -97q51 66 132 101.5t185 35.5q84 0 159 -26.5t130 -74.5t88 -116t33 -152v-133l-631 -86v-73 q0 -49 23.5 -86t61.5 -61.5t85 -38t96 -13.5q43 0 87 11t84 27.5t74 37t54 39.5l94 -140q-174 -158 -405 -157q-141 0 -244.5 45t-157.5 143q-51 -98 -139 -142t-192 -44q-150 0 -239 87t-89 238zM297 322q0 -72 42 -112t114 -40q37 0 77.5 8t76.5 26.5t58.5 46.5t22.5 66 v121l-391 -59v-57zM891 586l409 53v33q0 86 -53 126t-139 40q-43 0 -82 -12.5t-69.5 -36t-48 -57.5t-17.5 -75v-71z" />
<glyph unicode="&#xe7;" horiz-adv-x="940" d="M84 348v307q0 86 31.5 155t88 117t132.5 72.5t164 24.5q66 0 117 -9t94 -27.5t80.5 -46.5t76.5 -64l-110 -152q-53 51 -119.5 80t-138.5 29q-88 0 -145.5 -46.5t-57.5 -132.5v-307q0 -94 61.5 -136t155.5 -42q74 0 138.5 22.5t127.5 73.5l84 -160q-80 -76 -169 -101 t-193 -25q-92 0 -169 22.5t-132.5 68.5t-86 115.5t-30.5 161.5zM378 -166l39 195h152l-27 -119q14 -6 40 -17t51.5 -35t45 -58.5t19.5 -85.5q0 -86 -70.5 -144.5t-185.5 -95.5l-64 113q10 6 34 16t47.5 25.5t41 36t17.5 45.5q0 57 -40 84.5t-100 39.5z" />
<glyph unicode="&#xe8;" horiz-adv-x="1024" d="M84 362v300q0 86 34 153.5t92 113.5t138 70.5t170 24.5q84 0 159 -25.5t130 -71.5t87 -111.5t32 -147.5v-160l-629 -92v-54q0 -47 23.5 -82.5t61.5 -60t85 -37t96 -12.5q88 0 171 31.5t128 72.5l94 -151q-86 -78 -188 -110.5t-217 -32.5q-98 0 -183 22.5t-147.5 70.5 t-99.5 119.5t-37 169.5zM286 1393l146 100l198 -313l-110 -78zM297 563l410 58v57q0 80 -53.5 119t-139.5 39q-43 0 -82 -12.5t-69.5 -35t-48 -54.5t-17.5 -72v-99z" />
<glyph unicode="&#xe9;" horiz-adv-x="1024" d="M84 362v300q0 86 34 153.5t92 113.5t138 70.5t170 24.5q84 0 159 -25.5t130 -71.5t87 -111.5t32 -147.5v-160l-629 -92v-54q0 -47 23.5 -82.5t61.5 -60t85 -37t96 -12.5q88 0 171 31.5t128 72.5l94 -151q-86 -78 -188 -110.5t-217 -32.5q-98 0 -183 22.5t-147.5 70.5 t-99.5 119.5t-37 169.5zM297 563l410 58v57q0 80 -53.5 119t-139.5 39q-43 0 -82 -12.5t-69.5 -35t-48 -54.5t-17.5 -72v-99zM405 1187l207 320l140 -101l-232 -284z" />
<glyph unicode="&#xea;" horiz-adv-x="1024" d="M84 362v300q0 86 34 153.5t92 113.5t138 70.5t170 24.5q84 0 159 -25.5t130 -71.5t87 -111.5t32 -147.5v-160l-629 -92v-54q0 -47 23.5 -82.5t61.5 -60t85 -37t96 -12.5q88 0 171 31.5t128 72.5l94 -151q-86 -78 -188 -110.5t-217 -32.5q-98 0 -183 22.5t-147.5 70.5 t-99.5 119.5t-37 169.5zM258 1258l260 186l263 -190l-80 -101l-180 115l-183 -115zM297 563l410 58v57q0 80 -53.5 119t-139.5 39q-43 0 -82 -12.5t-69.5 -35t-48 -54.5t-17.5 -72v-99z" />
<glyph unicode="&#xeb;" horiz-adv-x="1024" d="M84 362v300q0 86 34 153.5t92 113.5t138 70.5t170 24.5q84 0 159 -25.5t130 -71.5t87 -111.5t32 -147.5v-160l-629 -92v-54q0 -47 23.5 -82.5t61.5 -60t85 -37t96 -12.5q88 0 171 31.5t128 72.5l94 -151q-86 -78 -188 -110.5t-217 -32.5q-98 0 -183 22.5t-147.5 70.5 t-99.5 119.5t-37 169.5zM227 1171v199h197v-199h-197zM297 563l410 58v57q0 80 -53.5 119t-139.5 39q-43 0 -82 -12.5t-69.5 -35t-48 -54.5t-17.5 -72v-99zM621 1171v199h194v-199h-194z" />
<glyph unicode="&#xec;" horiz-adv-x="522" d="M45 1413l146 100l198 -313l-110 -78zM170 0v1004h213v-1004h-213z" />
<glyph unicode="&#xed;" horiz-adv-x="522" d="M161 1187l207 320l140 -101l-232 -284zM170 0v1004h213v-1004h-213z" />
<glyph unicode="&#xee;" horiz-adv-x="522" d="M14 1276l260 186l263 -190l-80 -101l-180 115l-183 -115zM170 0v1004h213v-1004h-213z" />
<glyph unicode="&#xef;" horiz-adv-x="522" d="M-25 1188v199h197v-199h-197zM159 0v1004h213v-1004h-213zM369 1188v199h194v-199h-194z" />
<glyph unicode="&#xf0;" horiz-adv-x="1046" d="M84 350v242q0 78 24.5 144.5t69.5 115.5t110.5 77.5t145.5 28.5q33 0 71 -5t74.5 -15t69.5 -26.5t58 -39.5q-25 86 -80.5 160t-120.5 139l-287 -129l-61 123l219 101q-51 33 -93 52t-102 36l56 186q102 -29 189 -71t171 -103l268 121l66 -125l-221 -98 q111 -117 177 -258.5t66 -309.5v-346q0 -84 -33.5 -152.5t-94 -116.5t-140.5 -74.5t-172 -26.5q-88 0 -167 25.5t-137 73.5t-92 116.5t-34 154.5zM297 350q0 -41 18.5 -73.5t48 -56t69.5 -37t83 -13.5t84 13.5t71.5 36t50 56t19.5 72.5v232q0 90 -68.5 138t-162.5 48 q-43 0 -82 -12.5t-67.5 -36t-46 -55t-17.5 -70.5v-242z" />
<glyph unicode="&#xf1;" horiz-adv-x="1120" d="M131 0v1004h186l27 -160q59 84 134 132t179 48q178 0 261 -94t83 -273v-657h-213v625q0 92 -47 151.5t-139 59.5q-47 0 -93 -18.5t-83 -50.5t-59.5 -73t-22.5 -88v-606h-213zM237 1288q41 68 89.5 105t113.5 37q35 0 70 -12.5t68.5 -28t65.5 -28.5t58 -13q43 0 64.5 22.5 t34.5 44.5l96 -69q-8 -14 -23.5 -40t-37 -50.5t-51 -43t-66.5 -18.5q-39 0 -75 13.5t-71 28.5t-70.5 28.5t-74.5 13.5q-37 0 -61.5 -26.5t-38.5 -45.5z" />
<glyph unicode="&#xf2;" horiz-adv-x="1038" d="M84 352v303q0 86 34 155t93 117t139 72.5t174 24.5q197 0 313.5 -97.5t116.5 -271.5v-303q0 -88 -34.5 -157.5t-94 -116.5t-138.5 -72.5t-165 -25.5q-88 0 -168 25.5t-139 72.5t-95 116.5t-36 157.5zM286 1393l146 100l198 -313l-110 -78zM297 352q0 -45 18.5 -78.5 t49 -56t71.5 -34t86 -11.5q43 0 83 11.5t70 34t48 56t18 78.5v303q0 43 -18 76t-48 56.5t-69 35t-82 11.5t-84 -11.5t-72.5 -35t-51 -56.5t-19.5 -76v-303z" />
<glyph unicode="&#xf3;" horiz-adv-x="1038" d="M84 352v303q0 86 34 155t93 117t139 72.5t174 24.5q197 0 313.5 -97.5t116.5 -271.5v-303q0 -88 -34.5 -157.5t-94 -116.5t-138.5 -72.5t-165 -25.5q-88 0 -168 25.5t-139 72.5t-95 116.5t-36 157.5zM297 352q0 -45 18.5 -78.5t49 -56t71.5 -34t86 -11.5q43 0 83 11.5 t70 34t48 56t18 78.5v303q0 43 -18 76t-48 56.5t-69 35t-82 11.5t-84 -11.5t-72.5 -35t-51 -56.5t-19.5 -76v-303zM405 1187l207 320l140 -101l-232 -284z" />
<glyph unicode="&#xf4;" horiz-adv-x="1038" d="M84 352v303q0 86 34 155t93 117t139 72.5t174 24.5q197 0 313.5 -97.5t116.5 -271.5v-303q0 -88 -34.5 -157.5t-94 -116.5t-138.5 -72.5t-165 -25.5q-88 0 -168 25.5t-139 72.5t-95 116.5t-36 157.5zM258 1258l260 186l263 -190l-80 -101l-180 115l-183 -115zM297 352 q0 -45 18.5 -78.5t49 -56t71.5 -34t86 -11.5q43 0 83 11.5t70 34t48 56t18 78.5v303q0 43 -18 76t-48 56.5t-69 35t-82 11.5t-84 -11.5t-72.5 -35t-51 -56.5t-19.5 -76v-303z" />
<glyph unicode="&#xf5;" horiz-adv-x="1038" d="M84 352v303q0 86 34 155t93 117t139 72.5t174 24.5q197 0 313.5 -97.5t116.5 -271.5v-303q0 -88 -34.5 -157.5t-94 -116.5t-138.5 -72.5t-165 -25.5q-88 0 -168 25.5t-139 72.5t-95 116.5t-36 157.5zM188 1249q41 68 89.5 105t113.5 37q35 0 70 -12.5t68.5 -28 t65.5 -28.5t58 -13q43 0 64.5 22.5t34.5 44.5l96 -69q-8 -14 -23.5 -40t-37 -50.5t-51 -43t-66.5 -18.5q-39 0 -75 13.5t-71 28.5t-70.5 28.5t-74.5 13.5q-37 0 -61.5 -26.5t-38.5 -45.5zM297 352q0 -45 18.5 -78.5t49 -56t71.5 -34t86 -11.5q43 0 83 11.5t70 34t48 56 t18 78.5v303q0 43 -18 76t-48 56.5t-69 35t-82 11.5t-84 -11.5t-72.5 -35t-51 -56.5t-19.5 -76v-303z" />
<glyph unicode="&#xf6;" horiz-adv-x="1038" d="M84 352v303q0 86 34 155t93 117t139 72.5t174 24.5q197 0 313.5 -97.5t116.5 -271.5v-303q0 -88 -34.5 -157.5t-94 -116.5t-138.5 -72.5t-165 -25.5q-88 0 -168 25.5t-139 72.5t-95 116.5t-36 157.5zM223 1167v199h197v-199h-197zM297 352q0 -45 18.5 -78.5t49 -56 t71.5 -34t86 -11.5q43 0 83 11.5t70 34t48 56t18 78.5v303q0 43 -18 76t-48 56.5t-69 35t-82 11.5t-84 -11.5t-72.5 -35t-51 -56.5t-19.5 -76v-303zM617 1167v199h194v-199h-194z" />
<glyph unicode="&#xf7;" horiz-adv-x="1372" d="M84 485v162h1204v-162h-1204zM565 117v241h254v-241h-254zM565 766v244h254v-244h-254z" />
<glyph unicode="&#xf8;" horiz-adv-x="1017" d="M84 352v303q0 86 34 155t93 117t139 72.5t174 24.5q117 0 213 -39l68 119h129l-100 -176q121 -98 120 -273v-303q0 -88 -34.5 -157.5t-94 -116.5t-138.5 -72.5t-165 -25.5q-53 0 -102 10t-92 26l-86 -153h-138l119 211q-66 47 -102.5 116.5t-36.5 161.5zM297 352 q0 -55 29 -94l313 549q-53 27 -115 27q-43 0 -84 -11.5t-72.5 -35t-51 -56.5t-19.5 -76v-303zM422 190q47 -18 100 -18q43 0 83 11.5t70 34t48 56t18 78.5v303q0 20 -5 35t-15 29z" />
<glyph unicode="&#xf9;" horiz-adv-x="1103" d="M129 348v656h213v-656q0 -88 64.5 -133t152.5 -45q43 0 82 11.5t68.5 35t48 56t18.5 75.5v656h213v-656q0 -88 -34.5 -156.5t-93 -115.5t-136.5 -71.5t-166 -24.5t-167 24.5t-137 71.5t-92 115.5t-34 156.5zM327 1393l146 100l198 -313l-110 -78z" />
<glyph unicode="&#xfa;" horiz-adv-x="1103" d="M129 348v656h213v-656q0 -88 64.5 -133t152.5 -45q43 0 82 11.5t68.5 35t48 56t18.5 75.5v656h213v-656q0 -88 -34.5 -156.5t-93 -115.5t-136.5 -71.5t-166 -24.5t-167 24.5t-137 71.5t-92 115.5t-34 156.5zM446 1167l207 320l140 -101l-232 -284z" />
<glyph unicode="&#xfb;" horiz-adv-x="1103" d="M129 348v656h213v-656q0 -88 64.5 -133t152.5 -45q43 0 82 11.5t68.5 35t48 56t18.5 75.5v656h213v-656q0 -88 -34.5 -156.5t-93 -115.5t-136.5 -71.5t-166 -24.5t-167 24.5t-137 71.5t-92 115.5t-34 156.5zM299 1276l260 186l263 -190l-80 -101l-180 115l-183 -115z" />
<glyph unicode="&#xfc;" horiz-adv-x="1103" d="M129 348v656h213v-656q0 -88 64.5 -133t152.5 -45q43 0 82 11.5t68.5 35t48 56t18.5 75.5v656h213v-656q0 -88 -34.5 -156.5t-93 -115.5t-136.5 -71.5t-166 -24.5t-167 24.5t-137 71.5t-92 115.5t-34 156.5zM266 1206v199h197v-199h-197zM660 1206v199h194v-199h-194z " />
<glyph unicode="&#xfd;" horiz-adv-x="970" d="M35 1004h223l231 -783l228 783h223l-383 -1131q-29 -84 -77 -142.5t-109.5 -95t-133 -53t-147.5 -18.5l-24 164q37 0 82 11t85.5 32.5t74.5 52.5t50 72l25 79zM368 1167l207 320l140 -101l-232 -284z" />
<glyph unicode="&#xfe;" horiz-adv-x="1099" d="M131 -506v2009h213v-606q45 59 127 93t162 34q174 0 278.5 -93t104.5 -261v-324q0 -86 -27.5 -154.5t-79 -116.5t-122 -74t-156.5 -26q-88 0 -166 35t-121 105v-621h-213zM358 332q0 -41 18.5 -72t50.5 -51.5t73 -30.5t86 -10q86 0 151.5 41t65.5 123v338 q0 41 -18.5 70.5t-48 51t-68.5 32t-82 10.5q-45 0 -86 -10.5t-73 -32t-50.5 -51t-18.5 -70.5v-338z" />
<glyph unicode="&#xff;" horiz-adv-x="970" d="M35 1004h223l231 -783l228 783h223l-383 -1131q-29 -84 -77 -142.5t-109.5 -95t-133 -53t-147.5 -18.5l-24 164q37 0 82 11t85.5 32.5t74.5 52.5t50 72l25 79zM188 1206v199h197v-199h-197zM582 1206v199h194v-199h-194z" />
<glyph unicode="&#x152;" horiz-adv-x="1824" d="M100 449v497q0 88 44 169t118 142.5t172 98.5t207 37h1055v-191h-547v-395h459v-182h-459v-435h592v-190h-1098q-113 0 -212 35t-173 96.5t-116 143t-42 174.5zM313 449q0 -53 27 -100.5t71 -82.5t104 -55.5t128 -20.5h291v1012h-293q-63 0 -121.5 -21.5t-104.5 -57.5 t-74 -82t-28 -95v-497z" />
<glyph unicode="&#x153;" horiz-adv-x="1693" d="M84 356v303q0 168 105.5 262.5t279.5 94.5q47 0 99.5 -7.5t100.5 -25.5t89 -49t65 -78q111 164 336 164q88 0 165 -22.5t134.5 -67.5t91 -112.5t33.5 -158.5v-145l-629 -88v-76q0 -45 25 -78.5t62.5 -55t86 -33t93.5 -11.5q35 0 73.5 8t75.5 21.5t71 33t56 41.5l113 -131 q-82 -72 -188.5 -112.5t-213.5 -40.5q-119 0 -222 37t-167 133q-25 -47 -62.5 -81t-83.5 -54.5t-97.5 -29.5t-100.5 -9q-88 0 -159.5 25.5t-123 73.5t-80 116.5t-28.5 152.5zM297 356q0 -41 17.5 -74.5t48 -57t70.5 -36t85 -12.5q41 0 80 12.5t69.5 34t50 54t21.5 71.5v320 q-2 39 -21.5 69.5t-50 52t-70.5 33t-81 11.5q-43 0 -83 -12.5t-70.5 -35t-48 -54.5t-17.5 -73v-303zM954 582l414 55l-2 33q0 41 -16.5 70.5t-43 51t-60 32t-70.5 10.5q-43 -2 -81 -14.5t-69 -35t-49.5 -53.5t-22.5 -67v-82z" />
<glyph unicode="&#x178;" horiz-adv-x="1308" d="M37 1393h246l360 -650l367 650h245l-505 -840v-553h-213v555zM352 1513v199h197v-199h-197zM746 1513v199h194v-199h-194z" />
<glyph unicode="&#x2c6;" horiz-adv-x="727" d="M102 1276l260 186l263 -190l-80 -101l-180 115l-183 -115z" />
<glyph unicode="&#x2dc;" horiz-adv-x="864" d="M102 1288q41 68 89.5 105t113.5 37q35 0 70 -12.5t68.5 -28t65.5 -28.5t58 -13q43 0 64.5 22.5t34.5 44.5l96 -69q-8 -14 -23.5 -40t-37 -50.5t-51 -43t-66.5 -18.5q-39 0 -75 13.5t-71 28.5t-70.5 28.5t-74.5 13.5q-37 0 -61.5 -26.5t-38.5 -45.5z" />
<glyph unicode="&#x2000;" horiz-adv-x="961" />
<glyph unicode="&#x2001;" horiz-adv-x="1923" />
<glyph unicode="&#x2002;" horiz-adv-x="961" />
<glyph unicode="&#x2003;" horiz-adv-x="1923" />
<glyph unicode="&#x2004;" horiz-adv-x="641" />
<glyph unicode="&#x2005;" horiz-adv-x="480" />
<glyph unicode="&#x2006;" horiz-adv-x="320" />
<glyph unicode="&#x2007;" horiz-adv-x="320" />
<glyph unicode="&#x2008;" horiz-adv-x="240" />
<glyph unicode="&#x2009;" horiz-adv-x="384" />
<glyph unicode="&#x200a;" horiz-adv-x="106" />
<glyph unicode="&#x2010;" horiz-adv-x="681" d="M84 504v190h514v-190h-514z" />
<glyph unicode="&#x2011;" horiz-adv-x="681" d="M84 504v190h514v-190h-514z" />
<glyph unicode="&#x2012;" horiz-adv-x="681" d="M84 504v190h514v-190h-514z" />
<glyph unicode="&#x2013;" horiz-adv-x="1189" d="M2 524v162h1178v-162h-1178z" />
<glyph unicode="&#x2014;" horiz-adv-x="1617" d="M4 524v162h1610v-162h-1610z" />
<glyph unicode="&#x2018;" horiz-adv-x="303" d="M61 946v55q0 166 40 266.5t92 147.5l106 -67q-25 -45 -40 -115t-15 -160v-127h-183z" />
<glyph unicode="&#x2019;" horiz-adv-x="319" d="M-4 983q16 20 30.5 46t25.5 57.5t18.5 72.5t7.5 94v125h182v-53q0 -90 -17.5 -157.5t-43 -116.5t-55 -83t-54.5 -57z" />
<glyph unicode="&#x201a;" horiz-adv-x="468" d="M139 -207q16 20 30.5 46t25.5 57.5t18.5 72.5t7.5 94v125h182v-53q0 -90 -17.5 -157.5t-43 -116.5t-55 -83t-54.5 -57z" />
<glyph unicode="&#x201c;" horiz-adv-x="624" d="M61 946v55q0 166 40 266.5t92 147.5l106 -67q-25 -45 -40 -115t-15 -160v-127h-183zM372 946v55q0 166 40 266.5t92 147.5l106 -67q-25 -45 -40 -115t-15 -160v-127h-183z" />
<glyph unicode="&#x201d;" horiz-adv-x="630" d="M-4 997q16 20 30.5 46t25.5 57.5t18.5 72.5t7.5 94v125h182v-53q0 -90 -17.5 -157.5t-43 -116.5t-55 -83t-54.5 -57zM305 997q16 20 30.5 46t25.5 57.5t18.5 72.5t7.5 94v125h182v-53q0 -90 -17.5 -157.5t-43 -116.5t-55 -83t-54.5 -57z" />
<glyph unicode="&#x201e;" horiz-adv-x="845" d="M139 -205q16 20 30.5 46t25.5 57.5t18.5 72.5t7.5 94v125h182v-53q0 -90 -17.5 -157.5t-43 -116.5t-55 -83t-54.5 -57zM471 -203q16 20 30.5 46t25.5 57.5t18.5 72.5t7.5 94v125h182v-53q0 -90 -17.5 -157.5t-43 -116.5t-55 -83t-54.5 -57z" />
<glyph unicode="&#x2022;" horiz-adv-x="673" d="M131 344v408h412v-408h-412z" />
<glyph unicode="&#x2026;" horiz-adv-x="1597" d="M131 0v254h258v-254h-258zM670 0v254h258v-254h-258zM1208 0v254h258v-254h-258z" />
<glyph unicode="&#x202f;" horiz-adv-x="384" />
<glyph unicode="&#x2039;" horiz-adv-x="571" d="M68 358l325 371l94 -82l-202 -287l200 -272l-92 -88z" />
<glyph unicode="&#x203a;" horiz-adv-x="571" d="M84 647l94 82l324 -371l-324 -358l-92 88l201 272z" />
<glyph unicode="&#x205f;" horiz-adv-x="480" />
<glyph unicode="&#x20ac;" horiz-adv-x="1359" d="M59 512v131h287v131h-287v127h287v143q0 88 38 158t101.5 119t148.5 74.5t177 25.5q123 0 228.5 -34.5t201.5 -112.5l-90 -154q-31 25 -74 45.5t-89 34.5t-92 22.5t-85 8.5q-121 0 -184.5 -62.5t-63.5 -173.5v-94h477v-127h-477v-131h477v-131h-475v-102 q0 -51 21.5 -94.5t57.5 -75t83 -50t98 -18.5q92 0 174 29.5t146 81.5l96 -152q-178 -152 -416 -151q-102 0 -190 28.5t-152.5 82.5t-100.5 133t-36 179v109h-287z" />
<glyph unicode="&#x2122;" horiz-adv-x="1105" d="M63 1335v99h388v-99h-140v-336h-108v336h-140zM537 1004v430h110l109 -183l110 183h111v-430h-107v256l-96 -160h-39l-92 162v-258h-106z" />
<glyph unicode="&#xe000;" horiz-adv-x="1003" d="M0 0v1004h1004v-1004h-1004z" />
<glyph unicode="&#xfb03;" horiz-adv-x="1818" d="M-10 852v152h190v161q0 74 30 135.5t81 105.5t119.5 69.5t146.5 25.5q86 0 196.5 -31.5t207.5 -91.5q53 63 128.5 97t186.5 34q51 0 113.5 -12t123 -28.5t113.5 -35t86 -28.5l-65 -178q-12 4 -52.5 17t-94.5 28.5t-117.5 28t-120.5 12.5q-74 0 -121 -37t-47 -96v-176h204 v-154h-206v-850h-211v850h-193v154h193v131v40t2 37q-59 31 -147.5 65t-178.5 34q-82 0 -123 -40t-41 -95v-172h187v-152h-187v-852h-213v852h-190zM1475 0v1004h213v-1004h-213z" />
<glyph unicode="&#xfb04;" horiz-adv-x="1830" d="M-4 852v152h192v161q0 74 30 135.5t81 105.5t119.5 69.5t146.5 25.5t180.5 -25.5t200.5 -86.5q51 55 125 85.5t162 30.5q49 0 104.5 -10t107.5 -25.5t97 -33t72 -29.5h78v-1407h-211v1276q-47 16 -117 32.5t-131 16.5q-70 0 -116 -42t-46 -101v-178h217v-154h-219v-850 h-207v850h-190v154h192v178q0 20 3 32.5t10 30.5q-68 23 -150 44.5t-162 21.5q-82 0 -123 -40t-41 -95v-172h187v-152h-187v-852h-213v852h-192z" />
</font>
</defs>
</svg>
