<?xml version="1.0" standalone="no"?>
<!DOCTYPE svg PUBLIC "-//W3C//DTD SVG 1.1//EN" "http://www.w3.org/Graphics/SVG/1.1/DTD/svg11.dtd" >
<svg xmlns="http://www.w3.org/2000/svg">
<metadata></metadata>
<defs>
<font id="pill_gothic_600mg_rgregular" horiz-adv-x="1267" >
<font-face units-per-em="2048" ascent="1638" descent="-410" />
<missing-glyph horiz-adv-x="446" />
<glyph unicode="&#xdf;" horiz-adv-x="1294" d="M96 885v119h109v210q0 68 25.5 123.5t69.5 95.5t103.5 61.5t124.5 21.5q45 0 103.5 -11.5t101.5 -29.5l-41 -129q-37 16 -74.5 23t-68.5 7q-96 0 -146.5 -51t-50.5 -147v-174h783v-109l-248 -293h61q66 0 111 -21.5t72.5 -56.5t41 -78t13.5 -84v-143q0 -51 -24.5 -95 t-65.5 -75t-97.5 -48t-117.5 -17q-98 0 -178 38.5t-113 110.5l90 76q16 -41 71.5 -70.5t118.5 -29.5q72 0 119 33.5t47 93.5v106q0 66 -35.5 104.5t-113.5 38.5h-189v113l244 285h-584v-883h-153v885h-109z" />
<glyph unicode="&#xfb01;" horiz-adv-x="1167" d="M43 883v121h203v200q0 70 25.5 128.5t72.5 100.5t111.5 65.5t140.5 23.5q63 0 127.5 -15.5t121 -37t102.5 -45t73 -38.5l-68 -122q-20 10 -60 29.5t-89 39t-103.5 34.5t-103.5 15q-41 0 -77 -13t-61.5 -36.5t-41 -54.5t-15.5 -68v-206h224v-121h-224v-883h-155v883h-203z M848 0v1004h158v-1004h-158z" />
<glyph unicode="&#xfb02;" horiz-adv-x="1200" d="M43 883v123h207v208q0 68 27.5 124.5t74.5 97.5t112.5 63.5t139.5 22.5q37 0 85 -6.5t96.5 -17.5t92.5 -25.5t76 -30.5h60v-1442h-156v1331q-57 25 -129 37t-125 12q-86 0 -142 -47t-56 -121v-206h229v-123h-232v-883h-157v883h-203z" />
<glyph horiz-adv-x="2048" />
<glyph horiz-adv-x="2048" />
<glyph unicode="&#xd;" horiz-adv-x="446" />
<glyph unicode=" "  horiz-adv-x="446" />
<glyph unicode="&#x09;" horiz-adv-x="446" />
<glyph unicode="&#xa0;" horiz-adv-x="446" />
<glyph unicode="!" horiz-adv-x="493" d="M168 0v221h201v-221h-201zM182 1393h168l-14 -908h-139z" />
<glyph unicode="&#x22;" horiz-adv-x="598" d="M115 1403h127l-9 -453h-112zM358 1403h127l-6 -453h-112z" />
<glyph unicode="#" horiz-adv-x="1370" d="M96 309v107h324l78 418h-338v108h358l62 338h110l-61 -338h264l63 338h107l-59 -338h270v-108h-291l-78 -418h299v-107h-317l-53 -309h-113l53 309h-262l-57 -309h-109l53 309h-303zM530 416h265l77 418h-262z" />
<glyph unicode="$" horiz-adv-x="1079" d="M98 246l129 80q43 -86 128 -136.5t196 -50.5q57 0 107.5 11.5t88 38t59 70.5t21.5 110v118l-692 308v241q0 88 31 151.5t83 106.5t119.5 67.5t141.5 31.5v223h133v-227q111 -4 199 -64.5t137 -157.5l-115 -88q-45 76 -118.5 124t-167.5 48q-43 0 -93.5 -8t-93.5 -31.5 t-70.5 -66.5t-27.5 -115v-141l692 -309v-203q0 -84 -28.5 -151.5t-78 -117t-116 -77t-139.5 -31.5v-256h-134v252q-63 2 -123.5 20.5t-111.5 51t-92 77.5t-64 101z" />
<glyph unicode="%" horiz-adv-x="1468" d="M131 1016v176q0 49 21.5 90t58.5 70.5t86 45t104 15.5q53 0 101.5 -16.5t85.5 -46t58.5 -69.5t21.5 -89v-176q0 -51 -21.5 -92t-57.5 -70t-84 -45t-104 -16q-57 0 -106 15t-86 44t-57.5 71t-20.5 93zM203 0l915 1393h146l-908 -1393h-153zM268 1020q0 -47 39 -73.5 t94 -26.5q53 0 92 29.5t39 72.5v168q0 45 -38.5 69.5t-92.5 24.5q-53 0 -93 -27.5t-40 -68.5v-168zM813 195v196q0 100 76 158.5t186 58.5q53 0 100.5 -14t82 -42t56 -68t21.5 -89v-192q0 -102 -74.5 -161.5t-185.5 -59.5q-51 0 -99 15t-84 43t-57.5 67.5t-21.5 87.5z M942 377l2 -168q0 -43 39 -71.5t92 -28.5q51 0 91 28.5t40 73.5v168q0 47 -38 73.5t-93 26.5q-53 0 -93 -29.5t-40 -72.5z" />
<glyph unicode="&#x26;" horiz-adv-x="1390" d="M96 336q0 78 33 141.5t83 118.5t112.5 104.5t119.5 100.5l-168 188v180q0 55 23 100.5t60.5 78t90 50t111.5 17.5q141 0 224 -72.5t83 -207.5q0 -111 -59 -194t-145 -153l317 -352l193 215l112 -100l-203 -219l244 -252l-113 -107l-231 244q-86 -106 -195.5 -171.5 t-261.5 -65.5q-199 0 -314.5 87t-115.5 269zM258 344q0 -45 14.5 -85t45 -69.5t79.5 -47t121 -17.5q61 0 110.5 16.5t91.5 44t81 65.5t78 79l-334 372q-47 -45 -97.5 -83.5t-92.5 -79.5t-69.5 -87t-27.5 -108zM420 1040l141 -161q63 55 112.5 116.5t49.5 132.5 q0 152 -158 152q-39 0 -67.5 -12.5t-45 -31.5t-24.5 -40.5t-8 -40.5v-115z" />
<glyph unicode="'" horiz-adv-x="454" d="M150 1434h155l-16 -473h-123z" />
<glyph unicode="(" horiz-adv-x="669" d="M172 211v682q0 113 22.5 214t63.5 186t99.5 151.5t129.5 109.5l60 -90q-102 -66 -172 -211t-70 -360v-682q0 -223 69.5 -363.5t172.5 -205.5l-60 -93q-143 86 -229 260.5t-86 401.5z" />
<glyph unicode=")" horiz-adv-x="690" d="M123 -365q102 70 170.5 219.5t68.5 370.5v658q0 215 -63 362.5t-166 214.5l49 94q72 -43 129.5 -110.5t98.5 -154.5t63.5 -190.5t22.5 -215.5v-658q0 -113 -22.5 -216t-63.5 -190t-98.5 -154.5t-129.5 -110.5z" />
<glyph unicode="*" horiz-adv-x="786" d="M96 1186l31 102l211 -65v215h111v-217l208 67l33 -102l-209 -66l131 -174l-88 -65l-131 176l-131 -176l-86 63l129 176z" />
<glyph unicode="+" horiz-adv-x="1157" d="M61 719v143h439v408h155v-408h441v-143h-441v-453h-155v453h-439z" />
<glyph unicode="," horiz-adv-x="382" d="M43 -205q35 47 55.5 101.5t20.5 154.5v119h141v-53q0 -82 -13.5 -141.5t-32.5 -103.5t-45 -76t-50 -58z" />
<glyph unicode="-" horiz-adv-x="671" d="M96 516v143h479v-143h-479z" />
<glyph unicode="." horiz-adv-x="471" d="M131 0v219h209v-219h-209z" />
<glyph unicode="/" horiz-adv-x="751" d="M43 -174l532 1567h146l-535 -1567h-143z" />
<glyph unicode="0" horiz-adv-x="1288" d="M150 406v577q0 102 39.5 182t108.5 135.5t158 84t187 28.5t187.5 -28.5t158 -84t108.5 -135.5t40 -182v-577q0 -102 -40 -181.5t-108.5 -133.5t-158 -82.5t-187.5 -28.5t-187 28.5t-158 82.5t-108.5 133t-39.5 182zM305 406q0 -70 27.5 -123.5t75 -89t107.5 -53 t128 -17.5q66 0 127 17.5t108.5 52t75 88t27.5 125.5v577q0 72 -27.5 125t-73.5 89t-107.5 54.5t-129.5 18.5t-129 -18.5t-107.5 -54.5t-74 -89t-27.5 -125v-577z" />
<glyph unicode="1" horiz-adv-x="886" d="M135 1249v144h479v-1393h-157v1249h-322z" />
<glyph unicode="2" horiz-adv-x="1081" d="M127 1190q78 92 190.5 147.5t241.5 55.5q84 0 158 -19.5t128 -62.5t86 -108.5t32 -158.5q0 -82 -25 -143t-69 -111.5t-102 -93.5t-126 -86q-74 -45 -138.5 -94t-112.5 -105.5t-76.5 -122t-28.5 -145.5h710v-143h-866v78q0 115 22.5 204t68.5 161.5t119 134t171 122.5 q53 31 106.5 64t95.5 71.5t68.5 86t26.5 108.5q0 111 -66.5 165t-183.5 54q-49 0 -98 -14t-93 -36.5t-82 -53.5t-65 -62z" />
<glyph unicode="3" horiz-adv-x="1157" d="M115 283l135 41q6 -45 35.5 -83t73.5 -63.5t98.5 -40t109.5 -14.5q49 0 102.5 10t98.5 32.5t73.5 58.5t28.5 85v150q0 51 -28.5 88t-72.5 60.5t-96 35.5t-100 14h-157v140h151q49 0 100.5 11t93.5 34.5t68.5 59.5t26.5 85v88q0 53 -23.5 90t-62.5 60.5t-90 34t-105 10.5 q-49 0 -99 -13.5t-92 -38t-71.5 -60.5t-36.5 -83l-129 45q12 72 55.5 126t105 91t135 56.5t147.5 19.5q86 0 162.5 -20.5t134 -61.5t91.5 -105.5t34 -150.5v-88q0 -51 -19.5 -94t-50.5 -76t-71 -56.5t-80 -35.5q43 -14 85 -36.5t75.5 -54.5t54 -75t20.5 -100v-150 q0 -84 -39 -145.5t-103.5 -102.5t-144.5 -60t-164 -19q-86 0 -164.5 19t-141 57t-103.5 94.5t-51 130.5z" />
<glyph unicode="4" horiz-adv-x="1124" d="M49 412v120l549 861h248v-838h237v-143h-237v-410h-156v410h-641zM223 555h467v700h-20z" />
<glyph unicode="5" horiz-adv-x="1136" d="M123 328l151 30q4 -51 28 -94t64 -74.5t93 -49t114 -17.5q53 0 104.5 13.5t91.5 41t64.5 68.5t24.5 96v135q0 55 -22.5 96t-59.5 70t-86 43t-102 14h-412l70 693h686v-144h-545l-39 -405h250q86 0 161 -24.5t132 -71t90 -115t33 -156.5v-135q0 -86 -38 -153.5 t-101.5 -113.5t-143.5 -70.5t-166 -24.5q-88 0 -165.5 22.5t-137 67.5t-96.5 109.5t-43 148.5z" />
<glyph unicode="6" horiz-adv-x="1163" d="M150 338v731q0 78 35.5 141.5t96 108.5t140.5 69.5t168 24.5q113 0 203 -35t161 -100l-84 -119q-123 113 -280 113q-57 0 -109.5 -13.5t-91.5 -40t-61.5 -64.5t-22.5 -85v-315q132 141 320 141q80 0 153.5 -22.5t130 -66.5t90 -110.5t33.5 -154.5v-203q0 -88 -38 -155.5 t-99 -112.5t-141 -67.5t-164 -22.5t-164 22.5t-141.5 67.5t-98 112.5t-36.5 155.5zM305 338q0 -57 24.5 -98t64.5 -68t91.5 -39t104.5 -12t104 12t91 39t66 68t26 98v186q0 55 -26 97.5t-66 69t-91 39.5t-102 13q-53 0 -104.5 -15t-92.5 -43t-65.5 -69t-24.5 -92v-186z" />
<glyph unicode="7" horiz-adv-x="948" d="M16 1249v144h881l-471 -1393h-172l426 1249h-664z" />
<glyph unicode="8" horiz-adv-x="1181" d="M150 319v148q0 43 18 85t49 78t70 63.5t82 41.5q-84 35 -138.5 111t-54.5 168v78q0 84 34 147.5t91 106.5t132 64.5t157 21.5q80 0 154.5 -21.5t132 -64.5t92.5 -106.5t35 -147.5v-95q0 -41 -16.5 -80.5t-43 -74.5t-61.5 -62.5t-72 -44.5q41 -14 80 -40.5t69.5 -61.5 t50 -77t19.5 -89v-148q0 -90 -37 -154.5t-98 -105.5t-140 -60t-165 -19t-166 19t-140.5 60t-97 105.5t-36.5 154.5zM305 324q0 -55 25.5 -94.5t65.5 -63t91.5 -33.5t102.5 -10q49 0 100 10t92 33.5t66.5 60.5t25.5 92v148q0 45 -24.5 81t-62 60.5t-85 37.5t-94.5 13h-35 q-47 0 -95 -13t-86 -36.5t-62.5 -59.5t-24.5 -83v-143zM332 997q0 -45 21.5 -80.5t55 -60.5t76.5 -38t88 -15h35q47 2 90 15t76 37t53.5 59.5t20.5 82.5v95q0 51 -22.5 88t-59.5 61.5t-83 35.5t-93 11t-93 -11t-83 -35.5t-59.5 -61.5t-22.5 -88v-95z" />
<glyph unicode="9" horiz-adv-x="1163" d="M131 842v215q0 84 37 149.5t98.5 111.5t141 70.5t163.5 24.5t163 -24.5t140.5 -70.5t99.5 -111.5t38 -149.5v-719q0 -88 -38 -155.5t-99.5 -112.5t-140.5 -67.5t-163 -22.5q-104 0 -210.5 34.5t-178.5 108.5l86 115q49 -37 125 -76t178 -39q51 0 102.5 12t91.5 39 t65.5 67t25.5 97v272q-55 -66 -136 -97.5t-165 -31.5t-161 22.5t-135 68.5t-93 114t-35 156zM287 842q0 -57 25.5 -98.5t66.5 -68t92 -38.5t104 -12q51 0 101.5 14t90.5 42t64.5 67.5t24.5 93.5v215q0 51 -24.5 91t-65.5 66.5t-91 41t-104 14.5q-51 0 -102 -13.5t-92 -41 t-65.5 -66.5t-24.5 -92v-215z" />
<glyph unicode=":" horiz-adv-x="552" d="M193 0v242h192v-242h-192zM193 766v238h192v-238h-192z" />
<glyph unicode=";" horiz-adv-x="604" d="M190 -205q35 47 55.5 101.5t20.5 154.5v119h142v-53q0 -82 -13.5 -141.5t-33 -103.5t-45 -76t-50.5 -58zM252 717v246h174v-246h-174z" />
<glyph unicode="&#x3c;" horiz-adv-x="1224" d="M96 494l934 555l66 -105l-750 -444l782 -422l-65 -107z" />
<glyph unicode="=" horiz-adv-x="1220" d="M96 438v127h1028v-127h-1028zM96 877v127h1028v-127h-1028z" />
<glyph unicode="&#x3e;" horiz-adv-x="1191" d="M104 72l746 434l-729 432l67 104l908 -532l-926 -545z" />
<glyph unicode="?" horiz-adv-x="823" d="M51 1260q66 66 150 109.5t178 43.5q164 0 256 -71.5t92 -231.5v-96q0 -72 -46 -123t-99 -96q-33 -29 -61.5 -55.5t-49 -55.5t-32 -61.5t-11.5 -73.5v-121h-152v152q0 84 48.5 148.5t111.5 123.5q23 20 46.5 38.5t43 39t32.5 45t13 55.5v76q0 82 -53 123t-135 41 q-70 0 -136.5 -33t-111.5 -82zM240 0v221h217v-221h-217z" />
<glyph unicode="@" horiz-adv-x="1636" d="M96 532q0 49 6.5 126t16.5 155q18 127 77.5 239.5t152.5 196.5t216.5 132.5t270.5 48.5q152 0 279.5 -43.5t221 -120t145.5 -182t52 -232.5q0 -117 -18.5 -211t-58.5 -159.5t-103.5 -101.5t-155.5 -36q-33 0 -65.5 6t-61.5 20.5t-52.5 37t-35.5 55.5q-47 -61 -127 -103.5 t-172 -42.5q-68 0 -115 16.5t-76.5 45.5t-44 65.5t-14.5 79.5q0 16 4 50t11.5 76t17.5 90t22 91q16 61 54.5 114.5t90.5 92.5t114.5 61.5t128.5 22.5q123 0 192.5 -54t69.5 -146q0 -33 -9.5 -77t-19.5 -93q-10 -47 -17.5 -94.5t-7.5 -82.5q0 -49 31 -84.5t82 -35.5 q217 0 217 401q0 102 -43 188t-119.5 147.5t-183 95.5t-233.5 34q-123 0 -227.5 -40t-181.5 -109.5t-126 -164t-61 -200.5q-10 -76 -17.5 -149.5t-7.5 -120.5q0 -94 44 -175t125 -141.5t194.5 -94.5t252.5 -34q82 0 165 21.5t161 64.5l55 -98q-88 -49 -185 -73.5t-196 -24.5 q-166 0 -302 42t-232 115.5t-148.5 175t-52.5 217.5zM571 565q1 -133 138 -133q94 0 165.5 57.5t86.5 147.5q14 59 29.5 129t15.5 129t-36 86t-108 27q-47 0 -90 -19.5t-78 -52.5t-58.5 -76t-31.5 -88q-6 -27 -12 -61.5t-10 -65.5t-7.5 -53.5t-3.5 -26.5z" />
<glyph unicode="A" d="M45 0l506 1409h180l492 -1409h-168l-146 422h-542l-152 -422h-170zM410 555h454l-225 668z" />
<glyph unicode="B" horiz-adv-x="1171" d="M166 0v1393h467q80 0 148.5 -23.5t118.5 -70t79 -113t29 -150.5v-45q0 -86 -50.5 -160.5t-128.5 -103.5q104 -39 166 -114.5t62 -192.5v-74q0 -84 -29 -148.5t-80 -108.5t-118.5 -66.5t-147.5 -22.5h-516zM322 143h327q49 0 94 11.5t80 36t56.5 62.5t21.5 91v82 q0 55 -23.5 96t-63.5 68.5t-91 42t-107 14.5h-294v-504zM322 782h278q49 0 94 14.5t81 41t56.5 65.5t20.5 88v45q0 117 -70.5 165t-181.5 48h-278v-467z" />
<glyph unicode="C" horiz-adv-x="1140" d="M115 418v557q0 102 40 183t108.5 137.5t159.5 87t193 30.5q147 0 252 -44t189 -134l-90 -111q-66 68 -153 107t-198 39q-70 0 -132 -20.5t-110 -58.5t-76 -92.5t-28 -123.5v-557q0 -74 27 -129.5t74 -92t110.5 -55t136.5 -18.5q106 0 201.5 28.5t167.5 90.5l72 -119 q-92 -82 -201.5 -112.5t-239.5 -30.5q-106 0 -198 28.5t-159.5 83.5t-106.5 137t-39 189z" />
<glyph unicode="D" horiz-adv-x="1234" d="M168 0v1393h428q109 0 205 -28t166.5 -83t111.5 -137t41 -191v-518q0 -111 -43 -193.5t-115.5 -136t-170 -80t-207.5 -26.5h-416zM322 141h262q78 0 146.5 17.5t120.5 53.5t83 92t31 132v518q0 74 -30 129.5t-81 92t-117.5 55t-140.5 18.5h-274v-1108z" />
<glyph unicode="E" horiz-adv-x="1040" d="M168 0v1393h729v-144h-573v-465h481v-137h-481v-504h620v-143h-776z" />
<glyph unicode="F" horiz-adv-x="954" d="M168 0v1393h727v-144h-573v-456h483v-138h-481v-655h-156z" />
<glyph unicode="G" horiz-adv-x="1275" d="M115 418v557q0 96 43 177t115.5 139.5t170 90t203.5 31.5q129 0 246 -42t197 -126l-82 -117q-66 63 -163 102.5t-198 39.5q-74 0 -141.5 -22.5t-119.5 -62.5t-84 -93.5t-32 -116.5v-557q0 -68 30 -122t81 -93t120.5 -59.5t147.5 -20.5q117 0 195 24.5t145 65.5v377h-346 v133h502v-584q-51 -31 -102.5 -59.5t-110 -51t-128 -35.5t-155.5 -13q-113 0 -210 30.5t-168.5 88t-113.5 138t-42 181.5z" />
<glyph unicode="H" horiz-adv-x="1413" d="M195 0v1393h155v-648h737v648h156v-1393h-156v602h-737v-602h-155z" />
<glyph unicode="I" horiz-adv-x="602" d="M221 0v1393h156v-1393h-156z" />
<glyph unicode="J" horiz-adv-x="1003" d="M43 309l152 31q2 -43 21.5 -82t52 -68.5t76.5 -48t95 -18.5q47 0 90 13.5t76 39t53.5 62t20.5 84.5v1071h156v-1071q0 -80 -32 -143.5t-85 -107.5t-124 -66.5t-151 -22.5t-149.5 22.5t-122.5 64.5t-87 103t-42 137z" />
<glyph unicode="K" horiz-adv-x="1261" d="M168 0v1393h156v-660l655 660h211l-645 -648l706 -745h-217l-598 633l-112 -109v-524h-156z" />
<glyph unicode="L" horiz-adv-x="1011" d="M168 0v1393h156v-1250h673v-143h-829z" />
<glyph unicode="M" horiz-adv-x="1624" d="M168 0v1393h194l449 -813l451 813h194v-1393h-143v1196l-465 -872h-78l-461 868v-1192h-141z" />
<glyph unicode="N" horiz-adv-x="1441" d="M168 0v1393h203l762 -1211v1211h141v-1393h-209l-756 1204v-1204h-141z" />
<glyph unicode="O" horiz-adv-x="1331" d="M115 418v557q0 102 45 183t119.5 138.5t171 87t198.5 29.5h35q102 0 197.5 -30.5t170 -87t120 -137.5t45.5 -183v-557q0 -106 -44.5 -188.5t-118 -137.5t-170 -83.5t-200.5 -28.5h-33q-106 0 -203.5 27.5t-171 82.5t-117.5 137t-44 191zM270 418q0 -74 32 -129.5t84 -92 t122 -55t143 -18.5h33q72 0 140.5 18.5t120.5 55t84 92t32 129.5v555q0 70 -33 125t-86 93t-120.5 58.5t-137.5 20.5h-35q-70 0 -138.5 -20.5t-121.5 -58.5t-86 -92.5t-33 -123.5v-557z" />
<glyph unicode="P" horiz-adv-x="1101" d="M166 0v1393h442q84 0 156 -23.5t126 -70t85 -111t31 -148.5v-153q0 -82 -32 -143.5t-85 -102.5t-125 -61.5t-152 -20.5h-290v-559h-156zM322 702h286q47 0 90 10.5t77 33t54.5 57.5t20.5 84v153q0 49 -19.5 87t-53.5 66t-78 42t-91 14h-286v-547z" />
<glyph unicode="Q" horiz-adv-x="1331" d="M115 418v557q0 102 45 183t119.5 138.5t171 87t198.5 29.5h35q102 0 197.5 -30.5t170 -87t120 -137.5t45.5 -183v-557q0 -109 -44.5 -191t-119.5 -137l22 -29q27 -35 50.5 -55t49 -31.5t55.5 -15.5t66 -4v-113q-61 0 -106 4t-83 19.5t-72 44.5t-70 78l-29 39 q-119 -47 -252 -47h-33q-106 0 -203.5 27.5t-171 82.5t-117.5 137t-44 191zM270 418q0 -74 32 -129.5t84 -92t122 -55t143 -18.5h33q41 0 81 6t75 18l-168 226l100 82l186 -244q47 35 75 87t28 120v555q0 70 -33 125t-86 93t-120.5 58.5t-137.5 20.5h-35q-70 0 -138.5 -20.5 t-121.5 -58.5t-86 -92.5t-33 -123.5v-557z" />
<glyph unicode="R" horiz-adv-x="1200" d="M168 0v1393h516q84 0 156.5 -23.5t126 -69t84 -111t30.5 -149.5v-108q0 -135 -87 -214t-216 -102l342 -616h-176l-334 604h-286v-604h-156zM324 748h358q45 0 89 11t78 34.5t55.5 58.5t21.5 80v108q0 47 -20.5 86t-54.5 67t-78 42t-91 14h-358v-501z" />
<glyph unicode="S" horiz-adv-x="1181" d="M98 229l115 93q27 -45 72 -82t98 -62.5t111.5 -39t113.5 -13.5q66 0 126.5 13.5t105.5 43t71.5 75.5t26.5 114t-30.5 111.5t-81 74.5t-116 51.5t-135.5 42.5q-92 29 -170.5 60.5t-136 75.5t-89.5 106.5t-32 155.5q0 96 37 164.5t99.5 113.5t147.5 65.5t181 20.5 q147 0 258 -53t191 -131l-94 -115q-29 31 -68 58.5t-85 49t-97 35t-105 13.5q-61 0 -116.5 -12.5t-98.5 -38t-68.5 -67.5t-25.5 -103q0 -63 32 -105.5t83 -71t115.5 -48.5t130.5 -40q98 -29 178 -60.5t136 -76.5t86 -111.5t30 -164.5q0 -100 -38 -174t-102.5 -121 t-151.5 -70.5t-186 -23.5q-78 0 -154.5 14t-145 45t-125 78t-93.5 110z" />
<glyph unicode="T" horiz-adv-x="1101" d="M25 1249v142h1052v-144h-450v-1247h-156v1247z" />
<glyph unicode="U" horiz-adv-x="1396" d="M168 426v967h156v-967q0 -78 29.5 -135.5t80.5 -94t120 -55t146 -18.5q74 0 141.5 19.5t119 57.5t82 95t30.5 131v967h156v-967q0 -111 -41 -195t-112.5 -140t-167 -83.5t-206.5 -27.5q-113 0 -210 27.5t-169.5 82.5t-113.5 139t-41 197z" />
<glyph unicode="V" horiz-adv-x="1261" d="M43 1393h160l424 -1192l430 1192h162l-504 -1393h-178z" />
<glyph unicode="W" horiz-adv-x="1792" d="M43 1393h164l293 -1172l313 1172h158l317 -1174l279 1174h164l-349 -1393h-182l-307 1139l-309 -1139h-185z" />
<glyph unicode="X" horiz-adv-x="1304" d="M84 0l485 698l-458 695h186l369 -566l378 566h187l-473 -695l473 -698h-189l-378 569l-392 -569h-188z" />
<glyph unicode="Y" horiz-adv-x="1296" d="M43 1393h182l412 -686l416 686h184l-524 -834v-559h-156v559z" />
<glyph unicode="Z" horiz-adv-x="1185" d="M96 0v74l754 1175h-731v144h954v-86l-739 -1164h749v-143h-987z" />
<glyph unicode="[" horiz-adv-x="557" d="M164 -336v1729h297v-121h-154v-1487h146v-121h-289z" />
<glyph unicode="\" horiz-adv-x="815" d="M61 1393h148l545 -1393h-148z" />
<glyph unicode="]" horiz-adv-x="552" d="M96 1266v127h293v-1717h-291v121h146v1469h-148z" />
<glyph unicode="^" horiz-adv-x="841" d="M96 883l330 532l319 -530l-120 -37l-199 336l-205 -336z" />
<glyph unicode="_" horiz-adv-x="1105" d="M96 -59h914v-129h-914v129z" />
<glyph unicode="`" horiz-adv-x="516" d="M102 1382l117 86l195 -305l-90 -63z" />
<glyph unicode="a" horiz-adv-x="1011" d="M96 295v197l629 110v72q0 109 -56.5 160t-164.5 51q-43 0 -90 -10.5t-90 -24.5t-79 -30.5t-59 -31.5l-53 113q33 20 78 42t96 40t106.5 29.5t106.5 11.5q168 0 265.5 -90t97.5 -260v-674h-133l-21 135q-55 -90 -133 -121.5t-176 -31.5q-145 0 -234.5 82.5t-89.5 230.5z M252 301q0 -86 58.5 -133t144.5 -47q47 0 94 13t86 40t63.5 63.5t24.5 84.5v161l-471 -82v-100z" />
<glyph unicode="b" horiz-adv-x="1101" d="M150 0v1475h157v-623q18 41 54 72.5t80 54t93.5 34t96.5 11.5q168 0 271.5 -93t103.5 -263v-330q0 -84 -28 -150.5t-78 -112.5t-119.5 -70.5t-153.5 -24.5q-104 0 -192.5 37.5t-135.5 115.5l-16 -133h-133zM307 336q0 -55 23.5 -96t63.5 -67t92.5 -38t109.5 -12 q51 0 97 14.5t81 41t55.5 67.5t20.5 92v330q0 55 -19.5 94t-54.5 65.5t-82 39t-102 12.5q-51 0 -102.5 -14.5t-92.5 -42t-65.5 -67.5t-24.5 -91v-328z" />
<glyph unicode="c" horiz-adv-x="907" d="M96 338v328q0 84 31 150.5t85 112.5t127 70.5t159 24.5q119 0 196.5 -34t153.5 -109l-90 -111q-53 53 -120.5 82t-139.5 29q-104 0 -175 -56.5t-71 -158.5v-328q0 -113 72.5 -164t183.5 -51q72 0 137.5 20.5t130.5 73.5l66 -119q-80 -72 -161 -95t-181 -23 q-88 0 -163 22.5t-128 66.5t-83 111.5t-30 157.5z" />
<glyph unicode="d" horiz-adv-x="1077" d="M96 350v309q0 172 102.5 269.5t276.5 97.5q92 0 176 -34t137 -107v590h154v-1475h-129l-25 129q-51 -78 -137 -112.5t-176 -34.5q-174 0 -276.5 96t-102.5 272zM254 350q0 -117 72.5 -171t189.5 -54q53 0 101.5 13.5t87 39t61 65.5t22.5 95v330q0 55 -22.5 96t-60 67.5 t-89 40t-106.5 13.5q-53 0 -99 -15.5t-81 -45t-55.5 -70.5t-20.5 -95v-309z" />
<glyph unicode="e" horiz-adv-x="1009" d="M96 346v330q0 80 33 144.5t89 109.5t133 69.5t165 24.5q84 0 155.5 -24.5t125 -69.5t84 -108.5t30.5 -141.5v-145l-659 -95v-94q0 -57 25.5 -99t68.5 -69.5t98.5 -41t112.5 -13.5q102 0 182 32.5t119 65.5l74 -110q-78 -70 -178.5 -100.5t-204.5 -30.5q-92 0 -174 22.5 t-144.5 67.5t-98.5 113.5t-36 162.5zM252 557l500 72v57q0 90 -67 143.5t-171 53.5q-53 0 -100 -15.5t-83 -42t-57.5 -64.5t-21.5 -85v-119z" />
<glyph unicode="f" horiz-adv-x="632" d="M16 885v119h205v213q0 72 26.5 126t72 89.5t104.5 53t127 17.5q41 0 93 -10t95 -27l-32 -123q-35 10 -73 17.5t-71 7.5q-90 0 -138 -40t-48 -132v-192h246v-119h-246v-885h-156v885h-205z" />
<glyph unicode="g" horiz-adv-x="1077" d="M86 -182q0 98 48 149t134 80q-57 35 -84.5 73t-27.5 109q0 45 32.5 87t79.5 59q-72 43 -103.5 107.5t-31.5 150.5v63q0 84 32 145.5t86 102.5t127 61.5t157 20.5q63 0 117.5 -14.5t111.5 -42.5l235 84l43 -117l-172 -53q29 -43 48.5 -88t19.5 -95v-77q0 -82 -30.5 -142.5 t-85 -99.5t-126 -58.5t-151.5 -19.5q-37 0 -87 5t-81 18q-33 -10 -56.5 -27.5t-23.5 -58.5q0 -47 38 -77t79 -40l583 -148v-163q0 -74 -34.5 -127.5t-91 -86t-128 -48t-145.5 -15.5h-125q-76 0 -145.5 16.5t-122.5 50t-86 88t-33 128.5zM236 -172q0 -49 22.5 -81t60 -50.5 t87 -24.5t100.5 -6h100q43 0 83 7.5t72 24.5t53.5 46t27.5 72v75l-426 105q-33 -4 -66 -14.5t-58.5 -30t-40.5 -50t-15 -73.5zM281 616q0 -90 71.5 -139t188.5 -49q49 0 94 10.5t79 33t54 58t20 86.5v84q-2 47 -24.5 82t-57 58.5t-79.5 36t-92 12.5t-93.5 -12.5t-82 -36 t-57 -58t-21.5 -82.5v-84z" />
<glyph unicode="h" horiz-adv-x="1124" d="M147 0v1475h158v-656q51 92 145 149.5t205 57.5q172 0 255 -93t83 -263v-670h-155v670q0 102 -60.5 157.5t-163.5 55.5q-53 0 -108 -21.5t-99.5 -58.5t-73 -85t-28.5 -102v-616h-158z" />
<glyph unicode="i" horiz-adv-x="505" d="M172 1212v181h168v-181h-168zM180 0v1004h156v-1004h-156z" />
<glyph unicode="j" horiz-adv-x="546" d="M-90 -324q70 39 127 73t99 78t65.5 108.5t23.5 162.5v906h156v-916q0 -115 -29.5 -195.5t-84 -139t-131.5 -102.5t-173 -85zM219 1212v181h160v-181h-160z" />
<glyph unicode="k" horiz-adv-x="940" d="M147 0v1454h158v-846h68l342 396h180l-391 -461l432 -543h-195l-372 471h-64v-471h-158z" />
<glyph unicode="l" horiz-adv-x="499" d="M172 0v1454h156v-1454h-156z" />
<glyph unicode="m" horiz-adv-x="1703" d="M150 0v1004h137l12 -177q47 86 133 142.5t186 56.5q113 0 191 -42t106 -153q49 90 135 142.5t195 52.5q162 0 244 -85t82 -247v-694h-156v659q0 104 -49 164t-152 60q-59 0 -110 -19.5t-88 -55.5t-58.5 -84t-21.5 -106v-618h-156v670q0 102 -50 159.5t-150 57.5 q-51 0 -100.5 -23.5t-87.5 -62.5t-61.5 -88t-23.5 -101v-612h-157z" />
<glyph unicode="n" horiz-adv-x="1126" d="M150 0v1004h141l16 -183q59 92 143 148.5t197 56.5q172 0 259 -93t87 -263v-670h-155v649q0 109 -58.5 171.5t-165.5 62.5q-53 0 -108 -21.5t-99.5 -58.5t-72 -85t-27.5 -102v-616h-157z" />
<glyph unicode="o" horiz-adv-x="1036" d="M96 342v326q0 84 34 149.5t91.5 112.5t135 71.5t163.5 24.5q90 0 166 -24.5t133.5 -71.5t89 -112.5t31.5 -149.5v-326q0 -84 -35 -150.5t-92 -113.5t-133 -71.5t-160 -24.5t-160.5 24.5t-135 71.5t-93.5 113.5t-35 150.5zM252 342q0 -51 22.5 -92t59.5 -68.5t86 -42 t100 -14.5t98.5 14.5t84 42t59 68.5t22.5 92v326q0 51 -22.5 91t-59 67.5t-84 42t-98.5 14.5t-99 -14.5t-86 -42t-60.5 -67.5t-22.5 -91v-326z" />
<glyph unicode="p" horiz-adv-x="1095" d="M147 -451v1455h125l25 -140q51 74 132 117t181 43q84 0 156 -26.5t123 -73.5t79.5 -113t28.5 -143v-326q0 -80 -28.5 -146.5t-79.5 -114.5t-123 -74.5t-156 -26.5q-98 0 -180 33.5t-125 105.5v-570h-158zM305 342q0 -51 22.5 -92t60.5 -69.5t88 -44t106 -15.5 q53 0 100 15.5t82 44t56.5 69.5t21.5 92v322q0 53 -20.5 94t-56.5 68.5t-83 42t-100 14.5q-55 0 -104.5 -17.5t-88.5 -46t-61.5 -68.5t-22.5 -85v-324z" />
<glyph unicode="q" horiz-adv-x="1042" d="M96 340v330q0 82 29 147.5t79 111.5t119.5 71.5t151.5 25.5q92 0 178 -36t146 -109l24 123h123v-1455h-155v576q-25 -39 -61 -65.5t-78 -44t-88 -24.5t-89 -7q-82 0 -151.5 24.5t-120.5 70.5t-79 112.5t-28 148.5zM252 340q0 -49 21.5 -89t58.5 -67.5t84 -43t96 -15.5 q53 0 102.5 13.5t87 41t61 67.5t23.5 93v330q0 51 -24.5 91t-63.5 67.5t-88 42t-98 14.5q-53 0 -100 -15.5t-83 -43t-56.5 -68.5t-20.5 -92v-326z" />
<glyph unicode="r" horiz-adv-x="675" d="M158 0v1004h123l22 -195q14 41 40 80t58.5 68.5t73.5 48t86 18.5q63 0 107 -14l-29 -146q-18 4 -47 7t-53 3q-49 0 -91 -22.5t-71 -61t-45.5 -88t-16.5 -102.5v-600h-157z" />
<glyph unicode="s" horiz-adv-x="911" d="M74 143l76 113q55 -57 143 -97t170 -40q47 0 87 6t70.5 22.5t48 46t17.5 76.5t-24.5 77t-63.5 48.5t-87 29.5t-93 26q-66 20 -121 42.5t-96 55.5t-63.5 79t-22.5 113q0 76 27.5 129.5t76.5 87t114.5 50t141.5 16.5q41 0 85 -9t88 -25.5t84 -39t73 -49.5l-76 -121 q-53 41 -123.5 73t-138.5 32q-86 0 -141.5 -29t-55.5 -113q0 -43 24.5 -69.5t61.5 -43t81 -27.5t85 -23q66 -20 123 -44t100 -58t68 -79t25 -110q0 -82 -30 -140.5t-81 -95.5t-121.5 -54t-150.5 -17q-111 0 -209.5 42t-171.5 119z" />
<glyph unicode="t" horiz-adv-x="763" d="M33 883v121h190v301h156v-301h272v-121h-272v-629q0 -55 30 -90t85 -35q29 0 61.5 5t61 11.5t52 13.5t31.5 11l39 -117q-18 -8 -46.5 -18t-62.5 -20.5t-70 -17.5t-71 -7q-127 0 -196.5 62.5t-69.5 189.5v641h-190z" />
<glyph unicode="u" horiz-adv-x="1112" d="M147 338v666h158v-666q0 -51 21.5 -91t56.5 -67.5t82 -42t98 -14.5q49 0 96.5 14.5t84 42t58 67.5t21.5 91v666h156v-666q0 -84 -34 -150.5t-90 -112.5t-132 -70.5t-160 -24.5t-159.5 24.5t-132 70.5t-90.5 112.5t-34 150.5z" />
<glyph unicode="v" horiz-adv-x="1034" d="M43 1004h168l309 -830l303 830h168l-399 -1004h-148z" />
<glyph unicode="w" horiz-adv-x="1402" d="M43 1004h164l201 -836l213 836h159l224 -832l194 832h162l-277 -1006h-163l-215 784l-213 -784h-170z" />
<glyph unicode="x" horiz-adv-x="933" d="M41 0l336 522l-316 482h170l238 -367l236 367h174l-322 -482l336 -522h-170l-254 403l-256 -403h-172z" />
<glyph unicode="y" horiz-adv-x="942" d="M39 1004h166l270 -846l270 846h166l-393 -1125q-55 -162 -179 -237.5t-278 -77.5l-14 127q100 2 192.5 57t131.5 158l20 65z" />
<glyph unicode="z" horiz-adv-x="888" d="M86 0v100l502 779h-492v125h672v-84l-500 -785h535v-135h-717z" />
<glyph unicode="{" horiz-adv-x="612" d="M150 602l77 111l-53 348q0 80 18.5 143.5t54.5 118.5t90 105.5t126 101.5l45 -96q-109 -74 -154 -165t-47 -204l45 -365l-59 -94l63 -80l-49 -422q4 -119 53.5 -210t155.5 -164l-49 -101q-82 57 -137.5 111.5t-90 112t-50 122t-15.5 140.5l51 395z" />
<glyph unicode="|" horiz-adv-x="456" d="M168 -301v1694h123v-1694h-123z" />
<glyph unicode="}" horiz-adv-x="630" d="M150 -268q121 76 171 169t54 203l-51 424l63 78l-61 92l49 367q-2 98 -49 194.5t-166 174.5l49 92q154 -98 226.5 -208t72.5 -257l-57 -348l84 -111l-84 -92l57 -395q0 -141 -68.5 -256t-234.5 -226z" />
<glyph unicode="~" horiz-adv-x="804" d="M100 1280q39 63 83 98t104 35q35 0 69.5 -14.5t68.5 -30.5t66.5 -30.5t63.5 -14.5q35 2 54.5 21.5t35.5 46.5l84 -56q-10 -18 -25.5 -41.5t-36 -45t-47 -36t-61.5 -14.5q-41 0 -76.5 14.5t-68.5 31t-64.5 30.5t-68.5 14t-61.5 -24.5t-39.5 -46.5z" />
<glyph unicode="&#xa1;" horiz-adv-x="505" d="M186 -403l27 950h139l29 -950h-195zM193 821v183h180v-183h-180z" />
<glyph unicode="&#xa2;" horiz-adv-x="968" d="M96 354v295q0 70 32 136.5t85 117.5t124 83t146 32h52l43 274l135 -22l-45 -262q57 -16 110 -51t94 -89l-94 -100q-47 57 -113.5 87t-134.5 30q-55 0 -104 -19.5t-88 -52.5t-61.5 -75t-22.5 -89v-295q0 -51 21.5 -94t59.5 -74.5t88 -50t107 -18.5q70 0 136.5 20.5 t113.5 69.5l82 -117q-74 -70 -147.5 -93.5t-161.5 -23.5h-27.5t-29.5 4l-45 -256l-132 21l43 254q-61 16 -111 53t-84 86t-52.5 105.5t-18.5 113.5z" />
<glyph unicode="&#xa3;" horiz-adv-x="1107" d="M96 608v125h287l-21 238q0 100 41 181t115 138.5t176.5 88t225.5 30.5v-143q-178 0 -288 -77t-112 -210l23 -246h346v-125h-332q4 -63 9 -108.5t5 -55.5q0 -49 -2 -90t-13 -77.5t-32.5 -69.5t-62.5 -64h551v-143h-893v119q94 4 151.5 27.5t89 63.5t43 95t11.5 119 l-17 184h-301z" />
<glyph unicode="&#xa5;" horiz-adv-x="1333" d="M43 1393h182l439 -615l436 615h190l-512 -705h398v-104h-435v-156h433v-100h-433v-328h-155v328h-416v100h416v156h-416v104h379z" />
<glyph unicode="&#xa6;" horiz-adv-x="325" d="M96 -225v674h133v-674h-133zM96 745v674h133v-674h-133z" />
<glyph unicode="&#xa7;" horiz-adv-x="1171" d="M111 606q0 41 14 81t37.5 73t53.5 57.5t63 34.5q-35 45 -47.5 100.5t-12.5 106.5q0 86 31 151.5t86 110.5t129 67.5t160 22.5q133 0 232 -48t155 -134l-90 -90q-43 66 -121 102.5t-172 36.5q-106 0 -179 -59.5t-73 -159.5q0 -63 33.5 -110.5t86 -83.5t115 -63t117.5 -50 q72 -31 135.5 -66t111.5 -80t76.5 -102.5t28.5 -132.5q0 -37 -8 -76t-26.5 -75t-50 -65.5t-81.5 -50.5q33 -41 48.5 -93t15.5 -103q0 -86 -32 -154.5t-87 -115t-129 -71t-158 -24.5q-133 0 -242.5 55.5t-162.5 149.5l102 86q16 -33 47 -61.5t71 -50t86 -34t91 -12.5 q51 0 98.5 12.5t82 39t56 69.5t21.5 103q0 63 -40 116.5t-101 96.5t-133 76.5t-137 60.5q-63 27 -117.5 56.5t-95.5 70.5t-64.5 96t-23.5 133zM264 608q0 -47 19.5 -81.5t55.5 -62.5t87 -51.5t117 -52.5q72 -33 138.5 -64.5t127.5 -76.5q25 4 46.5 17.5t38.5 32t27.5 42 t10.5 43.5q0 49 -18.5 86t-54.5 67t-89 55.5t-121 53.5q-72 29 -134 61t-124 77q-53 -6 -90 -51.5t-37 -94.5z" />
<glyph unicode="&#xa8;" horiz-adv-x="735" d="M102 1196v170h164v-170h-164zM471 1196v170h162v-170h-162z" />
<glyph unicode="&#xa9;" horiz-adv-x="1628" d="M96 715q0 152 56.5 282.5t152.5 228t228.5 154t281.5 56.5q150 0 281 -56.5t228 -154t153.5 -228.5t56.5 -282q0 -150 -56.5 -281t-153.5 -227t-228 -152.5t-281 -56.5t-282 55.5t-228 152.5t-152.5 228t-56.5 281zM207 715q0 -127 47 -238.5t130 -193.5t193.5 -129.5 t239.5 -47.5q127 0 237.5 47.5t193.5 129.5t130 193.5t47 238.5t-47 238.5t-130 194.5t-193.5 130t-237.5 47q-129 0 -239.5 -47t-193.5 -130t-130 -194.5t-47 -238.5zM446 651v97q0 70 31 131t82 106t121 70.5t145 25.5q100 0 173 -31.5t137 -105.5l-76 -94 q-39 47 -103.5 74.5t-130.5 27.5q-49 0 -92 -16t-75.5 -44t-51 -64.5t-18.5 -79.5v-97q0 -45 20.5 -83t54 -65.5t77.5 -42t94 -14.5q66 0 130 24t109 65l68 -99q-55 -59 -141.5 -89t-170.5 -30q-80 0 -150.5 25t-121.5 70t-81 105.5t-30 133.5z" />
<glyph unicode="&#xaa;" horiz-adv-x="698" d="M96 954v144l371 53v29q0 72 -35 96t-94 24q-18 0 -42 -5t-46.5 -12t-42 -15t-31.5 -15l-45 99q41 23 98.5 40t114.5 19q113 0 181.5 -50t68.5 -161v-422h-90l-27 64q-29 -33 -77 -50.5t-93 -17.5q-92 0 -151.5 49t-59.5 131zM221 958q0 -29 35 -50t78 -21q20 0 42.5 5 t42 15.5t32 24.5t12.5 31v98l-242 -35v-68z" />
<glyph unicode="&#xab;" horiz-adv-x="940" d="M96 356l324 371l65 -76l-223 -291l223 -282l-65 -78zM455 356l321 371l68 -76l-223 -291l221 -282l-66 -78z" />
<glyph unicode="&#xac;" horiz-adv-x="909" d="M96 551v129h717v-322h-125v193h-592z" />
<glyph unicode="&#xad;" horiz-adv-x="671" d="M96 516v143h479v-143h-479z" />
<glyph unicode="&#xae;" horiz-adv-x="1628" d="M96 715q0 154 54.5 284.5t151.5 228t228.5 153t284.5 55.5q152 0 284 -55.5t228 -153t151.5 -228.5t55.5 -284q0 -152 -55.5 -283t-151.5 -227t-228 -151.5t-284 -55.5q-154 0 -285 54t-228 150.5t-151.5 227.5t-54.5 285zM207 715q0 -129 47 -241t129 -192.5t193.5 -128 t240.5 -47.5t239.5 47.5t192.5 128t129 192.5t47 241t-47 240.5t-129 193.5t-192.5 129t-239.5 47t-240.5 -47t-193.5 -129t-129 -193.5t-47 -240.5zM549 324v780h332q49 0 92 -17.5t74.5 -48t50 -71.5t18.5 -88v-35q0 -76 -47 -128t-125 -69l201 -323h-144l-192 309h-137 v-309h-123zM670 733h196q47 0 88 29t41 76v36q0 49 -37.5 84t-91.5 35h-196v-260z" />
<glyph unicode="&#xaf;" horiz-adv-x="929" d="M102 1305v98h725v-98h-725z" />
<glyph unicode="&#xb0;" horiz-adv-x="745" d="M96 1124v60q0 51 21.5 93t59.5 71.5t88.5 47t107.5 17.5q55 0 105 -17.5t88 -47t60.5 -71.5t22.5 -93v-60q0 -51 -22.5 -93t-60.5 -72.5t-88 -47t-105 -16.5q-57 0 -107.5 16.5t-88.5 47t-59.5 72.5t-21.5 93zM225 1114q2 -47 46 -75.5t102 -28.5q57 0 102 28.5t45 75.5 v80q0 47 -45 76.5t-102 29.5t-102.5 -29.5t-45.5 -76.5v-80z" />
<glyph unicode="&#xb1;" horiz-adv-x="1110" d="M96 0v127h918v-127h-918zM113 627v135h358v338h147v-338h369v-135h-369v-363h-147v363h-358z" />
<glyph unicode="&#xb2;" horiz-adv-x="958" d="M188 696v88q0 53 19.5 95.5t55.5 75t83 59t103 47.5q29 12 60.5 24.5t57 28.5t42 36.5t16.5 47.5q0 45 -27 71.5t-119 26.5q-66 0 -110.5 -24.5t-83.5 -69.5l-74 88q41 53 111.5 88t162.5 35q143 0 207 -55t64 -156q0 -43 -15.5 -74.5t-42 -57.5t-60.5 -45t-71 -36 q-41 -18 -82 -34.5t-73.5 -37t-53 -45t-24.5 -59.5h420v-117h-566z" />
<glyph unicode="&#xb3;" horiz-adv-x="722" d="M88 852l98 43q12 -53 67.5 -82t121.5 -29q29 0 58.5 4.5t53 14.5t39 26.5t15.5 40.5v27q0 29 -14.5 49.5t-38 33.5t-51 20.5t-56.5 7.5h-131v108h121q27 0 55.5 4t51 14.5t37.5 29t15 48.5v19q0 29 -13 46t-34.5 28.5t-48 15.5t-53.5 4q-70 0 -124 -29.5t-69 -76.5 l-86 49q10 37 37 67.5t65 54t83 36t92 12.5q57 0 108.5 -8.5t89 -31t60 -61.5t22.5 -100v-16q0 -39 -13 -67t-32.5 -46t-44 -29.5t-49.5 -17.5q25 -6 50.5 -18.5t47 -32t36 -47t14.5 -66.5v-31q0 -55 -23.5 -92t-63.5 -59.5t-92.5 -32.5t-109.5 -10q-104 0 -186 46t-105 134 z" />
<glyph unicode="&#xb4;" horiz-adv-x="516" d="M102 1159l201 301l111 -82l-219 -274z" />
<glyph unicode="&#xb6;" horiz-adv-x="1062" d="M96 1040v62q0 123 84 206t232 85h483v-1393h-115v1294h-172v-1294h-123v764h-73q-139 0 -227.5 72.5t-88.5 203.5z" />
<glyph unicode="&#xb7;" horiz-adv-x="389" d="M131 408v219h209v-219h-209z" />
<glyph unicode="&#xb8;" horiz-adv-x="487" d="M102 -182l41 182h123l-28 -115q8 -4 31.5 -14t49 -32.5t46 -58.5t20.5 -87q0 -82 -63.5 -137.5t-167.5 -85.5l-48 90q14 6 38 16t47.5 25.5t40 37t16.5 46.5q0 35 -16.5 58.5t-39 38.5t-47 23.5t-43.5 12.5z" />
<glyph unicode="&#xb9;" horiz-adv-x="548" d="M61 1253v140h355v-699h-133v559h-222z" />
<glyph unicode="&#xba;" horiz-adv-x="747" d="M96 1014v170q0 49 22.5 91t60.5 72.5t88.5 48t105.5 17.5t105 -17.5t88 -48t60.5 -72.5t22.5 -91v-172q0 -51 -22.5 -93t-60.5 -72t-88 -46.5t-105 -16.5t-105.5 16.5t-88.5 47.5t-60.5 73t-22.5 93zM229 1022q4 -59 42 -90t104 -31q53 0 97 27.5t44 75.5v186 q-2 49 -45 76.5t-96 27.5q-55 0 -100.5 -28.5t-45.5 -77.5v-166z" />
<glyph unicode="&#xbb;" horiz-adv-x="927" d="M74 651l65 76l326 -371l-326 -356l-63 78l221 282zM432 651l66 76l323 -371l-323 -356l-64 78l221 282z" />
<glyph unicode="&#xbc;" horiz-adv-x="1390" d="M61 1253v140h355v-699h-133v559h-222zM104 0l916 1393h145l-907 -1393h-154zM659 199v82l320 453h190v-430h148v-105h-148v-194h-129v194h-381zM803 304h237v329h-12z" />
<glyph unicode="&#xbd;" horiz-adv-x="1345" d="M61 1253v140h355v-699h-133v559h-222zM78 0l916 1393h145l-907 -1393h-154zM716 2v88q0 53 19.5 95.5t55.5 75t83 59t103 47.5q29 12 60.5 24.5t57 28.5t42 36.5t16.5 47.5q0 45 -27 71.5t-119 26.5q-66 0 -110.5 -24.5t-83.5 -69.5l-74 88q41 53 111.5 88t162.5 35 q143 0 207 -55t64 -156q0 -43 -15.5 -74.5t-42 -57.5t-60.5 -45t-71 -36q-41 -18 -82 -34.5t-73.5 -37t-53 -45t-24.5 -59.5h420v-117h-566z" />
<glyph unicode="&#xbe;" horiz-adv-x="1474" d="M57 852l98 43q12 -53 67.5 -82t121.5 -29q29 0 58.5 4.5t53 14.5t39 26.5t15.5 40.5v27q0 29 -14.5 49.5t-38 33.5t-51 20.5t-56.5 7.5h-131v108h121q27 0 55.5 4t51 14.5t37.5 29t15 48.5v19q0 29 -13 46t-34.5 28.5t-48 15.5t-53.5 4q-70 0 -124 -29.5t-69 -76.5 l-86 49q10 37 37 67.5t65 54t83 36t92 12.5q57 0 108.5 -8.5t89 -31t60 -61.5t22.5 -100v-16q0 -39 -13 -67t-32.5 -46t-44 -29.5t-49.5 -17.5q25 -6 50.5 -18.5t47 -32t36 -47t14.5 -66.5v-31q0 -55 -23.5 -92t-63.5 -59.5t-92.5 -32.5t-109.5 -10q-104 0 -186 46t-105 134 zM243 0l916 1393h145l-907 -1393h-154zM761 196v82l320 453h190v-430h148v-105h-148v-194h-129v194h-381zM905 301h237v329h-12z" />
<glyph unicode="&#xbf;" horiz-adv-x="813" d="M90 -23q0 74 43 124.5t103 99.5q31 27 58.5 53.5t49 56t33.5 63.5t12 77v124h152v-153q0 -92 -49.5 -160.5t-120.5 -130.5q-45 -41 -85 -80t-40 -92v-100q0 -49 19.5 -82t47 -52.5t61.5 -26.5t60 -7q66 0 131.5 33.5t124.5 80.5l66 -112q-57 -53 -137.5 -96t-180.5 -43 q-348 0 -348 305v118zM352 782v222h215v-222h-215z" />
<glyph unicode="&#xc0;" d="M45 0l506 1409h180l492 -1409h-168l-146 422h-542l-152 -422h-170zM410 555h454l-225 668zM413 1808l117 86l195 -305l-90 -63z" />
<glyph unicode="&#xc1;" d="M45 0l506 1409h180l492 -1409h-168l-146 422h-542l-152 -422h-170zM410 555h454l-225 668zM540 1589l201 301l111 -82l-219 -274z" />
<glyph unicode="&#xc2;" d="M45 0l506 1409h180l492 -1409h-168l-146 422h-542l-152 -422h-170zM378 1605l254 177l256 -181l-65 -84l-189 125l-192 -123zM410 555h454l-225 668z" />
<glyph unicode="&#xc3;" d="M45 0l506 1409h180l492 -1409h-168l-146 422h-542l-152 -422h-170zM319 1628q39 63 83 98t104 35q35 0 69.5 -14.5t68.5 -30.5t66.5 -30.5t63.5 -14.5q35 2 54.5 21.5t35.5 46.5l84 -56q-10 -18 -25.5 -41.5t-36 -45t-47 -36t-61.5 -14.5q-41 0 -76.5 14.5t-68.5 31 t-64.5 30.5t-68.5 14t-61.5 -24.5t-39.5 -46.5zM410 555h454l-225 668z" />
<glyph unicode="&#xc4;" d="M45 0l506 1409h180l492 -1409h-168l-146 422h-542l-152 -422h-170zM368 1542v170h164v-170h-164zM410 555h454l-225 668zM737 1542v170h162v-170h-162z" />
<glyph unicode="&#xc5;" d="M45 0l506 1409h180l492 -1409h-168l-146 422h-542l-152 -422h-170zM410 555h454l-225 668zM473 1691q0 68 47 113t112 45q66 0 115 -45t49 -113q0 -66 -49 -112.5t-115 -46.5q-33 0 -61.5 12t-50 33.5t-34.5 51.5t-13 62zM553 1689q0 -35 23.5 -57t57.5 -22 q35 0 58.5 22.5t23.5 56.5q0 35 -23.5 60.5t-58.5 25.5t-58 -25.5t-23 -60.5z" />
<glyph unicode="&#xc6;" horiz-adv-x="1851" d="M41 0l872 1393h811v-144h-577v-458h487v-134h-485v-514h625v-143h-783v383h-524l-246 -383h-180zM541 516h450v735z" />
<glyph unicode="&#xc7;" horiz-adv-x="1110" d="M115 418v557q0 102 40 183t108.5 137.5t159.5 87t193 30.5q147 0 252 -44t189 -134l-90 -111q-66 68 -153 107t-198 39q-70 0 -132 -20.5t-110 -58.5t-76 -92.5t-28 -123.5v-557q0 -74 27 -129.5t74 -92t110.5 -55t136.5 -18.5q106 0 201.5 28.5t167.5 90.5l72 -119 q-92 -82 -201.5 -112.5t-239.5 -30.5q-106 0 -198 28.5t-159.5 83.5t-106.5 137t-39 189zM505 -182l41 182h123l-28 -115q8 -4 31.5 -14t49 -32.5t46 -58.5t20.5 -87q0 -82 -63.5 -137.5t-167.5 -85.5l-48 90q14 6 38 16t47.5 25.5t40 37t16.5 46.5q0 35 -16.5 58.5 t-39 38.5t-47 23.5t-43.5 12.5z" />
<glyph unicode="&#xc8;" horiz-adv-x="1040" d="M168 0v1393h729v-144h-573v-465h481v-137h-481v-504h620v-143h-776zM333 1792l117 86l195 -305l-90 -63z" />
<glyph unicode="&#xc9;" horiz-adv-x="1040" d="M168 0v1393h729v-144h-573v-465h481v-137h-481v-504h620v-143h-776zM462 1589l201 301l111 -82l-219 -274z" />
<glyph unicode="&#xca;" horiz-adv-x="1040" d="M168 0v1393h729v-144h-573v-465h481v-137h-481v-504h620v-143h-776zM299 1605l254 177l256 -181l-65 -84l-189 125l-192 -123z" />
<glyph unicode="&#xcb;" horiz-adv-x="1040" d="M168 0v1393h729v-144h-573v-465h481v-137h-481v-504h620v-143h-776zM290 1542v170h164v-170h-164zM659 1542v170h162v-170h-162z" />
<glyph unicode="&#xcc;" horiz-adv-x="602" d="M96 1812l117 86l195 -305l-90 -63zM233 0v1393h156v-1393h-156z" />
<glyph unicode="&#xcd;" horiz-adv-x="602" d="M208 1589l201 301l111 -82l-219 -274zM223 0v1393h156v-1393h-156z" />
<glyph unicode="&#xce;" horiz-adv-x="602" d="M57 1607l254 177l256 -181l-65 -84l-189 125l-192 -123zM231 0v1393h156v-1393h-156z" />
<glyph unicode="&#xcf;" horiz-adv-x="602" d="M43 1538v170h164v-170h-164zM227 0v1393h156v-1393h-156zM412 1538v170h162v-170h-162z" />
<glyph unicode="&#xd0;" horiz-adv-x="1372" d="M49 647v127h273v637h417q104 0 201.5 -31.5t171.5 -89t119 -136.5t45 -173v-545q0 -100 -42 -180t-116 -137.5t-172 -88t-209 -30.5h-415v647h-273zM477 141h260q78 0 147.5 20.5t122 59.5t82 93.5t29.5 121.5v545q0 61 -32.5 113.5t-86 90.5t-121 60.5t-139.5 22.5h-260 v-494h307v-127h-309v-506z" />
<glyph unicode="&#xd1;" horiz-adv-x="1441" d="M168 0v1393h203l762 -1211v1211h141v-1393h-209l-756 1204v-1204h-141zM405 1608q39 63 83 98t104 35q35 0 69.5 -14.5t68.5 -30.5t66.5 -30.5t63.5 -14.5q35 2 54.5 21.5t35.5 46.5l84 -56q-10 -18 -25.5 -41.5t-36 -45t-47 -36t-61.5 -14.5q-41 0 -76.5 14.5t-68.5 31 t-64.5 30.5t-68.5 14t-61.5 -24.5t-39.5 -46.5z" />
<glyph unicode="&#xd2;" horiz-adv-x="1331" d="M115 418v557q0 102 45 183t119.5 138.5t171 87t198.5 29.5h35q102 0 197.5 -30.5t170 -87t120 -137.5t45.5 -183v-557q0 -106 -44.5 -188.5t-118 -137.5t-170 -83.5t-200.5 -28.5h-33q-106 0 -203.5 27.5t-171 82.5t-117.5 137t-44 191zM270 418q0 -74 32 -129.5t84 -92 t122 -55t143 -18.5h33q72 0 140.5 18.5t120.5 55t84 92t32 129.5v555q0 70 -33 125t-86 93t-120.5 58.5t-137.5 20.5h-35q-70 0 -138.5 -20.5t-121.5 -58.5t-86 -92.5t-33 -123.5v-557zM444 1812l117 86l195 -305l-90 -63z" />
<glyph unicode="&#xd3;" horiz-adv-x="1331" d="M115 418v557q0 102 45 183t119.5 138.5t171 87t198.5 29.5h35q102 0 197.5 -30.5t170 -87t120 -137.5t45.5 -183v-557q0 -106 -44.5 -188.5t-118 -137.5t-170 -83.5t-200.5 -28.5h-33q-106 0 -203.5 27.5t-171 82.5t-117.5 137t-44 191zM270 418q0 -74 32 -129.5t84 -92 t122 -55t143 -18.5h33q72 0 140.5 18.5t120.5 55t84 92t32 129.5v555q0 70 -33 125t-86 93t-120.5 58.5t-137.5 20.5h-35q-70 0 -138.5 -20.5t-121.5 -58.5t-86 -92.5t-33 -123.5v-557zM573 1589l201 301l111 -82l-219 -274z" />
<glyph unicode="&#xd4;" horiz-adv-x="1331" d="M115 418v557q0 102 45 183t119.5 138.5t171 87t198.5 29.5h35q102 0 197.5 -30.5t170 -87t120 -137.5t45.5 -183v-557q0 -106 -44.5 -188.5t-118 -137.5t-170 -83.5t-200.5 -28.5h-33q-106 0 -203.5 27.5t-171 82.5t-117.5 137t-44 191zM270 418q0 -74 32 -129.5t84 -92 t122 -55t143 -18.5h33q72 0 140.5 18.5t120.5 55t84 92t32 129.5v555q0 70 -33 125t-86 93t-120.5 58.5t-137.5 20.5h-35q-70 0 -138.5 -20.5t-121.5 -58.5t-86 -92.5t-33 -123.5v-557zM409 1626l254 177l256 -181l-65 -84l-189 125l-192 -123z" />
<glyph unicode="&#xd5;" horiz-adv-x="1331" d="M115 418v557q0 102 45 183t119.5 138.5t171 87t198.5 29.5h35q102 0 197.5 -30.5t170 -87t120 -137.5t45.5 -183v-557q0 -106 -44.5 -188.5t-118 -137.5t-170 -83.5t-200.5 -28.5h-33q-106 0 -203.5 27.5t-171 82.5t-117.5 137t-44 191zM270 418q0 -74 32 -129.5t84 -92 t122 -55t143 -18.5h33q72 0 140.5 18.5t120.5 55t84 92t32 129.5v555q0 70 -33 125t-86 93t-120.5 58.5t-137.5 20.5h-35q-70 0 -138.5 -20.5t-121.5 -58.5t-86 -92.5t-33 -123.5v-557zM350 1628q39 63 83 98t104 35q35 0 69.5 -14.5t68.5 -30.5t66.5 -30.5t63.5 -14.5 q35 2 54.5 21.5t35.5 46.5l84 -56q-10 -18 -25.5 -41.5t-36 -45t-47 -36t-61.5 -14.5q-41 0 -76.5 14.5t-68.5 31t-64.5 30.5t-68.5 14t-61.5 -24.5t-39.5 -46.5z" />
<glyph unicode="&#xd6;" horiz-adv-x="1331" d="M115 418v557q0 102 45 183t119.5 138.5t171 87t198.5 29.5h35q102 0 197.5 -30.5t170 -87t120 -137.5t45.5 -183v-557q0 -106 -44.5 -188.5t-118 -137.5t-170 -83.5t-200.5 -28.5h-33q-106 0 -203.5 27.5t-171 82.5t-117.5 137t-44 191zM270 418q0 -74 32 -129.5t84 -92 t122 -55t143 -18.5h33q72 0 140.5 18.5t120.5 55t84 92t32 129.5v555q0 70 -33 125t-86 93t-120.5 58.5t-137.5 20.5h-35q-70 0 -138.5 -20.5t-121.5 -58.5t-86 -92.5t-33 -123.5v-557zM399 1542v170h164v-170h-164zM768 1542v170h162v-170h-162z" />
<glyph unicode="&#xd7;" horiz-adv-x="1130" d="M96 0l393 516l-372 488h147l299 -390l305 390h146l-373 -488l395 -516h-157l-316 418l-313 -418h-154z" />
<glyph unicode="&#xd8;" horiz-adv-x="1277" d="M115 418v557q0 102 45 183t119.5 138.5t171 87t198.5 29.5h35q119 0 225 -41l86 189h125l-108 -240q92 -55 148.5 -143t56.5 -203v-557q0 -106 -44.5 -188.5t-118 -137.5t-170 -83.5t-200.5 -28.5h-33q-61 0 -119.5 10t-111.5 26l-74 -168h-131l98 218q-90 53 -144 141 t-54 211zM270 418q0 -72 31 -124t82 -87l465 1032q-80 31 -164 31h-35q-70 0 -138.5 -20.5t-121.5 -58.5t-86 -92.5t-33 -123.5v-557zM483 147q78 -25 168 -24h33q72 0 140.5 18.5t120.5 55t84 92t32 129.5v555q0 66 -33 118t-84 87z" />
<glyph unicode="&#xd9;" horiz-adv-x="1396" d="M168 426v967h156v-967q0 -78 29.5 -135.5t80.5 -94t120 -55t146 -18.5q74 0 141.5 19.5t119 57.5t82 95t30.5 131v967h156v-967q0 -111 -41 -195t-112.5 -140t-167 -83.5t-206.5 -27.5q-113 0 -210 27.5t-169.5 82.5t-113.5 139t-41 197zM477 1751l117 86l195 -305 l-90 -63z" />
<glyph unicode="&#xda;" horiz-adv-x="1396" d="M168 426v967h156v-967q0 -78 29.5 -135.5t80.5 -94t120 -55t146 -18.5q74 0 141.5 19.5t119 57.5t82 95t30.5 131v967h156v-967q0 -111 -41 -195t-112.5 -140t-167 -83.5t-206.5 -27.5q-113 0 -210 27.5t-169.5 82.5t-113.5 139t-41 197zM604 1528l201 301l111 -82 l-219 -274z" />
<glyph unicode="&#xdb;" horiz-adv-x="1396" d="M168 426v967h156v-967q0 -78 29.5 -135.5t80.5 -94t120 -55t146 -18.5q74 0 141.5 19.5t119 57.5t82 95t30.5 131v967h156v-967q0 -111 -41 -195t-112.5 -140t-167 -83.5t-206.5 -27.5q-113 0 -210 27.5t-169.5 82.5t-113.5 139t-41 197zM442 1611l254 177l256 -181 l-65 -84l-189 125l-192 -123z" />
<glyph unicode="&#xdc;" horiz-adv-x="1396" d="M168 426v967h156v-967q0 -78 29.5 -135.5t80.5 -94t120 -55t146 -18.5q74 0 141.5 19.5t119 57.5t82 95t30.5 131v967h156v-967q0 -111 -41 -195t-112.5 -140t-167 -83.5t-206.5 -27.5q-113 0 -210 27.5t-169.5 82.5t-113.5 139t-41 197zM432 1544v170h164v-170h-164z M801 1544v170h162v-170h-162z" />
<glyph unicode="&#xdd;" horiz-adv-x="1296" d="M43 1393h182l412 -686l416 686h184l-524 -834v-559h-156v559zM546 1530l201 301l111 -82l-219 -274z" />
<glyph unicode="&#xde;" horiz-adv-x="1024" d="M96 -2v1395h156v-277h303q84 0 152.5 -27.5t117.5 -75.5t77 -115t28 -146v-39q0 -158 -100.5 -248t-274.5 -90h-303v-377h-156zM252 516h297q98 0 160.5 55.5t62.5 141.5v39q0 43 -15.5 82.5t-45 70.5t-70.5 50.5t-92 19.5h-297v-459z" />
<glyph unicode="&#xe0;" horiz-adv-x="1013" d="M98 295v197l629 110v72q0 109 -56.5 160t-164.5 51q-43 0 -90 -10.5t-90 -24.5t-79 -30.5t-59 -31.5l-53 113q33 20 78 42t96 40t106.5 29.5t106.5 11.5q168 0 265.5 -90t97.5 -260v-674h-133l-21 135q-55 -90 -133 -121.5t-176 -31.5q-145 0 -234.5 82.5t-89.5 230.5z M254 301q0 -86 58.5 -133t144.5 -47q47 0 94 13t86 40t63.5 63.5t24.5 84.5v161l-471 -82v-100zM268 1405l117 86l195 -305l-90 -63z" />
<glyph unicode="&#xe1;" horiz-adv-x="1013" d="M98 295v197l629 110v72q0 109 -56.5 160t-164.5 51q-43 0 -90 -10.5t-90 -24.5t-79 -30.5t-59 -31.5l-53 113q33 20 78 42t96 40t106.5 29.5t106.5 11.5q168 0 265.5 -90t97.5 -260v-674h-133l-21 135q-55 -90 -133 -121.5t-176 -31.5q-145 0 -234.5 82.5t-89.5 230.5z M254 301q0 -86 58.5 -133t144.5 -47q47 0 94 13t86 40t63.5 63.5t24.5 84.5v161l-471 -82v-100zM395 1179l201 301l111 -82l-219 -274z" />
<glyph unicode="&#xe2;" horiz-adv-x="1013" d="M98 295v197l629 110v72q0 109 -56.5 160t-164.5 51q-43 0 -90 -10.5t-90 -24.5t-79 -30.5t-59 -31.5l-53 113q33 20 78 42t96 40t106.5 29.5t106.5 11.5q168 0 265.5 -90t97.5 -260v-674h-133l-21 135q-55 -90 -133 -121.5t-176 -31.5q-145 0 -234.5 82.5t-89.5 230.5z M233 1241l254 177l256 -181l-65 -84l-189 125l-192 -123zM254 301q0 -86 58.5 -133t144.5 -47q47 0 94 13t86 40t63.5 63.5t24.5 84.5v161l-471 -82v-100z" />
<glyph unicode="&#xe3;" horiz-adv-x="1013" d="M98 295v197l629 110v72q0 109 -56.5 160t-164.5 51q-43 0 -90 -10.5t-90 -24.5t-79 -30.5t-59 -31.5l-53 113q33 20 78 42t96 40t106.5 29.5t106.5 11.5q168 0 265.5 -90t97.5 -260v-674h-133l-21 135q-55 -90 -133 -121.5t-176 -31.5q-145 0 -234.5 82.5t-89.5 230.5z M174 1280q39 63 83 98t104 35q35 0 69.5 -14.5t68.5 -30.5t66.5 -30.5t63.5 -14.5q35 2 54.5 21.5t35.5 46.5l84 -56q-10 -18 -25.5 -41.5t-36 -45t-47 -36t-61.5 -14.5q-41 0 -76.5 14.5t-68.5 31t-64.5 30.5t-68.5 14t-61.5 -24.5t-39.5 -46.5zM254 301q0 -86 58.5 -133 t144.5 -47q47 0 94 13t86 40t63.5 63.5t24.5 84.5v161l-471 -82v-100z" />
<glyph unicode="&#xe4;" horiz-adv-x="1013" d="M98 295v197l629 110v72q0 109 -56.5 160t-164.5 51q-43 0 -90 -10.5t-90 -24.5t-79 -30.5t-59 -31.5l-53 113q33 20 78 42t96 40t106.5 29.5t106.5 11.5q168 0 265.5 -90t97.5 -260v-674h-133l-21 135q-55 -90 -133 -121.5t-176 -31.5q-145 0 -234.5 82.5t-89.5 230.5z M223 1178v170h164v-170h-164zM254 301q0 -86 58.5 -133t144.5 -47q47 0 94 13t86 40t63.5 63.5t24.5 84.5v161l-471 -82v-100zM592 1178v170h162v-170h-162z" />
<glyph unicode="&#xe5;" horiz-adv-x="1013" d="M98 295v197l629 110v72q0 109 -56.5 160t-164.5 51q-43 0 -90 -10.5t-90 -24.5t-79 -30.5t-59 -31.5l-53 113q33 20 78 42t96 40t106.5 29.5t106.5 11.5q168 0 265.5 -90t97.5 -260v-674h-133l-21 135q-55 -90 -133 -121.5t-176 -31.5q-145 0 -234.5 82.5t-89.5 230.5z M254 301q0 -86 58.5 -133t144.5 -47q47 0 94 13t86 40t63.5 63.5t24.5 84.5v161l-471 -82v-100zM326 1300q0 68 47 113t112 45q66 0 115 -45t49 -113q0 -66 -49 -112.5t-115 -46.5q-33 0 -61.5 12t-50 33.5t-34.5 51.5t-13 62zM406 1298q0 -35 23.5 -57t57.5 -22 q35 0 58.5 22.5t23.5 56.5q0 35 -23.5 60.5t-58.5 25.5t-58 -25.5t-23 -60.5z" />
<glyph unicode="&#xe6;" horiz-adv-x="1652" d="M96 297v186l631 95v98q0 109 -56.5 161t-164.5 52q-39 0 -86 -10.5t-91 -25.5t-82 -31.5t-61 -30.5l-51 112q31 23 75 44.5t94 39t103.5 28.5t104.5 11q113 0 187.5 -44t109.5 -116q47 74 135 118t199 44q84 0 155.5 -25.5t125 -71.5t83 -112.5t29.5 -148.5v-121 l-659 -84v-115q0 -57 26.5 -99t69.5 -70.5t97.5 -43t111.5 -14.5q51 0 98 10t86 26.5t68.5 35t48.5 32.5l73 -104q-78 -70 -177 -103.5t-203 -33.5q-135 0 -241 45t-159 143q-55 -104 -150.5 -146t-195.5 -42q-72 0 -133 21.5t-105.5 61.5t-70 98t-25.5 130zM254 303 q0 -86 58.5 -133t144.5 -47q47 0 95 11t87 33.5t64.5 56.5t25.5 81v156l-475 -66v-92zM877 582l499 59v41q0 104 -66.5 154.5t-170.5 50.5q-53 0 -100.5 -16.5t-83 -46t-57 -68.5t-21.5 -86v-88z" />
<glyph unicode="&#xe7;" horiz-adv-x="927" d="M96 338v328q0 84 31 150.5t85 112.5t127 70.5t159 24.5q119 0 196.5 -34t153.5 -109l-90 -111q-53 53 -120.5 82t-139.5 29q-104 0 -175 -56.5t-71 -158.5v-328q0 -113 72.5 -164t183.5 -51q72 0 137.5 20.5t130.5 73.5l66 -119q-80 -72 -161 -95t-181 -23 q-88 0 -163 22.5t-128 66.5t-83 111.5t-30 157.5zM381 -153l41 182h123l-28 -115q8 -4 31.5 -14t49 -32.5t46 -58.5t20.5 -87q0 -82 -63.5 -137.5t-167.5 -85.5l-48 90q14 6 38 16t47.5 25.5t40 37t16.5 46.5q0 35 -16.5 58.5t-39 38.5t-47 23.5t-43.5 12.5z" />
<glyph unicode="&#xe8;" horiz-adv-x="1009" d="M96 346v330q0 80 33 144.5t89 109.5t133 69.5t165 24.5q84 0 155.5 -24.5t125 -69.5t84 -108.5t30.5 -141.5v-145l-659 -95v-94q0 -57 25.5 -99t68.5 -69.5t98.5 -41t112.5 -13.5q102 0 182 32.5t119 65.5l74 -110q-78 -70 -178.5 -100.5t-204.5 -30.5q-92 0 -174 22.5 t-144.5 67.5t-98.5 113.5t-36 162.5zM252 557l500 72v57q0 90 -67 143.5t-171 53.5q-53 0 -100 -15.5t-83 -42t-57.5 -64.5t-21.5 -85v-119zM292 1382l117 86l195 -305l-90 -63z" />
<glyph unicode="&#xe9;" horiz-adv-x="1009" d="M96 346v330q0 80 33 144.5t89 109.5t133 69.5t165 24.5q84 0 155.5 -24.5t125 -69.5t84 -108.5t30.5 -141.5v-145l-659 -95v-94q0 -57 25.5 -99t68.5 -69.5t98.5 -41t112.5 -13.5q102 0 182 32.5t119 65.5l74 -110q-78 -70 -178.5 -100.5t-204.5 -30.5q-92 0 -174 22.5 t-144.5 67.5t-98.5 113.5t-36 162.5zM252 557l500 72v57q0 90 -67 143.5t-171 53.5q-53 0 -100 -15.5t-83 -42t-57.5 -64.5t-21.5 -85v-119zM419 1179l201 301l111 -82l-219 -274z" />
<glyph unicode="&#xea;" horiz-adv-x="1009" d="M96 346v330q0 80 33 144.5t89 109.5t133 69.5t165 24.5q84 0 155.5 -24.5t125 -69.5t84 -108.5t30.5 -141.5v-145l-659 -95v-94q0 -57 25.5 -99t68.5 -69.5t98.5 -41t112.5 -13.5q102 0 182 32.5t119 65.5l74 -110q-78 -70 -178.5 -100.5t-204.5 -30.5q-92 0 -174 22.5 t-144.5 67.5t-98.5 113.5t-36 162.5zM252 557l500 72v57q0 90 -67 143.5t-171 53.5q-53 0 -100 -15.5t-83 -42t-57.5 -64.5t-21.5 -85v-119zM258 1239l254 177l256 -181l-65 -84l-189 125l-192 -123z" />
<glyph unicode="&#xeb;" horiz-adv-x="1009" d="M96 346v330q0 80 33 144.5t89 109.5t133 69.5t165 24.5q84 0 155.5 -24.5t125 -69.5t84 -108.5t30.5 -141.5v-145l-659 -95v-94q0 -57 25.5 -99t68.5 -69.5t98.5 -41t112.5 -13.5q102 0 182 32.5t119 65.5l74 -110q-78 -70 -178.5 -100.5t-204.5 -30.5q-92 0 -174 22.5 t-144.5 67.5t-98.5 113.5t-36 162.5zM247 1161v170h164v-170h-164zM252 557l500 72v57q0 90 -67 143.5t-171 53.5q-53 0 -100 -15.5t-83 -42t-57.5 -64.5t-21.5 -85v-119zM616 1161v170h162v-170h-162z" />
<glyph unicode="&#xec;" horiz-adv-x="505" d="M51 1402l117 86l195 -305l-90 -63zM193 0v1004h156v-1004h-156z" />
<glyph unicode="&#xed;" horiz-adv-x="505" d="M176 1179l201 301l111 -82l-219 -274zM193 0v1004h156v-1004h-156z" />
<glyph unicode="&#xee;" horiz-adv-x="505" d="M12 1257l254 177l256 -181l-65 -84l-189 125l-192 -123zM188 0v1004h156v-1004h-156z" />
<glyph unicode="&#xef;" horiz-adv-x="505" d="M-2 1178v170h164v-170h-164zM184 0v1004h156v-1004h-156zM367 1178v170h162v-170h-162z" />
<glyph unicode="&#xf0;" horiz-adv-x="1052" d="M96 338v291q0 76 27 141.5t76 112.5t116.5 74.5t149.5 27.5q78 0 156.5 -21.5t132.5 -78.5q-23 92 -77 171t-124 148l-299 -135l-47 98l250 113q-59 45 -118.5 74.5t-131.5 46.5l39 139q213 -55 370 -186l273 123l51 -99l-238 -106q111 -113 173.5 -257.5t62.5 -322.5 v-354q0 -78 -34 -143.5t-91 -113.5t-135 -74.5t-168 -26.5q-86 0 -162 26.5t-131 73.5t-88 112.5t-33 145.5zM252 338q0 -47 20.5 -86t56.5 -67.5t83 -45t100 -16.5t102.5 16.5t86 45t59 67.5t22.5 86v285q0 49 -22.5 89t-59 69.5t-87 45t-105.5 15.5q-51 0 -98.5 -16.5 t-82 -44t-55 -66.5t-20.5 -86v-291z" />
<glyph unicode="&#xf1;" horiz-adv-x="1126" d="M150 0v1004h141l16 -183q59 92 143 148.5t197 56.5q172 0 259 -93t87 -263v-670h-155v649q0 109 -58.5 171.5t-165.5 62.5q-53 0 -108 -21.5t-99.5 -58.5t-72 -85t-27.5 -102v-616h-157zM258 1280q39 63 83 98t104 35q35 0 69.5 -14.5t68.5 -30.5t66.5 -30.5t63.5 -14.5 q35 2 54.5 21.5t35.5 46.5l84 -56q-10 -18 -25.5 -41.5t-36 -45t-47 -36t-61.5 -14.5q-41 0 -76.5 14.5t-68.5 31t-64.5 30.5t-68.5 14t-61.5 -24.5t-39.5 -46.5z" />
<glyph unicode="&#xf2;" horiz-adv-x="1036" d="M96 342v326q0 84 34 149.5t91.5 112.5t135 71.5t163.5 24.5q90 0 166 -24.5t133.5 -71.5t89 -112.5t31.5 -149.5v-326q0 -84 -35 -150.5t-92 -113.5t-133 -71.5t-160 -24.5t-160.5 24.5t-135 71.5t-93.5 113.5t-35 150.5zM252 342q0 -51 22.5 -92t59.5 -68.5t86 -42 t100 -14.5t98.5 14.5t84 42t59 68.5t22.5 92v326q0 51 -22.5 91t-59 67.5t-84 42t-98.5 14.5t-99 -14.5t-86 -42t-60.5 -67.5t-22.5 -91v-326zM297 1382l117 86l195 -305l-90 -63z" />
<glyph unicode="&#xf3;" horiz-adv-x="1036" d="M96 342v326q0 84 34 149.5t91.5 112.5t135 71.5t163.5 24.5q90 0 166 -24.5t133.5 -71.5t89 -112.5t31.5 -149.5v-326q0 -84 -35 -150.5t-92 -113.5t-133 -71.5t-160 -24.5t-160.5 24.5t-135 71.5t-93.5 113.5t-35 150.5zM252 342q0 -51 22.5 -92t59.5 -68.5t86 -42 t100 -14.5t98.5 14.5t84 42t59 68.5t22.5 92v326q0 51 -22.5 91t-59 67.5t-84 42t-98.5 14.5t-99 -14.5t-86 -42t-60.5 -67.5t-22.5 -91v-326zM424 1179l201 301l111 -82l-219 -274z" />
<glyph unicode="&#xf4;" horiz-adv-x="1036" d="M96 342v326q0 84 34 149.5t91.5 112.5t135 71.5t163.5 24.5q90 0 166 -24.5t133.5 -71.5t89 -112.5t31.5 -149.5v-326q0 -84 -35 -150.5t-92 -113.5t-133 -71.5t-160 -24.5t-160.5 24.5t-135 71.5t-93.5 113.5t-35 150.5zM252 342q0 -51 22.5 -92t59.5 -68.5t86 -42 t100 -14.5t98.5 14.5t84 42t59 68.5t22.5 92v326q0 51 -22.5 91t-59 67.5t-84 42t-98.5 14.5t-99 -14.5t-86 -42t-60.5 -67.5t-22.5 -91v-326zM262 1239l254 177l256 -181l-65 -84l-189 125l-192 -123z" />
<glyph unicode="&#xf5;" horiz-adv-x="1036" d="M96 342v326q0 84 34 149.5t91.5 112.5t135 71.5t163.5 24.5q90 0 166 -24.5t133.5 -71.5t89 -112.5t31.5 -149.5v-326q0 -84 -35 -150.5t-92 -113.5t-133 -71.5t-160 -24.5t-160.5 24.5t-135 71.5t-93.5 113.5t-35 150.5zM202 1241q39 63 83 98t104 35q35 0 69.5 -14.5 t68.5 -30.5t66.5 -30.5t63.5 -14.5q35 2 54.5 21.5t35.5 46.5l84 -56q-10 -18 -25.5 -41.5t-36 -45t-47 -36t-61.5 -14.5q-41 0 -76.5 14.5t-68.5 31t-64.5 30.5t-68.5 14t-61.5 -24.5t-39.5 -46.5zM252 342q0 -51 22.5 -92t59.5 -68.5t86 -42t100 -14.5t98.5 14.5t84 42 t59 68.5t22.5 92v326q0 51 -22.5 91t-59 67.5t-84 42t-98.5 14.5t-99 -14.5t-86 -42t-60.5 -67.5t-22.5 -91v-326z" />
<glyph unicode="&#xf6;" horiz-adv-x="1036" d="M96 342v326q0 84 34 149.5t91.5 112.5t135 71.5t163.5 24.5q90 0 166 -24.5t133.5 -71.5t89 -112.5t31.5 -149.5v-326q0 -84 -35 -150.5t-92 -113.5t-133 -71.5t-160 -24.5t-160.5 24.5t-135 71.5t-93.5 113.5t-35 150.5zM252 342q0 -51 22.5 -92t59.5 -68.5t86 -42 t100 -14.5t98.5 14.5t84 42t59 68.5t22.5 92v326q0 51 -22.5 91t-59 67.5t-84 42t-98.5 14.5t-99 -14.5t-86 -42t-60.5 -67.5t-22.5 -91v-326zM252 1157v170h164v-170h-164zM621 1157v170h162v-170h-162z" />
<glyph unicode="&#xf7;" horiz-adv-x="1380" d="M96 514v125h1188v-125h-1188zM580 145v211h217v-211h-217zM580 788v211h217v-211h-217z" />
<glyph unicode="&#xf8;" horiz-adv-x="1030" d="M90 -131l125 217q-55 45 -87 109.5t-32 146.5v326q0 84 34 149.5t91.5 112.5t135 71.5t163.5 24.5q59 0 113.5 -12.5t101.5 -34.5l76 127h111l-103 -176q57 -47 89 -112.5t32 -149.5v-326q0 -84 -35 -150.5t-92 -113.5t-133 -71.5t-160 -24.5q-119 0 -221 51l-94 -164 h-115zM252 342q0 -70 41 -121l371 629q-70 33 -144 33q-51 0 -99 -14.5t-86 -42t-60.5 -67.5t-22.5 -91v-326zM373 162q31 -18 68.5 -27.5t78.5 -9.5q51 0 98.5 14.5t84 42t59 68.5t22.5 92v326q0 35 -13 62.5t-36 49.5z" />
<glyph unicode="&#xf9;" horiz-adv-x="1112" d="M147 338v666h158v-666q0 -51 21.5 -91t56.5 -67.5t82 -42t98 -14.5q49 0 96.5 14.5t84 42t58 67.5t21.5 91v666h156v-666q0 -84 -34 -150.5t-90 -112.5t-132 -70.5t-160 -24.5t-159.5 24.5t-132 70.5t-90.5 112.5t-34 150.5zM344 1382l117 86l195 -305l-90 -63z" />
<glyph unicode="&#xfa;" horiz-adv-x="1112" d="M147 338v666h158v-666q0 -51 21.5 -91t56.5 -67.5t82 -42t98 -14.5q49 0 96.5 14.5t84 42t58 67.5t21.5 91v666h156v-666q0 -84 -34 -150.5t-90 -112.5t-132 -70.5t-160 -24.5t-159.5 24.5t-132 70.5t-90.5 112.5t-34 150.5zM471 1159l201 301l111 -82l-219 -274z" />
<glyph unicode="&#xfb;" horiz-adv-x="1112" d="M147 338v666h158v-666q0 -51 21.5 -91t56.5 -67.5t82 -42t98 -14.5q49 0 96.5 14.5t84 42t58 67.5t21.5 91v666h156v-666q0 -84 -34 -150.5t-90 -112.5t-132 -70.5t-160 -24.5t-159.5 24.5t-132 70.5t-90.5 112.5t-34 150.5zM309 1257l254 177l256 -181l-65 -84l-189 125 l-192 -123z" />
<glyph unicode="&#xfc;" horiz-adv-x="1112" d="M147 338v666h158v-666q0 -51 21.5 -91t56.5 -67.5t82 -42t98 -14.5q49 0 96.5 14.5t84 42t58 67.5t21.5 91v666h156v-666q0 -84 -34 -150.5t-90 -112.5t-132 -70.5t-160 -24.5t-159.5 24.5t-132 70.5t-90.5 112.5t-34 150.5zM299 1196v170h164v-170h-164zM668 1196v170 h162v-170h-162z" />
<glyph unicode="&#xfd;" horiz-adv-x="942" d="M39 1004h166l270 -846l270 846h166l-393 -1125q-55 -162 -179 -237.5t-278 -77.5l-14 127q100 2 192.5 57t131.5 158l20 65zM370 1159l201 301l111 -82l-219 -274z" />
<glyph unicode="&#xfe;" horiz-adv-x="1101" d="M150 -524v1984h155v-577q49 66 136.5 104.5t179.5 38.5q86 0 156.5 -24.5t120.5 -70.5t79 -110.5t29 -144.5v-340q0 -80 -29 -145.5t-80 -113.5t-121.5 -74t-157.5 -26q-98 0 -182 39t-131 109v-649h-155zM315 328q0 -47 22.5 -85t61.5 -65.5t88.5 -42t104.5 -14.5 q53 0 100 14.5t82 41t55.5 65.5t20.5 86v348q0 47 -20.5 85t-56.5 65.5t-82 42t-99 14.5q-55 0 -104.5 -15.5t-88.5 -43t-61.5 -65.5t-22.5 -83v-348z" />
<glyph unicode="&#xff;" horiz-adv-x="942" d="M39 1004h166l270 -846l270 846h166l-393 -1125q-55 -162 -179 -237.5t-278 -77.5l-14 127q100 2 192.5 57t131.5 158l20 65zM198 1196v170h164v-170h-164zM567 1196v170h162v-170h-162z" />
<glyph unicode="&#x152;" horiz-adv-x="1820" d="M115 440v514q0 86 43 165t116.5 139.5t170 96.5t202.5 36h1028v-142h-573v-461h483v-139h-483v-506h622v-143h-1075q-111 0 -209 35t-169.5 94t-113.5 139t-42 172zM270 440q2 -63 32 -118.5t81 -94.5t119.5 -61.5t146.5 -22.5h295v1106h-297q-70 0 -137.5 -24.5 t-120.5 -65.5t-86 -94t-33 -111v-514z" />
<glyph unicode="&#x153;" horiz-adv-x="1710" d="M96 348v314q0 78 29 142t81 110.5t123.5 72t157.5 25.5q53 0 106.5 -10.5t101.5 -32t87 -55t64 -78.5q49 74 135 126t207 52q82 0 155.5 -21.5t130 -65.5t90 -109.5t33.5 -155.5v-127l-657 -95v-100q0 -53 27.5 -93t70.5 -65.5t97.5 -39t109.5 -13.5q37 0 77 8t79 21.5 t71.5 32t55.5 38.5l86 -100q-72 -66 -175.5 -100.5t-201.5 -34.5q-59 0 -117.5 9t-110 30.5t-93.5 55.5t-72 83q-49 -92 -145.5 -137t-206.5 -45q-86 0 -159 26.5t-125 73.5t-82 112.5t-30 145.5zM252 348q0 -47 21.5 -86t57.5 -67.5t84 -45t101 -16.5q51 0 98.5 15.5t84 43 t59 64.5t24.5 82v332q-2 45 -24.5 81.5t-59 64.5t-84 43t-100.5 15t-101 -16t-84 -44t-56.5 -66.5t-20.5 -85.5v-314zM940 563l500 70v35q0 47 -19.5 85t-51.5 64.5t-75 41.5t-90 15q-51 0 -98 -16t-83 -44t-58.5 -65.5t-24.5 -80.5v-105z" />
<glyph unicode="&#x178;" horiz-adv-x="1296" d="M43 1393h182l412 -686l416 686h184l-524 -834v-559h-156v559zM372 1503v170h164v-170h-164zM741 1503v170h162v-170h-162z" />
<glyph unicode="&#x2c6;" horiz-adv-x="714" d="M102 1257l254 177l256 -181l-65 -84l-189 125l-192 -123z" />
<glyph unicode="&#x2dc;" horiz-adv-x="833" d="M102 1280q39 63 83 98t104 35q35 0 69.5 -14.5t68.5 -30.5t66.5 -30.5t63.5 -14.5q35 2 54.5 21.5t35.5 46.5l84 -56q-10 -18 -25.5 -41.5t-36 -45t-47 -36t-61.5 -14.5q-41 0 -76.5 14.5t-68.5 31t-64.5 30.5t-68.5 14t-61.5 -24.5t-39.5 -46.5z" />
<glyph unicode="&#x2000;" horiz-adv-x="949" />
<glyph unicode="&#x2001;" horiz-adv-x="1898" />
<glyph unicode="&#x2002;" horiz-adv-x="949" />
<glyph unicode="&#x2003;" horiz-adv-x="1898" />
<glyph unicode="&#x2004;" horiz-adv-x="632" />
<glyph unicode="&#x2005;" horiz-adv-x="474" />
<glyph unicode="&#x2006;" horiz-adv-x="316" />
<glyph unicode="&#x2007;" horiz-adv-x="316" />
<glyph unicode="&#x2008;" horiz-adv-x="237" />
<glyph unicode="&#x2009;" horiz-adv-x="379" />
<glyph unicode="&#x200a;" horiz-adv-x="105" />
<glyph unicode="&#x2010;" horiz-adv-x="671" d="M96 516v143h479v-143h-479z" />
<glyph unicode="&#x2011;" horiz-adv-x="671" d="M96 516v143h479v-143h-479z" />
<glyph unicode="&#x2012;" horiz-adv-x="671" d="M96 516v143h479v-143h-479z" />
<glyph unicode="&#x2013;" horiz-adv-x="1161" d="M4 537v127h1145v-127h-1145z" />
<glyph unicode="&#x2014;" horiz-adv-x="1597" d="M6 537v127h1583v-127h-1583z" />
<glyph unicode="&#x2018;" horiz-adv-x="264" d="M61 981v55q0 150 30 238t79 139l84 -53q-29 -47 -40 -111.5t-11 -146.5v-121h-142z" />
<glyph unicode="&#x2019;" horiz-adv-x="274" d="M-2 1009q35 47 55.5 101.5t20.5 154.5v119h141v-53q0 -82 -13.5 -141.5t-32.5 -103.5t-45 -76t-50 -58z" />
<glyph unicode="&#x201a;" horiz-adv-x="452" d="M166 -205q35 47 55.5 101.5t20.5 154.5v119h141v-53q0 -82 -13.5 -141.5t-32.5 -103.5t-45 -76t-50 -58z" />
<glyph unicode="&#x201c;" horiz-adv-x="540" d="M61 981v55q0 150 30 238t79 139l84 -53q-29 -47 -40 -111.5t-11 -146.5v-121h-142zM340 981v55q0 150 30 238t79 139l84 -53q-29 -47 -40 -111.5t-11 -146.5v-121h-142z" />
<glyph unicode="&#x201d;" horiz-adv-x="559" d="M-2 1018q35 47 55.5 101.5t20.5 154.5v119h141v-53q0 -82 -13.5 -141.5t-32.5 -103.5t-45 -76t-50 -58zM281 1018q35 47 55.5 101.5t20.5 154.5v119h141v-53q0 -82 -13.5 -141.5t-32.5 -103.5t-45 -76t-50 -58z" />
<glyph unicode="&#x201e;" horiz-adv-x="808" d="M166 -203q35 47 55.5 101.5t20.5 154.5v119h141v-53q0 -82 -13.5 -141.5t-32.5 -103.5t-45 -76t-50 -58zM498 -201q35 47 55.5 101.5t20.5 154.5v119h141v-53q0 -82 -13.5 -141.5t-32.5 -103.5t-45 -76t-50 -58z" />
<glyph unicode="&#x2022;" horiz-adv-x="679" d="M150 354v377h380v-377h-380z" />
<glyph unicode="&#x2026;" horiz-adv-x="1527" d="M150 0v223h217v-223h-217zM655 0v223h217v-223h-217zM1161 0v223h217v-223h-217z" />
<glyph unicode="&#x202f;" horiz-adv-x="379" />
<glyph unicode="&#x2039;" horiz-adv-x="581" d="M86 356l326 371l73 -76l-223 -291l223 -282l-73 -78z" />
<glyph unicode="&#x203a;" horiz-adv-x="581" d="M96 78l223 282l-223 291l76 76l324 -371l-324 -356z" />
<glyph unicode="&#x205f;" horiz-adv-x="474" />
<glyph unicode="&#x20ac;" horiz-adv-x="1337" d="M74 535v106h301v154h-301v104h301v143q0 88 33.5 160t94 123t143.5 80t181 29q225 0 396 -140l-72 -112q-61 51 -151.5 80.5t-172.5 29.5q-143 0 -219 -77.5t-76 -200.5v-115h490v-104h-490v-154h490v-106h-490v-129q0 -59 24 -110.5t66 -89.5t97 -59.5t117 -21.5 q90 0 169.5 28.5t141.5 79.5l76 -112q-164 -139 -387 -139q-102 0 -187.5 30.5t-146 86t-94 132t-33.5 170.5v134h-301z" />
<glyph unicode="&#x2122;" horiz-adv-x="1116" d="M74 1346v90h381v-90h-142v-345h-94v345h-145zM541 1004v430h96l117 -199l123 199h96v-430h-94v276l-103 -170h-43l-98 174v-280h-94z" />
<glyph unicode="&#xe000;" horiz-adv-x="1003" d="M0 0v1004h1004v-1004h-1004z" />
<glyph unicode="&#xfb03;" horiz-adv-x="1718" d="M-20 885v121h202v170q0 68 25.5 126t72 101t109.5 66.5t139 23.5q86 0 190.5 -30.5t192.5 -82.5q35 43 109 84t188 41q55 0 115.5 -15t115 -33.5t97.5 -37t61 -24.5l-55 -129q-6 2 -41 16t-84 31.5t-106.5 31t-110.5 13.5q-88 0 -144.5 -47t-56.5 -121v-186h222v-121 h-224v-883h-155v883h-203v121h203v161q0 25 2 45.5t8 42.5q-63 35 -150.5 67t-173.5 32q-92 0 -141 -50.5t-49 -117.5v-178h186v-121h-186v-885h-156v885h-202zM1423 0v1004h156v-1004h-156z" />
<glyph unicode="&#xfb04;" horiz-adv-x="1746" d="M-2 885v121h203v170q0 68 25.5 126t71.5 101t110.5 66.5t140.5 23.5q72 0 168 -25.5t184 -76.5q47 53 119 81.5t158 28.5q43 0 93 -8t99 -21.5t91 -29t69 -29.5h59v-1413h-157v1311q-51 23 -124 39t-130 16q-86 0 -143.5 -48t-57.5 -126v-188h231v-121h-231v-883h-152 v883h-198v121h200v188q0 47 17 86q-68 29 -145.5 51.5t-149.5 22.5q-94 0 -143.5 -50.5t-49.5 -117.5v-178h187v-121h-187v-885h-155v885h-203z" />
</font>
</defs>
</svg>
